<mxfile host="app.diagrams.net" agent="Mozilla/5.0 (Windows NT 10.0; Win64; x64) AppleWebKit/537.36 (KHTML, like Gecko) Chrome/137.0.0.0 Safari/537.36" version="27.1.4">
  <diagram name="Page-1" id="l8YTX-6cOPPoikClIkrm">
    <mxGraphModel dx="1042" dy="562" grid="1" gridSize="10" guides="1" tooltips="1" connect="1" arrows="1" fold="1" page="1" pageScale="1" pageWidth="850" pageHeight="1100" math="0" shadow="0">
      <root>
        <mxCell id="0" />
        <mxCell id="1" parent="0" />
        <mxCell id="bysPSU3KUHxThp5r5Yt8-68" value="Thuật toán &#xa;&#xa;&#xa;Input&#xa;&#xa;If ≥ 75 thì&#xa;    Print loại A&#xa;If B ≥ 60 thì&#xa;    Print loại B&#xa;If ≥ 45 thì&#xa;    Print loại C&#xa;If ≥ 35 thì&#xa;    print loại D&#xa;Else&#xa;    print loại E&#xa;&#xa;&#xa;End" style="text;whiteSpace=wrap;" vertex="1" parent="1">
          <mxGeometry x="540" y="180" width="180" height="300" as="geometry" />
        </mxCell>
        <mxCell id="bysPSU3KUHxThp5r5Yt8-69" value="" style="shape=image;verticalLabelPosition=bottom;labelBackgroundColor=default;verticalAlign=top;aspect=fixed;imageAspect=0;image=data:image/png,iVBORw0KGgoAAAANSUhEUgAAAaIAAAJjCAYAAABOVxXjAAAAAXNSR0IArs4c6QAAAARnQU1BAACxjwv8YQUAAAAJcEhZcwAADsMAAA7DAcdvqGQAAP+lSURBVHhe7F0FYFRH8/+dxUNwKA4tlAIFirSlFKiXuru7y1fqLv+696srdfnqLXX3osWhuLuEeHLyn5ndfffucvG75JK8X7Jvd2dnZuXtm7l96urUa6cQHDhIBvBMdKmkIGJmVlhQASrjt5c5cNCcUN25b46Z+jlW3Dp24CDxqMx/mDKOTagQVR0c0eX2fP0cWA4cNH7U37HiOCIH9YNoR2NQpdMxiGaq6UHC/I4TctCUYeZ4ZaG6qAlv3eE4IgeJRyxHU20HZEe0UP0eLA4cJC8a97FQ6TWi33/4Cq1btUIgGNAUB80FqV4PHvpjFl6bMR/HDtwJu3btiBJ/QNyAy7Zlx+DSB0FI0xmuEKVdxKOYCOGyMEiWeIIhotO/28W/i7RWEmTZUCgID/EYSS5V9ai0Cx6uDC63Cz5qc1aqF5+98Sr6DB6Kjr36ICht5jYys9Yj4kS1tY9UUJ5TmiBggsnrFogOpc/n8yHV50EpHR4lpaVCF4VU6HJ54An54S8qQkbrNqBO4Os3XsOzt92I+998GzsMH4WC/ELqM+vXY2k1RrVT5yRtoLgVotMGYX6zRxRFhpkIihZCGrX/k5kL8OfyVbh51C44pl8P2ccOHCQKHo8Hm7dswci9D9YUhUod0awpf6BVy5Y656A5wR8M4fgPfsTCLfm4du/haJOZTj9ItBUjGGMmIMPJSUVT0CUE5WzYsXAps9oK4aOJ6XYFuIToQc0bRDAQQEpaOpCSgcLCInIoZaoabax5y3ypbg/SvC5yBEVYsWA+PnjhWXz57ru46sFHcPDZl6CoqIDUsqPyID0jXdpcWFAoOhiW7ee0Siqi7pOAC3Wc4kslB+SFLyMFK/6ZhIev/g+OOu9C7HH4UVRXmbSPxVu2yMaT11yGHz//HHc99yKGjj0QP0/4CjeeeDR69+2DhyZ8j9KgRzlspZrAspTiDEdUxKWqLApE5LrsTkbluUjT6E+lCDLwGrpfaeREZ6/ZgKf/+AcHbt8ZT4zdXRU4cJBAbNmyFQOG7qlzCo4jauyo0FLVDUu35uOId75B+xZZGDdqKP3qp4qoHrab4eo4w0ST041hBqHpAiNhi1iPx+tFwepluPuSc2k55IG/zE/qQrRCCiLgDyG7VUvstPMgHH3u+WixXXcU0upCKXARuxdbSPbOs09FZnYmVi9fjo1r15HTCeLIM8/Bubffi/Bve1o3uYL48L8P0S/+IE689D8IpqQLr93YW+2PgioDvKkpWDTlL8z74xcUl5VhxcIF+O7jj9Cj705Iy8zCJXfejV677IYUWv389dkHuOOi87Fdl+5Yt3oFbnj8cRx87gV466GH8M9vv+D658ejpCQomu2OWkCRLJQIskqTQSf3IjSVVk5G8xNJsysVnNFyzGNWQqbA5D20iiwlh3//D3/BR4vRz04ai5ZpKczowEHCEMsROdeIGju0LYo3pq/fhPzSMvTMySbD6iETRpaL/sW+0YZNmvze5oQdwqCTbDx1+zjiX//GwDKdT40Fi/Ixc/JkzJ48CeuXLZGwacVybFmzCvOnTMKbTz2BCw/aD+vmz0RKSqrUHSQ9wWAA7Tpshx13GYblCxbSEs6PvQ45DI99PAGXP/gEAi43L7CkKUG3G25yOhPefB0f04opWFpMKyQ3tUFPf26MNJSDHSQt7aQkhRRaQfz06cd45t678eojD+PnL78QrlWLFmL53NkI+UvJQbpRkL8NLz14Px1sw/HOXxNx+Ikn4o4LL8Q3b7yFA888H+P++xzKyNGyTh4jqYedjfqXcVLQNM4KifaCDBzzsPPSdGmfMKgyyXIi7HS4VGTVv9B51ZudkoIuLbOxvqAEszdsYQ31CN3mSiDtVkkHTRjOishBTDz+90w8/tdsnDlsAPbo0RmFZOiVCSPDYAylMYpi2YzBMNOJiJoeAaVCjKPL50PevzNxyj6j0L13b7z0+dco86SIEQ3RCilQXIiHrvkPfvriM+x72OG4Zfzb2Lwtn349KSUuXwpyMrKAQCG8Hlqx0Cqn0O/Cttxc8j60HmJDTLrc6Rlo6QrgpCE7IT+/EB9Om4NQ6w4oLS5CWSGtssRAWx0gcELXQRE7Ya8vFVmZ6Vi3cjHyVq9CVss25Hxm4NozTsdRp5yCqx56AptKWUcIPjLuxVvWk7EPok3XXsikuif//CtS2nVEh05dyImShyQnwKcMPeTcUjPSEQgEUaxPGSr3SLrIWabTSot1FhUUURSwxlpzSDMNiXpLPGqdJA6IYyqwyk1CI0iZTJ8XX85bjA9nL8Dto4fgzMF9dKkDgRpYB3GEsyJqlrBZnpiIXb5gU75cv+mQnYEAWzO2bMTLfwbhX+4EKo48XllGJxmm0MiQ4WeS260LaHVSlpKFYm8miiiUuFPgbtsRJ11+pRQvXrAAJflb4RZrSk6HrwuRsZ/0xQf45JUX8O4Lz+H1/z6Kvz55Gz6U0eopReryeb1YNX0iPn3xKRQXF9PCqQwTXn8BXz/7MOb//Qt8qXwqyrTJNNO0SW2yMzOxZtYU/O/JR/DN/97DiuXL0Wn77dGibXthCxBfiS9D1PCKKEgOdNvGdZj6/bd484F78PLDD2H9imVo2SILaSleOSXIcJP3LKY+TXjhv/h7wkfkwLxE1SNM4+EK+fHN68/jpw/eAO0KoVltI4j/pFicDQtp7yPykg9zm1gSklHjz9f9OrfIhpd0/7uJHLgDCzKO1sBVAyLgoDZwVkTJBN4TNZn4dUEVdR33vx8wb9NW3LzfCDl9w6dxwvyUllmjCRwZkgXmpwJDpKQYS9qw4ZRfQLSiKVg4GyftNRJdd9gRz337MzmgVCpjniDS0tOxYe40nLbXnujVtx+e+epbFJGb8aakYcXsqbj0oP0RIMcSjR13GYLbX3wNObT6SKFV15v33IJXHnlEtZbaZFZ0R5x2Bq545Cnk5hdRWbihio9XDEDL9FS8/uD/Yfyjj9Aii1eFCv2HDsdJZ52Jmy+9BEecfAoue/x55JGedJ8LN55yLKb+/KPmDCO7TVtcdc/9GHnMScjPK0BaairWL5qDM0ftjgHDhuHxr37Gtjy1KvKwQyvchhN36Yd2HTrgpV8mojBEjkrfwWpWNzKkvNVjLb7IdIXBGWt5xP+Kl7Oc5OtEG2iVeN9PE7Hbdm3x6lFjuCS+4PZIhQ4cNMiKiGdgM0dNhqA+D9ZK6iqlX+z5JaVIo5/hafSrna/J6N/pCpIkBfTPSROUTsOnCw1NG3+5K4xjNpwUZLVFYMPbMjMNLXOyaeWQidZtcpCFUnz82qtS3m+XQUjJbi3yLFFcVIRdR4/Gfa+8jnf/noa3/5qCdyeS07roYsyfNhVPXPcfpJIryS8oxgFnX4rXfv4dHTpth+ycHLz63c949e9/cOp1t6CgsEQZddVQAmnnJIVMcoR/ffUpXn7oAbRu1xb3v/Y2Ppg6Ay//8CtatMzBfTfcIBIut5fsPbcqBH9JCVq0aoULb7gRr/z8B975ayr+N2kabn/6BbgDQTxw5WXYvORfeH1ecXQpHp/WweNBLpir5ySlebXodruJl+8sNO2zQZPU2obH1CIRNE0Nr8TWPlRNFRamZ6X65Hb9zbRirAhasnYIN8qBg5hIsCNK8hlYp6OrmmiEB2FxmR/F/gA5IS+8ZAjFZmlDaAwbQ9Lyi1t30yrUMRMNyQyERLRhOgW+3sOkDatX4e6LzsEj55+Mhy44DfefcxrOPWAffPDyixgyck+cfu0t5FRKZMIGS0vQa+ehuPP1DzD4wKOQ1Xl7tO6+I3IoXPrAY9h99Bj8/cP3csODh5Rn5LRC5+13lOd+QoEA2nbtSWF7pGW3kTv0uP6wM6JA7QoF+QmlAN559mkuwLX3PojdjzoW3nZd0LHfYNzx8pto36WLlKmrLeQ4WJDG7Nr/PofjrroF7bbvj8xufdCCwtgzz8W519+IoqJCTPzuG2T4UvXNFOo0nYAJnJf6ecOugx2vC3w2j4dat1CBylWeCjhWIpoh8seD9I82lixBpUNyCpbv9OM7I0sreI7ILuegaSA8OzTKEeoPiXFEDdihGqFZHF2xd0Zlu4ivG7CBdpNx4l/kDHM6i2+v5pQlTwkZRmujgmTZUBrryVkKFgdtWBOvtjjNd5pN+OADfPbeexImvPcO5k2fhrSMdOx38MG0mukkGpQqlnEj6CYD6iUjnbcJeetWSti2fh16D+gvNwRsXLNGHqAL0UrETw6IZbkf/kAZ/KVl1E+/NIrbxcGA016vD6sXzsfMiRPRc8c+GLrv/ti6eRsNjh+ltBpLyczBAYcfJfxBv590kzOiCqgqBGiFxErcxdtQsn4FtWkN1q5Yhtb8YCthydzZtMrha0DkvtjhEHjE+DKQGSzTJtFLPOr0m3Iuag9woeLlWCiUFYoplsBbIog4SbKM3ieUFVYPjaXX5UEZOaISff3KQdOHzBU7yhHqD4lxRA3YoQYBH81xRvxUxt4ZilpxLWKkOIhhMjrIkBFNcmTMxMlQzmix16TOwFEZJwwDQRk/1qOIQTKMbIu79OiJFz77DE9/9iWe/mQCnqTw0DvvYeQ+++KBm27ENScejVSUIeRm0wy5g23Wz1/jltOPxWmjhuPYwX1xwqA+OHD7bnj9abWKKaPVhzyjQ38sFRBJmvRiwFX91uksySoaEzw+LwoL8uS6UEdygqktWlGX1VjwWbSyYAA77Tpc8dMYqVa54EtNQ+nm9Xj2xitw+mhu1044bucdcPSOPXDLBWcLuzy+yw6S69PjIG1gUJbTXIccnLpJ6g0MXEZ/0n6ClhUZTnKgopDmDWsNx5ziW79FVpPVfmRxtTp04KC+kRhH1NyQgKO3fgxC7FpS+c0BZCj99PPeXMMRg04GjP/kV7XIasPGDGLYdGCLaIykwNRjygmsQ7Iq7/OloteQkeg6bBS6Dx+NnsNHod8+h+D2V97EbnvtjYk//oAfP34f6RkZ5IQy8PP/3sK4E4/FpB++x9ARI3DB9TfivGtuwIU33YJhlGcEy9Rrd9jpcSxtl1NxVCfNfLs9V0m95WIilvKzPgR+dRA3lnMiS1teycmdeQS+a46fS/JQ8G/biGuPPwr/e/F5tG2/Hc4adz0uuPZ6XHTjzTjyxBOFnyvkOqU6WyP4YJRhoQaIW9NHJ7dfHLsOIivyStYq4zTRzRBb+4JlJM+xZjQx6WD9vIL0UYU+vQJ24KA+4cw6B+WQToY3g5xRkd8v1wz417nYM44psH0TB8LWTTLKwCkDqZmiwAZcSpjdGF+CsXt8lcVfViLXf/iCf1lpKUrzC1DsTsWoQw4VniXz5yI1NRUozMOb/31UaPe++DLuev1/OOG623HstXfgtJvuwA6Dh0pZGa1m1OpAGqpXQlyXCx4maQjVNIliLmIH7BFZyBsf1FpKOSPFARQXqov73G8uT8tIw/fvv4NFc+dg7HHH47lvf8IpN9+FY66/A8dRvM8RRws/X0uS02QsS4PLzeK7EuXkofxTidRtDk/i5WUjkwimqTLW/C8Dr6C6SBp0LIHVcZZzhtcQKM918xsW+MYJfni58SM8Hg4aBxxH5KAc2Ea1SU9DSVkA20pKxYDLoS1GTFk1cTz8pyxe2LBJiYEyCIrTyIiwLmKDzDGl6Bd5gFYr/CYhVim6XXzXHrB1/RrhkRsbyHAX5udhxeKF6NK9O4aPPRTrtuQhLzcX+QV5KKUwa+JExe/mu834Wgzpo7bL+o3k+XK8/ZK8NIc3VMxt5xWfnxxwy5zWSElPx9Kly1G4eSM5DZ/0l9uYkuLD5N9+YXHlTMmYe6kPKxYvFtpBRx4tt1vnbduMfGpbsLgES5aosiBVwoEvKPGqKi0tA8XkeIOBMqlbtc2L/K1bUFpWpvpAdHYy0laOWZ7HiAk2mH4wo5z+pM5b/ExjJoZOs95CcrQl1JaMVI92ZPUDqy21RMXy8e9EXdvqoHLU2BE5O6R5oE+bFvI+tY15/IZoYwTJkYhV00z2A16MHvNpp8VlUhx2QoZkKJwLak/Ez7PkkPNrmZOF7Ows5GRloXV2OpZNmYgPX3lFePoNHoySomIy/D5ktGiJLZu3YMvaNcjMyoTXl4J2rXIw4+fvMPufKcIvv/7JmcmqiP75+aOgn4w/r/hIfyq/VFUYVeCI+cSv8LWhHfpg4PDdsHrpEkz69mu0bN0CntQUZLZogdxVy/Ddxx+whKyGuH8BjxfZOeq5u2XLlyMzM4PalY4WVFfZ1o14/6XnpUwcIo0TO96WHbqgU48eWEqrvQ1LFyErMwvp5Jjat8zC56+/QquxMvF05iqUgLvFsWkzb4mmoPqqNlzKZezwtRA7Jv5TgvDSuG+mlR073m4tMhWxnqCbEAGrG9VALPlEoT7rao6osSNydkhFqMkhVBskWn8kdiBHxKenVuTmyy3cXL1azyg3wo6JJwNHygeReaWY0wqcoUgzqgviSpZpHIuDEw3AxnXr8MjN1+PpG67C0zePw9O3XINbTzsOFx5xMDZv3IRBu+6GXWn1k59fhKx27bH/4YejIG8b7rzgXCyf8ify1izBp08+iP+75GJ07qRuq86nlROvgNh5hmhl03NAfxQVFZH+6/D9a8/h90/ek5UNwzpVxoHS3Gw/HR4nXXaFtPf+68bho8cfxJYVCzCR5MYdeyTc2pq7PbSSoCEqLS3DsDGjubt46aEH8M2rz6N4/QrM/vErXHPC0fB49QtF+Y5Ero9WUR5yhsNGjUGAZB8cdwVm//QV/v37Z9x9wen47oMP5MWwQb4Vj1tG/DyMqlYCN5ZhERiUkZ2gR5b7Iimm05baLH+cJrV8XWvdtjyUke6+bVqxRIMioisOmg1q7IgcVIREH0Lx06/dQaUY1KE1Mnw+LN60lewfX8FhOeVARIMYu0hN5bUq46fAaQrcDaJpM0k23i3OoLCoEB+8+ALef/YpfPDMU3j/mSfxy5cTkJqahsNPOx13jn8DZS4fGdAg8otKcfr1N5PR3xtT/vwd547dFycOGyx31x13ySU48ozTRfcmWjGZ1Vww5CH6uchp2xYT3n0H9/3ncnzxxivwyX0I0iAVa7Bj4ve7DR6zP6574GH4S0vx+E3X4/TdhuHms09Hjz69ceVd/6eYAwE5kPgVQjuN3AcX3nKnOMn/u/gCHDe4P644/mi0bd8OF427Rtg3b81HGb941eNCQVEJTrrqOuwyck9M+e1X/Oe4o3DFEYfi92+/xW2PPopWbVqrlZAaLhlOs5oxUM3WbadIbibhmLOU1iVhsLwOXLp4yzZ4PW768ZElxYJyQg4cJA7OK37qCB68KLvQJFDkD+CId77D2vxC3LL/7kj3pcjzRRE95khmD23Y+FmgfLS1FGg+bfD5PjFvyI+Na1fKKSL1vAyV0z+bdn6zQXpaKjJoBVRQWIoAP68j4vwSUp98h2j6z99j8exZcsps2F77oFv/wVizfDnyNq5Hy44dkZbdklYUAdLtQnpmCoo2rceCqZNRRk6jXY9e6NR3oOhV0O2mf05qCrKy0rFp2UJM+fEHFNMqq/cuQzBg1F7YQqvFTStXoEVOS2S1aUPOxY8gOdYWmelYtXA+pv/4LUpKSrD9oEEYPHofcjql2LBiqTyj1IpffkornSD1mfuS7Q7izx++weoF/6J1h/YYvv9YpLVuj+Xz58g1ojZde8Dv55Uan6TjQdBNtLWVYbIWmRKyGI0BubZFY3nfjxNJdxCfnbw/2mWkqcJ6gmlr40EtW9z4OpowON8jclAj3P7TVIyfvgBnD+uPPXp2QUFZmRg15S7UkaXWROoIs3wMxepUFycob4jCy0m1HmLHw7/Yvfo1N8piKo3yngKSY0PNn3zgU3ssYyCaXB6kkKPiaz7MW8wPqVIbPW5+Roe5A/q0FqsmPaTDQ06A347NbWIH5Kcgp8kitBOko6rNfGMBt5Hv2HNRXWXFpfJFVi7zePj9b+xQ+BYD1T/W5SPHnZpKKziy9mVURwnJyAPC5FSUYyR+rkL+CERPT08lp5QqX5UtKy2ROxb51UfMIO+5o3bK2OmmSqupjSwvLdV0c5rRQD53IbKaUxfymzMWbtqMJ36bitFdO+D5w0epAgcOEojG8fZt+xFUT2iAKhOM+PRo/+27yPWhqSvXaQoZMW0FI2vgHBk/QzSGkAkRjCxPkbCTEdXZQKCMDC05ETK27BzY6Pr9tALiu8jMpw9oU85ZhILkFIpQkJePwvwCBPTnuoNB0kGB36igZKk9lFBOgJxCURFK+U3c/CE+bqLoNohosICvBXG7CgsKUJCbi9KSYpKjdlEf+Mux4iiJz9yWztr8ZaUoyM9H/rZtKOFPTRBPiHQEiK6cVhjsllkX3w7O+osK8qn/ZVRvUGRC1BfRTKtGqULGj7tl2q0IwkNJOTVnQQkIn2ITHZzkZ4am0b4tLQti75785goHDhoG9eCI5BCoPuzHUD2hPqqsdBRqOERVozo9ilFpFGlop7bo07oFFmzcilVb8+SBR+VkFKOKuS42kGxOoyAEw2OUqzSbTWU6ic6Ogos4yTT+ac9FtnLFoCIOUp/IkR7h1eCM8IZ1Ggb2i0q/SgtNRQKWsDs7UyYxt0Fgyrl+bofKiaxi1IEzzGDjIZLREoYu1OBy6YIWj1ClFUg5B8VNgSEEzccR/el+M8IpxcbXzvLIoU5fvR4dstKwb6/OqtCBgwZAPTgi+yHQfFHpKCTLEEW1I83jxpF9u6GwrAw/L1qBNB+f8mI2xchb9ZucAhlJToWhSlWwQZiIFkFWGWOwRaf8MzMRbYqlbmbkcjG02p3xhsnKCgtUaRhGryomOeKVNNMoIWlxbmE+Xl2oO/5UrxUP/VNgKocwDIWCdIb0G2fAkSKpjfyr+hWHFJhMBGs40oUMIWhpqks5JkrSRqpmqCLtIDmv+sB5/iDexOVrsaGgCPvt0BntM+v32pCDJISZJw2A5Ds156CeYKxV5Th6p57o0iITU1evw5pt+fLkvZJUWzV3OR2manNnSAT7DOc0BYtETNpSyg9+zkrO6OGEinkrZWEGlabASeHSZRYvQei0YbNvGWxOU4LT4nqkDUQ1Ho2D+hcetWFXppyHcIsC0aoYaSN/Nk8g9dFGfJnoYDldTnyaRNA00cesFIcLVakR09UZabtuLjBJqxoVEShF/3xjSEFZKX5atBxZaSk4ZcD2uryJwQyEg+ohPFHqHY3CESV6Pon+WlfSGGZ77dvYNiMNx/bria3Fpfhi7kKkyqrIGMvwzDU1iFGnmA1ymGhLV4SIgyBszGUrTkLpjYStBVQobCpppaUZrIvzbLG5QGe1ditWzVQlvGVWpYfbY8q0MJeJnAriXHRWquBAWQUW0HnNY8BJVUppzaCaSBn6N2UMSWtZo5GdkXE4TJU2c0p7MWk/KdbDKXl+fdO385dgFf2wOLxPN/Rtm7w3JKleVBPRzNa4NABq1HAHjcIRJXo+sf7wwVxT1ECwFpMzPvO5biN4+qDe6NkyC1NXrce0FeuQ6Ushg6adgKVat1RbPNNui0cSEVTFqg2mVSQxbSLIij86xzuNKZrVVkCgtMkKF2fEWVBgAVu5SrAz4UhTOdI8mmJB6uMyXS7QaastDKZpgswvzSOwlRmI0yAYHs5a/JwxuigInTa8F2RlJhD3JXrZMUrMZF3Oaf4AHj8b9vPileiQmYGLh/eTsmSFtL+6qBFzgpGItpjd3ATRrE/N2fdrvcxhU0kNJlS9tKuK9rRKT8XVe+ws71j7YOZ8Wh0VIcXLU4cINllJWvlwgXIX3JPIARD7GIOf2aLXP2qFpAytiNnVaViOhGJTxEZaNOmN3fiLDkkwUa93TLkiKVDMLFaVtJGY6RyrpMAYf/NaoXLQtPJFTNFBlLMu1SYTZAikrRpWUo2LwEpQMacpGBLL+4NBvD1tLgpL/bhst37onJ2hSx0kPWz7tqmhyTki22FaJWq8X6ujvDo8yTahqtGeQ3p3wyk798ba/CKM/3uWWDn+6FxYONoY0ob+eTjUkJgUF2pOw2fyBhFjqKUpYi7LARkeneesmG1ilGJOCo0LTUq5RIZxGApaCbMKn9LB4DzLcN7ISoJ0Wo6MYEtaEDYu0MIiT2ndnHC5BrdPsoZX5Siy94lS9K9apWClhB6GcaqmDv7s+5tT5mDx5m3Yv2dnnDJwB1XQILC3tLGhMbc9OdHkHJE+5qpALSdSdZRXrwGxEd2sJJvv143cGaO6dsC8DZvw2uSZ8NFPbH5ZqYGkZKMbzpGxhgIuNHmKxSLbYBu7sFuLIIbFzYrDymtO3kSJKGgnZCuX6nVaIs0QVkkpWYZQkfRDBVl0yYayXMxBF7PRF8OvNvSvA2VlhcNJ1sXFrEsCQ9VrgqIxLwXSpe7eU1zhU3EEZtTBJAUmw1VRnJnixfvT52LiijXYqW0O7tpXfSojDJvOeoHV0kaIxtz25EQzPTWXpBMpullJ1Ew2U/yL+oEDdsWO7Vpj8qp1eHniTGpiCCn89D/F9l/pnGcDqDpBQVlRDeZTGWV+VYqttMobRrs+KZZyMcTG0OuIwdKW37Mch9amVbKsxcOw0mF+hvSGjT+lRVTq01y0UTo0v4mYxTBwgvKWQ6WstE+ymkoZdQs6g0uZRFvddvkTOZZQCSnRIhyLDCWkymgQjT8Dnu714r1/5uKHhSvkDdvPHDoSbcq9ykcrdeCgAdBMHVFDIZa1aBwwZqpDZjqeP2wP7NimJaasXIenf5+GvJISuRNLHjKlPiojrSTEUNKGaeJAJGMMvNoy1JZHiMtZgRorMcA2sHMQQ0xBSkinzkpgWH5A8woH55nM9WtIUzimoGrRBAOthx1CmG7noR5IuSQ12fDSxngMXcKwHIaOuYSTJhZx00EOHBkYMpdz41lAhLmHOm9AaXOH48t/zcD3C1aiS3Ymnicn1C3H9nJTBw6SAE3UEdmPyPigrhqVPFuRxo/OZNBeOnwURnRth7nrNuHRn6fgn9UbkJXihc/tUUaSwH1mwysx20mimxFQDkIFIUrQpcbQUlCOictUkSVAsbmBQfTwRpE1qxEgKDYlypAiVS6ylpTh4Haq8jDCmm2apKl2VpGU9ktGlVv8FDONImHh2CphRpXjMkNnqhkWEVcKFaRQRSbNdzO63S5kp/qwbNNWPPLzRPyxYi36d8jBK0fthR2S9lZt0+MkQZI1p6mjiToiOTTjirpqjH+L6oI6HGUsSqFDVjpeOGwUztqlD7YUl+CViTPx3B//YH1+IVqkpKjTdcQn9pFjLSc0TWeYcnEkHDQ4z0bXGrcIGWW27fxMiHBGzMAJljMx03XanPZSMPUYJcISEWuPwgkKyvlpIUUiOXYCkjQ0DcMm9RDdtM2wqHIuoK1m1jVYPKZvDI4k6EIpo8DvBcxOTZGXpb7zzzw8+cc0LMstwDF9e2D8EXuhe079fviuZtCdSxYkWXOaOpy3bzdS2OySStsJ1UQtRGLi+yWrcf/vM/Dvpm1okerF0M7bYVSPTujSqoV8eK2EX/bJb9omXq6PY96qdpPJJWKYrsEdimX8NdRpPi2jiulf81vKTJ3RdIYqU7AVUGTaoyQVQbi1GkPX7lCJigqtgz2NtM9oYRbFpChGwNDtJUarktLFhp2aQpysW6tg5+Mjp8/ya/ML8NeyVfrVPcXo0iIDV+0+AEfv1EMJR0GriB/irtCGROpuYkj2oXI+A+EgYdhWUop3Zi3GGzMWY0VuHtJ9HvRqnYOBndqjT9tWaJuVIZ8dMDbaGGAx8vqnvZhgY8wprXjDJ63k4BKaosjWbLQnliwltQ9Q8pLRJl6zMrf1UC6nNV1B6WIlrEudNgi7DAXKSZI3rEfRmd+SZ0ixkpSMqVyy7FR0lhLilEWXEMJpNRDSRnE5kg2hNBDAxoIiLNywFTPXrsfizVuRX+pHy9Q0HN2vB84b0keu6dUI3BjVgOqhBvw1Vc2ojUz1kDjNTRt1H7c4OyJnRzooD34V0Mdzl+GzBcsxZ/1WFPmDyEjxyEOxHcgZtc9IR3Z6GlK9bnjYEHPguSSxpGTLn3/jjBhjzcOzjW26OB/mk3Kd5lI+G0gMXCw3KliFRoi/TWSrRxgpaD5atIk8E0SeUlKvvHVcWAg6oQplI3oYhkY6+BtGnA+r132QviiafClJ80gbVUpo4vZ0B/jzFZwKBoPk8MuQV1qKLYVF2JBfjE0UF5f55f1x3VtnY/9enXBCv+3RLalPwzV92Pamgyg4K6JGhcY9lcvIaM5etxW/LV+Pv1dvwFJaJa3LL4Kfv7FDFpjdhTLMxKy7qpyAgTHYiiY5SoqBZzlNVVCrBZ0U8GcOLG2S4A1pUWokze6OM1wtOwgPrdgys7Ll43m5eXnw8+e8QwG5+K9WKwqiSWfEUXJe0kore0RFJ6pVn+JhZyc83D6qmGmyIZLhMzGvxKRcwNpCCNDgsWNK8Xlp5eND95ZZGNG5Pfbo2h47d2iNdC8/ZOzAQfLCcUQO6gU8ocIGVGFLUQnWFRRjTX4hOaRiFNKveHJJymFoB8TOwLLCnNYZTolRJyiK2RrHog26eCPluswCQ3FqHVKXSnPd2gNJOTsIb0oKXnr1VSxcsBiXXXg+OnXaTn2gTipRdSn9yimY1Y2i2ktIrWy4REVclZTr+riYt5aDIwGjTZVZ4pbD4utB/GkOfgaoXVY6OmamSdrw1Ra2piYM1a2jPtrioGHhOKImBssAO4du3LDHnmPw5++/YMY/07DzoMGa2pxQC1fgeA8bnMGoCrEckboOm4yo0D3WDxq4+mpB/YJuHpO+uvujzvst5JcoaB0aNdVYlxYkw6xzjGjd4IxfbVBHR5TAA6eB96cznRILM3OsGVTFVOL9UZ3ZVtF+i5atSFfd93s1NcRsQE1rj6GkOoNUGUS+hkrqPmgOkhR1nU7VRR0dkTMDE4v6mgb1DzNzzEX/6kyl2s02VUG0bIW69DWccMPqgkp01KAzFWuJoaQGemNC5OuqxEFTQX3NhOQ9NeeA0AwMQkK7yCa8hhXoGyd0VMefAvHpXEVa6tY2Bw6SB7V3RHwUOEdC3VCr8XMGvvqovSMIS8bHmSRil8WpZc0AzvGS7Ki9I+KjwDkS6oYajZ85mJyBTyjMUkgjbiPt7LIGhDP4yQ7n1FxckchfXvE4mJxfhlXB5Y4+JJwxc+Ag0XAcUVyR7L+8qtk+x/bSEKhBCH+4rqZwBrFJoYrdWbu97cwRA8cROSiPZnwmI/I1Q3UZimY8iE0RVezO2u1tZ44YOI7IgQM7zO3bxh/V2lZU9GvX+RXswEE0HEeUIChzE8Po1JMdkmocm1djlH98qLaDWJEHq8KzOfvMQTNEbEfEB4MJDYlGfFAqc8PbqE7U+hd2zSDV1FNdTQuR+yueU7Baupx95qAZIrlXRE3ioHQsS2OCcRaW04iTJ2I1zkxw4CA2nFNzTQFxMpaNFvHsv75ZQX+cwbpkZKGWdSk1zX1HOXAQG44jagpIqp/atTW2dTDScex/uBVGaZTyOtVlF66qv47TctB84DiiZo74m7vaWuraytW9BxEarHfNJdoRVNXfOnk8Bw4aEVzkiGIdbxUeA5HMiT5UI8CV1WuFzQON39zVvgdmOkVo0OfizJdUDfgBV/OQqwMHDuILtSKKdXzxcVjuGI8klCtOJGK2p5mhMjtoL2si9lK6kci+0Kpn06bN2LKFwxbk5+dbDigvbxsKCgqEvn79epSUlNL0a+4TMD5oItPTQRwRPjXnzI7kR2V20F5WK3uZhBOAm5RA289O57Zbb8X2vXbAgAEDsPOAnTFt6jSq0oXjjj0OO/XtK2GvvffBZnJYtYYe2uQ9xOq3ZY47dxCGmg2R14hqMh/rYe4m74EbHzRo/8pVnnzmodwdawnAFVdeAV+KD6tXr8bSZUtRUloCt8tNq6ANWLFyJdbRaujkk05Cp07b0ZjVco/pfiSkO3GZRMm375MK9XWgNqhBaAiE5135mxWqOxj1MHeb+uERv/7VYgY7tkfQu3dvjBs3TtIet4cOCBoY/tdecNCgQbjiisslHaoPz1hTOPsx8aivMY5bPY3Bo0V2NvZdc83OMzd2ONaodlAT/ZJLLsHQIUMQCAbCU18nbr31NmRnZ0s64aPcxI67JtWdRtWZZLAHNRsw+QEYE6yniR0YTRXObqot1OTPzMzEHXfeCbfbjWAwJLduB+nvsMMOxZFHHSk8cUNlO6uJ/Z5oCt2xdlcT2zeJR80GLPaKyEH9IE7PqlR7l9urq2PV8Wl5fCBtqWODDjnkEJxyyimkhlxQKIiMjAxZDbnjfTquMRq0ZNrZ9Yya764qBqsZj2VliP0ckYP6QX1fc7BXV8eqk8meSlvi0KDbb78dbdu2lfQF51+AYcOGSTq+aIQHXDLt7AZDdfdbFYPljGVMOCuieoPj8ZMdvXr1wnXX34AOXbrhmhuu19R4w7FEjRMx9hsf0s5hHRe4OvXcqcKhnDXlD7Rq1VLnmiC4545diBuCq+YCC6YAgTL6ieOFfGabVn0uiiXJA26tAmkxHgxSPqS+AaTpajISLXq/EKuClSAZj04YKYZ67JTrUnkG/d7i06BuKuFYf/5bRczF3G64qM2bt23BxMl/4pADDoS/pIRKqA4PyzOvbibpUJ8Qp3ZqeWHQZWFQW0ggFApIWoHqUUokCDvnmcRdkyJK0L/cpUeBI2ET1STDNEqHXEEdq3wEREAllU7ZyFBImpUKE+nzpsI9aG+4slorEhXZxZMWjaKRtUBT7ZfGli1bMWDoKJ1TaN6OyEH1UcXBEVg4Bf7/ngTkr5XrKqEgCZB1VG7BWFjasgEkAyrGkCM2zFJAwU0yQiMDK4aSwPVSULdO64xA5UW/WGOVU1bb0JmmyiwJwyegejhHbeGbFJjD7fXAk+pCoITvoON3YLEjCVI6bPTJYymd2vqzvBDY0ZEerjtEab7pwUV9kvqCisfFdD0cbtLJLWBRlgkSvzpFwc6Gz5qzpHBIu6V+t0f08lCp+kkfx8LEGwo0vlIHpalUhoRj1sYSQieGINdmxnnQ4fBd+iq1T7Wg4aD6VA4VkBsE5dqSTI2LP+LdO8cR1Qea9pwsD93fwAuXIDD5dbh3PQyeLgPI8PpVUYgMKhs3Npba2BvjJ2ZRLCzlucysWDgiM8mmmg0mG36WlDIZXGEgMc5LicD4AwU2qDrDdFZDeWWryRCLoWYlHNFG6Ez0Up4MOQXVPi4gcB+oL7xAYq2qauLX7WWCWiUp46+g9EqzdR3MYbkEyymxHuYnsCNjJpdPt0GIUi7OitrB9bC8ix2O1q18o66baaREXtzKfRWC4pMmMh/F7PbYsQZ+eQ2B3AKk/t9fcLfsIKyNHjIGKhk/JERps4PjiBKFxjw/49D2UFEuyu4cDZRthe/c5+BKzyDbGVC6LeiKIurTDHaaJaMJ0W2L4NXMYrkJRla8BNEsXlOgoZ1CmEHHtqTEJi0JjYi6DF0LWPy00U7AaqOA8lJOMOUWNJ+lw+ZIBSatZUSv0afTRtYS0wktospNhuD1IrhtK8peuBBo2RMpN30NV0qmLnSQ9DD7OxFIoO5Yjohnu4O6opo7zLIPyYQ4TLbgomnApqVA535wZeQgVFIAlBZHhRIV+6NoZRyi85pm0W3BTjO8ki9SZX7Oa5rhtfRp/jLiFRnNZ8UcqKxEp626uFzzcJlVzroM3ejQcVmpirk9UrcOwmNLG12mDtHHsWljdLnOS932MqaZMhOYR8uJLLXJ8HC9wSCCC/5GqHAb3H32VE6orpO0VvJJeWTUE+rQ90Q5IUYidceA44jqEfW8b2uBmh4Uij8461u5QcHTaxiRAuF+8q9vK3Beka0ER6IiopCSuh1GzsBKm3IVKeiMtUpSkQV1TkqJmjYxk44sfknrjJ3OMHSBPU0QXk2TtG5HhbDx2mMGp6WdkouEoUe0hUEFXGc5GTvBEpb/kMuL0JIpgCcFnkEHCEd1wZpiolz91UGthBoIFfa8lmhMfU8cHEeUKMR7vtYLanpQuBCiX9eheb8DmTlwdRtIeVoNmb6zU+C0FQuVxHTC5Bmmao6FTgmRo2DKLH7NZOWjYOmwQXTQxirjDesgguEVkk1Ys1iwp7kPVt5eQOCsIUnMOjnEgqZHqRDEohkYhyvQ+u19iWxAGCJHga95FdG+WjkPnpxucPccqspNM6PELGi6YWt+aEQ9r2gf2lEdnnqA44gSherO14RMhPqbXaE1CxBcNxeu9r3gbtkRroDt2hCPgQkGXGYvNzA0iU0BZfiXvymLhl0+IhNRoOQl2BRxUtg0zVYUka4Qug7hpTRn7foqghazEGvlFE0yMiYuJxKrzuiKouBLQ5CcUDB/I7DDbvJDIgIViUfTq+hunZBI3bUBtcfepGRrXjlUMQUE1eGpBziOqKGRkIlgU5qQoyWsNDjne7j8+XD32IWqtVUmqxlJqDhWP23s4XJD1EJ2nmiB6DLWweSI1UIU7EWVsMVGFQJyEwQHSnOIhWgVMVXahO167Lx2uqQrUFzRWHi8wOK/STQI9877aGItUFE/44FE6q4NqD3lht1BXOA4oqaOhBwtSimbuNDcH+HypsDdixyRv1SVSTFthEElI+2kzgifZrLKhVgBqIyLy10fITBJq6pMg1WPnalCASqIqMuWjjDwTGdeouk2WPVEgHnCSQUbYyxaRbqYZvilLZawTuq8cYwCo4wIpSUILJsBZG0H106jpdSBg4aC44gc1Api0tYvQWD5LLjadoGrfXf1RgU2cubGAMsAalh5nWAlko5mZFBhRaet7E7AiMZgLUe0VxWTn2DKJSamylZXFphPRbIxOgysvOZjgsQMO7NFjAEus5dTOqYOQrQakzexx4cg7bvQ5pVw99wD7pyOuqCZIHp8HDQ4HEfkoFYQ07fgb7gK1sHdZRDgS6cDPEgFdJTbHQgzxjrwmW63n1G2VAhy8d0IU7ocDyFCd3RFdgEqi9UOphl6RJrrY3kdDN2uUsB8HNsYTJLBZfa8oBxBwTjwmDD1GMTgtUikn6uQsdN1cWRWdympCC6ZCndpGdw7761ozQkxhs5BwyKGI+K9ZIIDB+VhfIN/9rdwu11w7zCcVkN8Wq6K3zVarnrQ8886NUbCVcpHzVmLv5L5zG9zMLCzCJ2Ccaz86gJui+UsTGxrlyHZG2olbbTKYFdfriqrAgXJxqqLCrjMGjuCPR8MkSOahlBWK6DPCEVz4KAB4ayIHFTbRhqIPc7bANeiP4AW7YBOO+jrQwTWxUFsHiXYa5m0BU2PIlWJCJ5KBLio2rzRZdRY6SDRMzKAdH7TgH65qrAa/hg6LZJ0OApMiyFjwMWGxcSSpo0RM7FVyLDrNXSTZ3C5BvfJ40Vo82pg7UKgy85wd+qrCx04aDg4jshBhK2qGsrIBRfTL+rcdXCRIXOltyAyv2HabgAZpFiMukkLkaDpFUGKSCiaJSIfXWirm4tMqBJ2Jk4rPaVeHx585m08Mf5zlGSk05HC7alIYbUqItXRfLY8V2u6ILHO2GWixQ2/BWYwgVCunAieVASX/gMUF8CzUx3ulnPgII5wHJGDGoPtW3D2D0CgCK5eQ4kQ9V45toMmb2I7LRa07RREy5aDMbZGiOPKpnK0omh5BqUlSxu9ips6+1/cdN9TeIAcErKyqNP8hlLNY/EzovTbs8LDBArlmhglZ8Ay7IAqKLZVrCECKlgylLDYDJEIbjeCC/9GKCULrp3GaLoDBw0LxxE5qCHImJUVIzjvV4TScuDqPli9T02XicmzNtoA2k8vGVh5zRddXiW0nGVtTdoERnTM4DTXp4MdnOUbLshYpwRCePvlh3DxxWfg8+/+ILonUk1FYAdi55MqmEAhqroYBAUmaxELEXnDYJfXDMJj6CbWgi5yQnmbEFr7L1xte8HVpZ+i1yPsLXbgwCDKEekJ68BBJQitmAVsWABXh95w57SnlRGfllMIzyDbXDKnlwzJfledIKo8GtHs4kQo5k9HiDOJkReY2AYpp4pSfUAKBZNnXmqXPzUVm/jbQS0y8PWXP+DxJ1/ECYfuS7r9is/exhjqrb5xZEKFYGV2hdGoVJhgk7XGlOMK9PrSgBVzEcrfAvdOo+BKrf83bVfWWwfNF+SIzKR1poiDKqBtXXDuz3CV5sHTe5j+KRM1f6xs1JyybKWdbkvHtLtUbmfnT/OkpAI5OUDLVhRTyKY0B6ZlZJHBJQdDTkm+9WO3z5IOoYAczXd/zsHkmQuVQ+ICriMrE5/+MhVD9jsDP06ahzbduyEtJQVjRlE/+a3VjJhtjAHWZ9pdqUxlhbaOM5vFaqNbjs9GExA9gkZ5bwqCSyZR2gN3f+f6kIPkgatTz37W9I7GrCm/V/t7RKwk+lBIBiRruxozyh48jAzar0g56wm4WnUC/Pwgqw084BXOKg2Lx+yh6D1l0kS360pNxzfTFuCdj78nu+qDm5wKf2iO2b0eF3bq0RW7DOqNXXbshQwXrdSKyYEQXVVBnikjEw+8+DGu+7/H8PU7T+KAXXcCSkrJobqQ607D6MPPxZLla+Tr4O+89Qx++/l37LPbQOw9ZEfqOPVT2mLaamsbZ83ddtWClrd0mXwsGJ5Y5USPKDIJJmpIkj8u6IL/xUsR8qbDd9P3cGW1lWIHDuoTFXwYLz6OqNnD2IomjtD6xSi7ewxcOe3gPfNRWhkVhvttHwPLHmqC5HmjmZhseAwtAvY8lRve7Gzc/+oEXH/zfZoQG0MH9sMjd12L0YO2BwryxNEwyjy0wjnxcrRr1x6fvHwPsG2L0JGZidc++w3nXn4LfprwGp5940O8//4E/P7t69ilRwcgr0A+/+2yTuVpWFlKWI6ICabBBIsnis6IQVKIVWDyukwi5Yj5O6xhMJ+R13RfGgLLZyPw9k1w73oSPOc+GyHhwEF9wfkwXiLRTI7q0LyfESrYDFePXeDypTBF2Tu77bMPBhtmMc5SQNBlJhspGEaEHJdrOYrM2agzTjwSU756C7988Dx+fv9FfPbak3jhkTuw3567YsqMOTji1Mvw49QFtAritz4oIXewDC8/dBNef+gGci65RGGFFIqKcMxew/DdRy9g+MAeePaBa/D0/dejU2YGUMin5Yyp562WkbbRKouTXq8K/HkFKWEHwXwecgI0Tl4+BcgF/ElxjlmIYxUpJXZYBWEIycYneqSWysEVelMQWjSJxq4M7r6jqpZx4KAe4TgiBzVCYNb3CJFRdfceQsuLIqJEGUaJbUbUKtY0zgvN8BgGq0DFJstsNnXgGwk0unRthyFD+2DUzr1o5dMTh47sh3OP2QvfvPckbr/uUmzNy8NlN9yNbWU8zSmQ8S91edG2Y0d4fJQPcqCiAFVAZZktW2BQnx3w/c+z8NVXE7HvyF3Rpn1b5UTkRgjVqDLSsa6MftkFyPG0bIn8lGz8NX8Dvv57EdaUkuPJyiFeN1wZLZDrysSvc1biu6lLSIbLskmX/eKV6Q/nTacrQEQRZdgZikPUBVa5ldAgp1hWhtDymQhltgP6jowYUgcOGhqN2BE5h1J9I7RtHcDvKGvZDq4O24ffpmCzheVgfvkbBt5tsusqEmDofcuRGFuVFZBDsLJ+Muj8CWy+RsXXb/haT0EBXLkbccvlZ+GAvffE7PmL8OE3v8qpN6Sn49M/ZqBdv31xzzPvADlZpIR0eNwo8qbhtkdeQffdDsVBJ12IY86+Aj2GH4YDT7gS05asBbIzlX/1uLBwbS76jz4Rl9z2BP6cuQq77HsyRhx6CsaeciEGjDoGr334A1yduuCD7ydiwJhjMfqIM7H/Cedj4N4n4uWPf4arRUvbOBhEj4ctz0tAyWqaOB9ChHwU7PweH0IblgKblpP3HgJ322527Q4cNDgasSNyDqX6RmjhJAS3LoO7c3+4UvmXvb5tO9qo8q6xdk9l1jIa0bxGiamAAt9y7Vav3HHxqTC+Q85H+RRKCw/J0KrJTau1Ew47UPg++/JH2vJUD6DMz7dhh1DKNzGwZ+FnazKycfFND+POh5/Hjj274aWHb8U7zz2IU447DD/8/hcOO/UKLF6zleqjekgkQM6wML8AEydPw/FnXIrePbvjvpuuxHmnHkt+sBD/ue1BPPzfN3HuFbfItap7r78Spx1/ODZu2YIrb7wPC1ZsVO3l7ol3k4QtEKzbsRlUbrLCYlZUdh6ClbXxUyKUkobQ4inkqAvh6b8X0XgsomQdOGhANGJH5CAhiGmfFDEw8xuycW64dtiVjL25U46NqIZJMrulx1ZuR8x6DK+OxRhT0HGpy4eps5dhxQpaoRBWkkGf/M9S/DprFX6bvRIFsvriu8PIYZSUYPhA9R61uYtXyOKJV2ccMazq09Pw/nd/Yfy7n2Lvkbvhuw9fwNnH7IcTDtwdrz1zB+688QqsWrsBjz5HK6g0WlXpFZ6HnNKiZatw+QWn44u3HsV1Fx+L5x+7Gf+5+Axs3pqLq2+5B/fc8h98/Or9uP6S4/Hak3fi1KMORh45sN8mTpNrNqLLrG6iYR8fe5rZpQ0m2BFLF60gafyCS6cjlJpp+/aQ4bUrbwBU1E8HzQqOI3IQiVi2jInFefJqGGS2hLtrP6CshMjMbLMeVtKupALrErMe4hUjyzI2Bqa5Xdhc7MeBx56H/z77kpS++u4HGH7A8Rh91FnY55hzsWpTHnkIckLsuGilkZqRCpfPi5C/TC08eCXFb9HmJLddVkRpeO+DL4V263UXIzuNePy00uNvK23bhIvPPgYd2rXBJ1/9iPwiPhVJcqSjLBBAv15dcfEZRwJbN1DIp7AFB43eTXT167M9zj6eVmRbNiC0bRtQlIv99lFvup46e5F2RNyoaNj6XREqZGF9JhCYj0/LbV2P0IZFcHXsB3e3gaqMIWzVqC+RsFffwE1p9Ig1nRoJGsgRNeIRa6YIrpiD0MalcG3XB66sNuq0nF4dKAPCG2NJaP/ajIq1t220CHY7rFNSHEcKZKV6aXVxKvbdaw8p3WeP3XDfDf/B7eMuws2Xn4U2mWTcg0EtxSsBPcGprS796h6yzEzRZ8RcyC0qwt9TZyEnOxulfuC3KfPx87wV+GXWUvw2cwnmzFtKjqgdtuVuxZZccijkEFlLKBBCly7bIZMdF9/soB1bu9bZor9Pt05IFUfNd9tR3YEgUlP5LkOggK9l8YNK3AtuhwXWoZOVIprJnle9V7opyG3bs6jSXLh702pIn9YUGNZKUa0GNWk0mhGo1v5MTjSQI2qEI9bQs5Hrj0sbaqckOOtbuP158PAnwQW8D/V+tFTqhJDD5ZorsmpOczCFMZkYWg+Rs9whjLv6AhxwwH5SsseoYbjuurNx22Un49YrT0cbvk1b7kgjfloZlZb5aWHjp1VRKvkgmupBP014dXJO3BXpDNCmmFZMuXl5OPDoMzDqsNOx16GnY8wRZ2PU4ediNKVnzJmH4tIyrNqwmfRye0Lkg8nRedR1KfMnTlDfvu1LYYOv6uA76NhRpfE1Js4KnWpmR2U5XqVXBQbnOcRCNJ3rjKbpvIvauHASxT5apu2paDVCRW1oPogYAfsuqgZqwJo8qGEf44EGckSNEHE8HmOekakKXH9c2lALJWw05/wIpGXA3Z1v29avu7G3yTKoBJnIVcxmMwiGxWK1t4+IzCeBsrwKy9tGzdF365UUAfm5COXnET1fOyECvw08NRV/Tp4n2W4d29NEZ2dAGXlnHMGy3W65+aAFrYhefelxfDD+Ubz3ymP43yuP4H+UlvDyY3jjuQfRo0NbaUOInRm1SWJZ9TC4gbTy0o5IV0aB6RSoDrc+LSg3G9BqUg2ZljfpCH1C1GC6KYuG4bXzU5p0BYvyEFg1G2jTGa5ew3WZRlX7SKNqjiYIW6clafKV7YYYqAFr8qABGu04ogjwbEv8YWfZmkaC0Jr5CK6dC7TuARcZNLl+IgU0VjJcVXUoRrk1CPYynbYPkCR5Y8rC+8clfHzqy1bODSK635OK9z75TCgHHzCaVjLkvKyL/LRlNeS40t0udGnXCiXFRdij/444et/hOG6vQTh2ryE4dowO+1DYfxg6ZqUq38I6pBm84fUN5zntokgYKFZ5Ux9XyDcN6Az9M13JC6TMlo+A5tWqbAlCLDmdTuGXnM6CK3cDOaERcGe1VnQDPX5VwWpafaE+66oItmGRZNXD1LRQz/11HFEEePSb24yLDbst8M/9FSjOhXsHWg3J6SX7GBGnZWBjQIa0MssSo0yMOMcqEnkJZv+o+oNur6zSkJYuKyBkqJehBrLa4N5HX8a3P/+Jrp074biD9wIKafUkolqW/QWl09O9OPjAMSgp8+OVdz4C0rOAUlpRMT+HUj/5Ly+KtxZqX0OrDFrdBFkB66JVDq+NlFpySUq9aru0mZL6o3py+o6LmIlpuh/2dlk0C7a8NS46FoiwLWgwjzcVgSWT5Vlcz8CxuqAWiFIdN9i7YUci6nKQ1Ki2I6pozjiIQrmBamQjp5trtwWh2d+KA3L34rdQ87eH7Ey0qayL5oaGmIgWjMob/aY1yhNQUNN29tzF+OizX/HWt5PxxteT8cJHv+KOJ9/F7oefhVsfehqZaWl46r4bsV0rclQB9jwsr+pwyc0CpKswHxeeehQ6dWiLex9/Hg8++RbWl/pQmtYCBZ4MzF2fi2sfeAF3P/MWXOnk9EiNWvMQWBVbeVHL7aKEPqJcchqOaDan4db9YNclZSqrFGo1ZhsupLxJxkIEu8kwqBZa5YWWzoC7RWe4+uyu6QZ23gZCZf1ykCSofJ7EaxZV2xE1rTnDw5egA7HcQDWykYtqbnDzKoB+VbtadoKrQy/1NgXm4V/7MoRaIOIOOjuYL5pYEW80mMHUw6A8rRzMKa6PJnyLo8+6HKdcdDVOu+QanH/Vrbj9vscx+Z9Z2G3IzvjirSdw2F67APkFJKemujplRgud0jJpV6gsgB5tc/DmM/eiZ7dOuPb2B9B3j0Mw4vCzscuBp6D/6GPw0FOvIC2b38JAIMcTCviV72BdrJaC0kpt068gKuVbwNlJMTiiuviWb4af5XSRQPcnEjZadLGd34yhkHSG0z4fQuuWyP5zdR8EV6vOqsyg3D5JFkR31kHDon7mSXK8fZtbkKzHRTNH8M/3EHjpLLiGHAzvoVcCRdt0CUFmjtl5HPRUsiXDsBONTHVAfIadDXhqCv6Ytxpf/TIFqfyMENPZOcgpMhc6tMjEnkP7Y/teHZHGBrsgnxyF1uHzYMaqXLzz+a/Ya+iOOGD4juQx2CFRYUYqNmzz439f/YYp02Zh1eq16Ni+NXr13gEH7DkMw/v1gIdWT3wL+LrCUlp9/YSeXTvglAOGI1RURM6R6qD/jUUBPPX+j9ipe0ccvzc5QX79EOv3ejFvzWa89fkf2HXwjjh0BH9+Qr1MVYEbqMG6WEZldGxg4zNgFiKziDrDR4n0bPh/eQuBn8bDc9Kj8O53IVH19SwHDhoQzmcgGhJmlGtqB2orFyf4X74MgT/Gw3vcLfD02ZUMdyG1KUZjmMRtNUUmHXN2VVhQCbQM182v9uEP2vEqJ8JoE3gVwqcP+VU+zMtiBszGrwNKTdPvptMP5bJaKnLxw7AZGZQg3fwqBi7zUMx35/GzP2LliZMdG98qzqueInImyvorJVzG77WTMr4upWXEGZH+dF13sXkgWMtajTB5BhNs0KoE9nQ5UEFqFkpfvw7YsBTeG36Eu5N6y4QDBw0N5zMQDQm7zakJaisXBwSLchFc+DuQ3QruLv3IuPJt07ox0i7aWEbYxCoScDrCsBpUaEHDKMeiCawvQE6GbyQoIKfIp90KKORTmvNs/OV9Pjy1iZfbxaLSFtqwg2CZUu1YjFre8KkzuRV8C+nPJX1bgW0U86pJ+qGZ+QHWPNLBTsgO5mFHmE8rJ3FCTDQVUIbbxXIlpE9u8xYGDUrL0cj8WkbKbTz2HwCGRaDppthDK8WtqxDcsAShDoPg5hfUOmjiiJgQjQ6OI3JQMVbMRmjjIng67whktSIjq14YKgbPcjz6AGAjbwyh/Ziwr1aqhI1XDL9RaNIc2MkYuoJI2a+bGAiNgsWuE5HiYVmOjeOSjQkVQPQYZZrX0sUhSlZoKqlgL6d0BDtnouTL5Q2YblPuS0dg8Qy4CrfCsxP98vTQCq9CWQdNAxETq9HBcUQOwoiyfaFZ38EdKINr+2FkU/lUFxVaPJy2MTOishEQ3lgMhk4HEjsfy57a+U3a5NkZcZrjILXNXm7KdLCckY0msNE5KeVcP8ekg2OrLUYnw9ClQPFZZQzWwTHRxFlzrIMdktXl0fJKgQaX2fM2GDFpKwWqQ0huD0KLp8HlS4N7kHoLRYU6HDhIAjRdR2QOUgfVh80Ghvwl8M/9GaGMbLi7DwbK9Gk5Y4Bjgge9goGvUMwUsCFVUUUqKlRikY2gVmKtbqIRgygkLSf6eGPnM2l7G3TaYtMJcTo2Pk5K1tA5toQ0DH80PRY0j9Fp66eLndC2zcAaWs227w1Xd9tLThsS1emWg2aLpuuIzHHtoHZYtwSuNfPhatMNrpyOtCigFRE7oQiDYstIkgc9auCtbIwyhpBi0GMiypqZOs1pwmjISkGXUTIsTTS7SEzxqLqEiWnRgVAteYZh5NguZHQbcNrOG60rWtYG/iT4yjkI5m2Gt88YWhWl64KGRUW7yIEDhnNqzkFMBOb9ApRshrvHEJolXrIkxuiyRTFWpRrWpSobasqNXiuvYzuiaZInATk9VhmIkf8tNkpEi9h1S1l0ZQZMpyCW1fDYebXiCP2m3E7kdASTRjQvxULijb0eQsTqVOtz+RBcPAkhdypc/fdRRUmAqJY7cBABxxE5iIng7O/lIrer967klfTzLtrW6U3trQvLiaxNgTg6HUwyGrFoMaH1Cr9NWbn22vlsEHI00Z6ntLyih0KETsoYNnESNhnuny0bKWgviGBSEFIMnghW1udCqKQAoeUz4OYHkLePesmpAwdJCscROSiH4OaVcC37B67WXeDq0J0cEV8fMrBZvwhDSBnLtiqjGAljPCnmpARNs4MNeLRojaH1si57FRHVcZmNj8HZWG2KgC6XyOi3yVhtJ5pF5psfqEDKNNHiiwbzRRfGyrN+W72c96UiuOZfBLeshqvncLhatFN0Bw0LZxdUCccROSiH0IJJCG1dIc8OuVIywgdShcaTQYXWAUeJcqfLKhWuBmojz+1QkYQIFbpMYGtrOSdgYOMRGMV28N11GlxsqbLplCTJVeTwrHEzMhwbmo4lIrpNrejzpiC4cBJc/iA8Aw/UBZrJqCBU6WtrgDiqSm7E6Gi1+27fTw5iotE5ohpN/GZzlMQLasCCM79ByOOS27YjHmK1xpMT9sGNzhOispE8FFsHZznGMCKKtJEXmiqwiquyrFyX3RhEs5u84Ympzq6AEYuJeTQ9pg6CnR6tksHl0h/DGEORkYuQpwzf2bhsOtw525V/yamNN1a1tUU8dSU1YnS02fS9HpBEjijGARcDNdr5zkypIVwIFW5DiN+mkNUWri47KUcUc3VDwXIAOh8L9hWGJG28HLGKina9TTRCRqetYquOChRxOytzVqZ/EtHGUlwRKtFlRyw2pkmgSqqpphyMnF3e60NowzKENlHovDNcbXvoghiosn/xQm076KC5of4cUZVzst6OjiRE8hywoUUTgU0r4e5Cxow/pMZfO60IFZ7GYpgy6pskaWO/h9d0mXXYyOFMBLFcVvLWsFFGym1MnLQCTfNyDtEOTZBIBOifg6Hp2Ogwn3iwChk6bfpYrl8aTLPKOI5iMnSBrZz7aiNHggp9aQgumYJQWTHc/Wp4t5w1jvFGuYY2eiRsqJo56s8RNb05GUckz+AE5/1GvqcI7t7DaBHBTshuAStBTINKiPjlbxEjIgtSbIgmVjLlFjScN+o4Y5UTkdvCeRPKregYdhorspQRqExWUZzWZVY/ODayJmbotLDbeZhgIIUqaWDvGBfZnbVpB0PKVLIcmE77KrhoCpCWDXf/vRW9uohqkgMH9Y0kOjXnoKERCvrJEf1IK6FWcHcbCBdfc5Bf/2zpyFqxgRWHY0tbNCabmDdGhtMMk+bYFgydg1XGac7qNMXyoTmzsjEhLGhFkbDxWOWGZp/6YsmJbHhtMRepjY51Wpwb88WAOA+jh8GxrT7OWqKaz9SpSZE0TRdeWyyBNnxabvNaBNYvBDrSSrZTH2ZykADI8DuIO+xHo4NqwximMMpTGiFWzEFwzRwyZjvAldmWHJObbCo/zErThI0rd1KvDEL8lmn59e7RNA48nZiXaYoeCvInsrkspGQkTWXy+jYus/GzLpmSHJiPIuHjdug8y0igtMVrD8xHQWIS5k96S/ttukUXB66XYyIzmJ/SvBAMUltCoRQSTSFVNAYu4uXPQ8AEQ6OY2y08hqaD9MeUUz3sSLktPK78AT3dDqmW80SPbB8HIkn7dJ+ZR3hNmtl88P/7N1BcAE+fPeTuubrADIcDB3FBNSZUEn+PiJtFB1wSoFotiVNz66XX0ZXofGj5TJTcNQquFllwe/iLpGztVBmziy/itCXLXyRlGisgGD30x5/F1lSC+hybvJLT+pXPuonOOinFW/V5beKiiljCyLukUvVCT6GSjiDzq1IKXMKyDCUlmrjBUgF/NI/FOK/qD5EG0SvyQQQ5TY7SRz6Gv0tUVuaX/vIH75hPaiN5aZcUiJjEqqVMoKpYv7TftIRLmIn7RRnZMJF5dH85LxvFJxl2WFpGjaWi8xhZ9TObbGhbWgAEPPBd+yWtZndmZZWAdbGCuiAeOhw0R9TPh/Gc+dmoEfj0YQT/fpt2oTbsvIpxs7kTc0oQEy772NrNthnETonp/MlsIQsT0dzaXLPBp4T4AFZNmyAbeylVMLaaIX5DHAERKc122tShlatIeDip+HjVJGRNZYgu6g9TlCPQtdJGHJsvFWuLN8Ef8KNjRiuk8MolEKC2s/EnbpYhHco9kxB3QqkmdaJJ9EnN7BxMGed1mleF/Md65KuuUsC6OFIywkoJ3VIZM9FFWVlUcSyy1C6hkz6vF+79LoF7z5NZpP7ATZQGO0h2JMuucr7QWgc0i+NNWTighH5d8xdOZYUiBSpwGUWcY4gx5PNKNDKKpvl4pMJMMm6yaqJ/dnCWgZWtnZXlVM7iEWEbj45Viqg2GaHZ+IWXizlmY01/YuilUEqpzEYnR3TgPvvhnz//xPd//IYBgwcjxF97ZSUC4RRdhiS6CaqdpE0XqfYzPytmDgVZzRC0JluKghbmnLSRM5JXbWRYVQudV01ClrarU3IiLTQHDmqG+pk7jccRydHmHEwO6h8jRu6Jv/74HVOn/YNdBg/SVAeNGc3GNTeSjjaeT4U7Pig5UeFPlijE4mNadeUbENYBkYg5GN3/RI9HLfXHt1kNv9Or2pUN38I4oRHbzeR0RI4nSk5Ud7fE4mNa3Hdr/E2IdUrQqI5nFdH9r2w8uN7a1m3kajne8d1Ncd/pcUfyt7CpgkdehSR1RA6aLshK6uskdQdP4ihdnK2DemOUrDPDJq4p6tpFdXxWgCqUx5Sra4McJA0StCvrd4ZETtKm44ia83FWm77Xebxqq4AmYFyv/0Xp4mwc1Nd5eOLZxXKojfKENqh+0ZyPdUaCdmVDzpAGc0Rxn0tN6DirMajvNR7POo+XXUETsgxWV2rapyY0BsmO5nysN1E0mCNKhrkUN9ORBDaoYcez8VoG3nX23Re+Y131KVwWeyeHqY1wDGJ3yYEDjfqbIHV2RI1qLkc1Nh6mQ1Q2MhvUXOxP9frJz+jYoIXM2UPrpoUKUPmuV8LqBojqtaZe0cjmrYP6Rv1NkDo7okY1lxPQ2MZ4LDcX+1OdfpoHRaNhHjwNF9dm1JSMqqM28g4cNA802Km55ock/EVcXSRr02O1K05tVa/QYSSy83HSnaz7x4GDaiJujsg5FqpC5b+Ik3r8kvXHfKx21bGt4TvLjaJEdt6uW1dcm4mQyCY6SG7Ey3A0sAGKmyNSx0ID96YRo/a2pCZj3hD7p7HOifput54BjlOpO5qTGYrXfGngeRfnU3POUVT/qMmYN8T+aWxzQlmx8MqoOVm1JgLHDDU6ONeIHDiIhSZkzBqvK3V+BMQXyTuejiNy4KCJo/H6VGdpE18k73g6jshBE0QcfvlZ5+YcY+igkSBJFjy1aUazckTJuzB1EF84zsNBM0SSTHt7M6prcxuxI6pGF6NYksc8OS6xXhCHYXb2lAMHtUd1bW4jdkTV6GLyeJ4oJG3DmhZqMcxhx6OELRWOR3LgIGFwrhEZVNvQOBaptmjokYtV/9x58zB37jwsWrgIy5evQMDvF/qKFSuwbOkyoi/EP/9MR35BgdDrCmf2OHBQHo4jMqj2r+emv5pJlLFs6JGLVf+Ezydg0KCBGDZ8GIYO2QX/TPuH+Fw49ZRTsMvgwRg4cCAuuOB8BINBLVE3NP3Z48BBzeE4Igfl0JyM5SWXXIwhu+yCrVu3YtOmzfAHAnC7XMjLz8OW3K0oKi7GLbfcghYtsp3VjAMHCYLjiOqIejNOiarIrrcZWtr09HTc/8D9SElJIQ9MayEK/Cki89LTE088CYceeqikndWMAweJgeOI6oh6M06JqsiuN451NCafNmbMXjj11FMRCpnTby45Fde6dWvcdtttmubAgYNEwXFETQlJZP0b2+rhpptvxnYdOyIQDMClH2a94oorsOOOfSTtwIGDxMFxRE0Jjc36JxF69eyJcddeI+kArYz69euHyy6/TPIOmi+a4dnqCNRX/x1H5MCBxgXnX4Bhw4dL+uZbbkGrlq0kXR/gA752B33TNJXJ0qvm/tuuvvrvOCIHDjQyMtOxz9n7YtcT9sBxxx4rtPoyiHzA1+6gb5qmsrk7gKaBkPrkfjUOIscRJQSN+FdqI2p6PJs6ce0knP31BZjVdT46n9sTj858AuuK1ldpEBvlnm7E07NSNNV+JQT1MVjqLtTq/KpwHFGtUdmObIy/53R/qtl05m7o4742oxzd5vyyPDw5/WncNvEucjyb0TmtE9L8Pnyz5Edc9tM4TFj6FYL0VxHivafrZUx1oxt6/9UcVbQ4SQ67xjGuDTBYlQxMfBxRQ418g+7xJJn1cUPN+sPcDTcCvOPrvvMnrp+Ey8nZfL74S6S60rBnp11wZv/DcPpOh6Jf6x1QUFqAJ6Y9iRt/vxVLty3TUrWDam1VbQ7VcEzrNgZ13X913wM1RcPNuJog3Mr6H6GkRiW7z9WpZ78KR2vWlN/RqlVLnXPQeMG7uHEcxPWB/LICvDJ7PL5Y/g3cITc6ZXbAQT1HonN2RxT6i+FxuZHi8mL6hvn4YdVE5BblI92bgmN7H4nj+hyLFHeK1uTAgYOaYsuWrRgwdLTOKTiOKF5wbH2jwJQN0/DM9OewYtsqZPoyMaLzIIzsPBjBUAhlQb/sQnNAZHrSsI2c1tdL/8L8TUtQGihGr5a9cMHOZ2NQu4GaK5GoYlLFKI4lwdeL9YsiHDiwoYr5lSA4jshBxWiYOVkL1K6heaXb8Nq8t/Dl0q8RDADdWmyHg3uMRIfs9iiiVRBcpJff7WNDiP68tDpK9aZi9qbF+GHZ39hYvAUetxuH9BiL0/qehCxfluZ2UG00wFzjfckvs3XQ8Gh8jqjRGEcH9Qk1Lao/OaasnYKnZj6PNQVrkOZNw4jtBmFM52Hkd0IoDJQqA8X/+o0KxmRJDXo5keZNQbG/FD8tn4TpGxegKFCIrlnb0eroPAxrP1TkolH9FiYaNWlJVbxVlFvFOhHPqh00CTgrIgfNCgX+Aoyf8yq+WvodAkGgS1YHHNRrFDpnt0NhWTHZvQqnvpzKEh+kLSPzuml1lOFJw5LcVaTzD6wr3AAiYf+u++DMfqchJyVHeJsa1CjZVhREkBfDSpoHSdOrgBnt6nGXB8vHlK2wwEFFaMghi58jqlMvknvWOHO6fpGo8Z6+cQaemv4sluctR7onG7t1GoA9Ow+RukqDZbSllFTOGzuYQ9HsTkhBlaV6UuRBvd9XTsdfa6eLw+uY0QHn9jsTo7qMVKy1RqJGJDaqUxv31byNvGpUrtHvD6CgIF9eKtuqVf29ucJB8sBZETlogog8+19YWoA3/n0bny75Qoxdl8yOsgraLqsdistKaMYbt8IS0SkF1mZfLalyorKskFV9WZ50rCrYgK+X/4nluaupLIA9O43A+QPORpuMtszYZPDEE0/gk08+gdfrFcekEILPl4Ldd98d++23P3bbbVe43ZU/EfLbb7/hpJNOwjnnnIPbb79dU5Mc3F0zwRzUGfXjiJJ0pzlzKfFI5BhXpNtOn7lpNp6a+jSW8CooJR27bzeQHAOtgtwulAbK9K9640zCUFQFK63PzdnLGFqFIEgJn8sHr9uDyWvn4NcVU5FXlouWqS3lVN3+3feV03mRrrLm4OpqLx0fXHTRxXj22WeQmZVJzsYjzshfVobi4mIp93g8OObYY/HY449juw4dhBYLJ514Ir7+5htMnToVPXr00FQHDY44TrKqVMVyRPF/s0JDHzEVIEmb1aSQyDFm3XaHYHJMLyorwguzXsENf9yCFYWr0anFdjil76HYp+tu8NMqJeJUnL4zzrQ1rFc5C+V6OEtUEaGNYRZwRhHc9Mf6SwKl2HW7/jh75yPQt01v5NGq7JFpT+C2v+7AqvyVxB2hoMaoVDpyUKJQaWGN4CZnznj3nXcwd+4czJo5EzNmzMAff/6Bl156GX377oT33n0XJxx3PPLy84U3GoWFhbKievSxR2rphOLXHwdRqNsUjUBtVDmn5hzECTyN7FMwOp8YzNwwE0/NeA5Lc1cgLSUVQzsMwN6dh5HldKGMVkHSBn0dyKxmdE5lKkE5DlLAd9ExLexcFAf7La/bi1SvD9PWzsWPKydha8k2ZKdk4KQdT8DhPQ+V8saKSy65FE8//RQmTZqIYcPUG8rtWL9hPQ495DApf+ihBzFu3NVC59Ojco2J/tye8O9eHsVQMAT6FyfHn2fnoQyGgrSCdauxJ7lly5ahtKQE3clxpaamKmELak8EAgEsXrJE+Hr06I7MzCyR5br5VGH1r285qA/Uz4rIQTNF9MGe2IO/yF+El2a/jBv+vBXL81ahU1Z7nEyroAO77w4/1CqI7Q9f1zFgZxFGRCYmrNWRgU2BSpEx1Sxs7Hh1xHfjDerQF2cPOEpeE1RMzvCFWeNx4x+3YsmWJYq5AlTdooZDLFvO7TVtbt+uPe65+/8k/fZbb8vqhzFx4t8YPHgw3njzDckbsGO6/PLLMXToEFphzRWaP+DHRRddhEMOPgT/LvgXxxx3HHbaaSf07bcTRuyxBz7//DPhU/Xy1oV58+Zh7Nix6Ec8AwYMwC5Dhsh1qKuuGoe99toby5cvFxkHyY1m7YiS+cBPetTL4MWuZPam2Rj367V479+P4EEKdt9uMM7a+Si5LTtfP5zKdpO30c5EmS8VLEg1UXXFMLxKp4FKsZ9jZ8Q55fRC4iTTPCk4vu8BOKznGLRMycHMjdTm326gNn8Af9AvsgZGZ3SVhl4xquaIF3y00pPYp2KGaq9yCYyRe+6Jnj17yim7NevWCS0QCGHWrFnYsGGD5O1YuGABZkyfjiLttDxuD5YuWYoff/oRxxxzHKZPm4bTTzsNB409CP9Q+rTTTsfs2bOlXnZk69avx9HHHI3vvvsOxx93PP773//KBw1PPe1UfPzJx5gxc4aslhwkP5q1I4o+8JMFiTcvcaihXgYvspJifwlemjMe19PqYlnuSnlH3Il9D8TYnnvIKZ1SeTiVekfdC0uW76s4DrvqyGoURKzycVKOjiG1Sr3K8bnkK6+FZSUY2G5HXLDzcRjavj/RAnh57qu4hhzSgq2LRJIRq3pGRXSDaCebCGzduhXvvfcu5s+fJ/nPP/8cb731Fl555RV8/9331ILwScq09HT0oxVMmd+P5cvUS2J5vyiUb6vb45HYnDrjiG96KC4qwg47bI/Zc+bgueefx4QJE3DBBRdKW377/TfhZbz4wouYO2cubrrpJrz55pu49NJL8fFHH+OsM88ih7YEKb4U0ecg+eGcmktCJN68JL6GeMDuBnhFcRWvguZ/QK33YNftBuLMAUeiW04nFNAKRH2qgfqlu6ZkK3AkTI4uMsZQthXBmF3DpZVwZAlqGuVZZVGgiAwucMQOe+O4HQ9E+7T2mL95Aa759Qa8Ne8dcZ52hNcXVSOqFdVHDQRWrVqN0884E19+9RXV58LNN9+CU045BWeffTYefuRhzaXA7Wmv75jbsGG9xH5ySgrlK/WX6TLTEYr5nX8c33zzTUhLTbXOhh511JESL1m8WGJe6bz//v+QTs7vnHPPEZrBJZdcgs6duyAUDFR5O3mTQo0nQvKgfvdSIx4oB/UPtk/8HrgXZ7+Cm/64BYtzl2E7WgWdvONYjO0xkqZTSG7LDlsygpljQrLRq4KWs09RSUepVuWai8pUsV1KIbxOcMtt3vn+QmzfsqvcWTeswwCRGD/3TVxNq6N5W/5VrISK9FUGWxOrhxoIdO3aFT/9yKfKjqZWhWQl9Mcff+LHH3/CAw88oLnCKCkpkVhuPiAE+W4Egs7GhukuxXyDQcuclui9/Q6Kpq/xGX2FtFpibKbV0cqVKzFw4CB07dJNaAZt27ZFnz69lROs2VA2btR4IsQZdRjr+nVEDT1QDpIWsebw7E1zyVBfh3fnf0hzx4vRnYfjnAFHoWuL7WQVpFYPJkSBSbYbFewwq47YpWHIdLWYOGECg0opGVFsQzhLtdHPenZMxQF+oNaFQ7cfjeN6H4CO6W2xaMsSXP/7jXhz/lsoM7eZq5qTAi1aZMsDq9tt11nyQ4YMwYgRu2OvvcbIzQH2bpeWlWHG9BnS+m7duwvNnHaLGh4B3x0nseWlwu7bnDo1eZMwp9qKCwvlGabWrVvB6y1/+o1fTMvgsW9Q1GP1DdxT286qOZJy3drgA+ogLqjJfrTP4WJaBb00azwZ6FuwaOtydMneDmf0Pxz7d99NTsHxczvVuiXX3gBiD2eVLG+rbKNVTXR9LBlNs0O5O8NhrueEQkFyoiXYvlUXnDvwGAzrOICIHrw+911c/esNmL1Z3UHGqLJt8UYlFfr97CTtp9oU7CPA14WWLV+GHFrRdO3SVWhBfbNA2MWEYXRFOCudNiupkPFIRl63kVdN2dnZWLduPcrIAUaD78CLbF38Ua39k4gmVFBxYntrQ7U6XjPUzREloEGMehtQBwlFbfbj3M3zcNVv1+Kdfz+gyenBqE5Dcc7OR6JjRhvklRXIaa6KnFClzonmqipVJlFNXe0eOBNzLlNpBXNc6YpVSCWqUKKw6jAv3+JQTM6Ubewh24/CsX32R1taHS3Yuhg3/nYLxs95nZxtiVFTf6ikQuNIKhvjhx5+CHl5eRh70FhaQW0ntPSMNIlXr14tsR3bcnMlDq9awqNlbgOx2qR5DG9mVhZ22H4HTJs2FXPmzhGawapVqzBzxkx4fN5K+1RXJFB15WiwijUSUH/dHFFDD4iDJoPiQDHGz3sN1/12I5ZuoVVQVkecutPB2L/HbvAH1dsLXPK6HGOqyiOWQSvPrfJq6qotfw4iNiqis4xOlAM5Ny1mpCNZLRMrd5TllxahZ04XnD/gKAxt15+EPHhn3v8wjlZHc2yro8pQcSvjj9LSUlqBBFBUXIzikmLk5+dj6dJl8vzPc88+hxYtcnDttddqbqB167Zyw8DXX31lvQ6I8dGHH2LqlClqbLRzYycnjs52Oq2iXcMPwZ5xxumyz++68y5s27ZN6FzH7Xfcjk2bN8tbHJIR9bm/GguS8tScg6YPc52GMX/zv7iWHNDb8/9Hhsgn74c7e8AR6JTd3roWpH6JqxWMMlt2EIXLrQI7l50eiQiDUJHFE1lVFsHBxrIKvVxcXmt5SkmwlI5EFw7fYTSO77s/OrfYDotzl+KG327CSzNfkVOVjPKSCuWbURFn7WH21+mnn47hw4dh5B57YA8KgwYNkodJn332WbRp3Rqvvf46dtllF+Fl9O27Iw444ADMmj1bbnh45JFHxGnxw6wdadXEWgN+dfqOnUrA7xca/+gQ6M5ZPbJ17dTTTpOHXz/44APsPHAgjjjiCPTp3RtTJk+R61qBMn9YTxKhgmnTrFF/e8k2gRoUydKOZgoefnEs9Menn16f9yau+f0G/LtlMTpnbIdTaBW0b48RYNNUKuf5Y8HsRFts+xXNTklyfMRXctSbInXaKcxoNAnFUhS5ldhWpUrS1tTNG1t5RTD+k58xyien27NlF5xJTniP7QYT3ScPwF75y9WYsUHdBFA9VJ+zukhPz0BOTg42bdqE5cuX0SpoKZYuXorc3Fwx+rfddhsmTpqEIw4/TEsocEueIye179774MsvvsK4cePw3rvv4YEHH8Q+++5DOlvQykWZoQCtfNMzMtC+fXvJK6hBTElJkVu1+VklAe1vfuXPu++9i/vvvQ/pKamYPmMG9iOnN+GLCcjKypKVWFpqiuJ3UG1UY9rGHc675hw0CBZuXYQnZzyDOZvmId2bgV077IwxXdSbskvIAckCqBLwpBUW3pgZbNIsbF+xVDjDI8UZIq6SFiJoIhAtFYWKijWdI/3Uk8UmCzJTTu3P8KVh6dZV+Hrpn1hTsE5uXz5i+0Nxyo4nUVmGyNQXeKVSVFSEstJSap5qpGxpw8OclZkZ8caFWODbumfMmIlNGzdg+K67ok2bNsjLy5ebCvimA6+H3+gN5OflSX3ZLbJlHAz4hgQ+DcjOJ4OcFYP5DE9xcZHc4MBl7CwHDRxETi0dc+bMqbJtDmLBTMj4w/kekYMGBz/A+b8FH1D4SN7D1jGzHQ7tsQd6tOiM/ACfhot9CERMUsoYG+WmX9MpvlR4KF/C1y/8AVrm86qEmRRv7WBaYeIoROg2iRh8jApUKChF5TW4kOLxIhQM4vdV0/H3mpko9OejR043XDTwfAxqO0jzJQkq7WMVqKEsOyze///+Ox+vvfo6zr/gfHneiZ1Sbu42XHX1OLz84ou0+roKDz0U+dCtg4ZHcjuiakzGusx1Bw2Pf7f8i2dmPY/ZG+cjzc2roH4Y0324XHhWbxiI3rucp70uO15NU/VbXGVd5IRKcosx9adZ2LR+E/Y9eBRadG+BkuISWVmJKEXm8o85JVgdaBGLm/MVS6pSLjdy0YjWx7DrtMtF15PhTcOa/A34cvHvWFG4Fl4yuGO7HYAzdjoVmSmZJFv9fjUlLFu+HDsPGCA3TewxYg/ktMzBpImTsWbNauy555746KOP5OFWB8mFBDsi+2GVAMQ6kh00CpQGSvAer4Lmv49S+oXfIaOdvB+uZ05nFAZLaN+quaMMqgIbVmudIMVmAjA7c4WQkpGGf779B/859WZ06tpJTh298NmjyOqcjWAZ3+ht9Bn9evoo8fLQ9BoZ9op0RcGw2LVa7THguokgtCi9PrdPSL+v+gd/rZmB/NJ8dM/uhPMHnovhHSI/y1BObxSqKm8MUEMTwpTJk/Hiiy/jt19/xba8bfKm7gP33x/nnnueXNMyqycHyQPn1JyDeseCrQvlWtDcDf8i3ZeOYbwK6rarXPPgmxH4jdVen1cuLMs1CLIc/Of1eIVeVuZHkO+q0taEJyvz8HvIUlPSsW71OmS6MzHtl9m46rzr8MY3z6Pn0G4oKaEVljg4hbBzYVoMy2SKdGQ4whp0E0xhBUzRZJNmxBaJlWI+45hJgv65z5zIpNXR+sKN+GbZ31iydQWt/ID9u+6LM/qegpZpze1YDY8oX4Pi98+lpaXJXBKEi5sHGkl/HUcUV1Rzrze3g0GDX1fzwb8f4d1/30dxsBQdMtvK++F65nRVtyN7XPB4PeJsls1cgXVL1mLwqJ2BLPVUfe6yPKxauAI9+/dEZvtMeZaIP0oXpLHMysrET+/8hom/TsMNj1yJ3Nw8HNz/eBx9ymG4+pFLsK04j29Do1bwwOvpTUlJ0cbsDmvXkIdRF741MRpcYDm1MJP9tJ9AlBGIxmSTNWC3wvWkpqYg1ZdC8kqvcjqKQ7ZE4+/58HNGbq8L6WmZ4TKS8bk98LlSMXnNTHy76A9sK9qG9hmtcd7OZ2PkdnsIXxixWhI/JFa7g2RDPPa344gSDOegVFi8dTGtgp7D7E1zkOpJw1BaBe3ddTi8Lg85pTJ4PG4UbinCxhWbkZPVEs8/PB4TPvwK9z91O3oP2R49d+6Ol+56A0/e/zzufPIGjD19H+TlFYg/4Kfli1YX4/QDLsT6dRsxZLfBuOfR23DlBdfj4BP2x9GXHI7i4kK4yWOF94ea4mzE2XEInQsUWRDmrQTMRA6UnSd/DZQdiKxYDIzOKN0GTPKleDH3rwWY+tM0Ggd9azE5Hln9UKP4pZ/pmWk4/LyxgJcceq4fX7zxrWIj5xoIBKUf/O2e7PRM9BzVHdN9i7Fw/WKqN0jjPBrn9DsbrdNaiUziUa2Rc+DAguOIHCQUvAr6cIFaBRX6S+SlnmN77IlerbqgMFAixpZ/7WdnZuPjZz7DPTc+qiXDGLb7Lnjr1xfx31ufw3/vfR53PXUTDjxtb+SzI3KTH/B7cM1Jt2PBvEU454rT8RQ5q5ycVrjxnv9gyAEDUBwiByHXkOxQxlJfWqKkNp565rNTombJQ3UWj4bSxE6NiJQpKwlg1Zw1GDyiP0rcpbRyKVLCdicnMgr2POvIysjE2499gMfueFZT7VCVt23fGu9PHg93hhubF+bihL3PQklR5OciDB548U6MPWEffPvv7/h19VRabRaiTXprnNn3VOzbfV/SaG9NLRHdqSaEJty1+CHOg9TsHJEzyRIL+/guyl2MZ2Y8j5kb5yDdtgrityAXBckJyXksF9z0qz0lLR3rFqzH9L/mIMXnw4R3vsafv0zEyecfi+GjB2PEocOxauFabFy6GZ126ojstllynUje1uwP4b2nP0GbTm1w+qUnYuLXU3HvTQ/jjMtOxugjd5dTWmx8g/q8GbePT/W53CH1ITZqND84Kc6K/oO0cfNpQvJystrgMkqznHTQgHSxfOGmUhw77BT0G9gXx597FPY4aARSWhC9MB9lZaSNHZJUHXZ8dr/Hr53ZsjoXaxat1W+NVnwptDoqWFdAK7vr0LlHF7z583Mo8RahYFUpjht5Kvr27Ytr7r0C+SV5lm5+c0DnHTsjp10W0lw+rMnfhK+X/I4V+Wuo/wHs2nEIzu9/Ljpld6J6GgH0ODlo2nBWRM0aiTnKy4Kl+Gjhx3h7wQcoKi1B+/Q2OLDHCPRu3Y1WQermA65bjLDPI7cbb1mzjRySG227tkZmRhpuPfc+vPXS//DSp49j8L4DsWXrZqT7MpGemoHC0gKUkF52LqzDk+JB+1btsHVDHrauz0Nqug/tO7aG31uGzVu2iCNgsGPxhjzy4KgnjdMp2LyaysmXtdwuB0VlhfIC1RZpLbGN9JQUliAzJw0prXzILyyAO+RWbSd14kgkwWfLPPj8pa/x9gsfYsXyVejcrTNOPfc47H/8GOR0bkHtLaJVUxnJUEWWbBjSHi+1h9+DRvq5OETOuUVWC/zv0U9xz/UP4ZJrz8HpN56IvOI8FK7x47gRp2DEHiPwxBcPYXP+eukbezvWzTdzsAPlXvvIGXHZpLWz8NuqaSgoK0CmJwOn9z8Zh/Q8SMbcQdXgfcLj6SAxiOWInJnZbFDbQyvKktqwKHcRrv/tFrwy+w1aSQDDOvTHWTsfKa+pyS8rEkPOtbKG1LQU+Lf4cddFD+PIXU/Cvn0Pw4l7no+/vp4Ct/6eTHFpKQoKi5CRloVv3vsRR+5yMv6mFQ8/Lc+6+HUtxWuKcP1pd2DsTkfh4EFHYX/Sc9q+pOfTSWhJxjxEpt6X4sOCqUtw8ujz8fnLX2P1rA04b+yVOGTQ8Thq11Nw5zn3wVviQ3pZJh688kkcMfREHDToGJwy5nz8+r+/yTmxHnXNJnyaj3pBbfC7/TjmisPxzh8v4olX70PHjm1x/62P4ajdT8ejVz2LDXM3IiczB+npqdbQKXejICf5/EGUFpeilByWv6SUQgClW8rw3qsfStsPOHpvFJQUkePwWHsthACt5ErlYd0gOZ6SohIUFZdImtvIfHxqlL95tDt/vbb/EejdsgdKQ6V4euYLuO2vO7Eyb6VSlghUPE2qRl1kE4DaHikOag9Pdqt2t+t0OVx8wTl0QKnXuDc0eK46E6ShEDny/FqWDxZ+iIf/eQJrCzagXWZbHNprNPboNIjMZRD+EJ9GU7ws6aGVUDAvhEuOvhq/ff8nBu+2M4446SDkb83HW8+9J691Wb9mIw457gB07NURbrcH03+dia8++A5jDtgDOwzsQTrJ+G4sxaXHXos/f5qIPceMwFGnH4Yd+u6Av36ZjI/emoAB/fqh+4CuCLhDWDV/Pd5+7n8oLCjGe698iJycLIwYMxxbN27F5L+mo2xbEF9+8C1++u4X7H3IaHTr0QWz/5mH7yf8jNF7j0TrLjlqpcEdUBuJeZFUWkKrEI8fPQZ0x1GnHIzdR+9Gerdhwvtf43/jP8GcSQvRjlZt23Vvh4DLT5JKXr3l2+REnZxi41uOp/88C689/Q72O2RvHHP+kSgs5psz3NTOAN59+X15/xq/YHTZv8vg9nvRunUOvLTSKysrJUXKkqvTgi6UkkPKSEnDoPY7ItuXhTX5G7Fk23L8uPxnuVuvd872sjpSrVGyqkV1QF3E61i1g8YFfkP608+Pp1R4xzeaFVGjmavmuG4yiBx5/lV901+34sU54+kXOjCoXV+c1e8IbN+ST8UVyy3HLKHMrToVlZWWiU9e+hxzZ/6LY04/HC98/hjOue00PPXxAzj/qrMxc6r63IFZQSkLqacm0QJkaDNTM/DcPePlJoVrbrsMj35wD46/6gj859EL8NQ7j8izI/+953mECnlSu+DTL9Kc9vd0XHbdeXjx2ydx0/PX4Jn3n5D3mL3+0tvYtGEzPpv0Hm566mo89vY9uOA/Z6CstAx//zyFDHYaNUOvZcw+pVhWH9zIoItWb4XYXJKLHUb0xINv3YpvZ3yEU889Eb9++xsuPv4/WDp9KVJSaWVkhtDIGpA+riHNnYqPXp8gpMNPPhhFwXwZP37Wiv98vlT89fskHD7iOJx32BW0ojwZ5x10Jeb+uoDGNksUMR//S5rkyoIB+cz6oA470ir1KPRv00fe8v309Bdw4x+3Y1necsUuW3uj4gQeM/baDhxUCjX/nFNz8UYCjulkwYSlX+A/v12D6etnom1qaxzdax8c2XtvuDxu+V4Qd54NrRhwbYQ4X1YQwDef/SS3bZ952YnYWpYr13PWbluHI887CP0G7qh49YTkX+lufUqMKR6XB/nr8vDD17+iW88uOPXSY5EfypXVwLaiXAzdpz9G08rp37kLsXT2MnJCXkt+15FDcfDp+2Ejrdw2b9uEdl1ao1fvnlLG12K8rYFt+VuwuWgzdtt/V6GvWkxGOkjuzDhG6RND5znFCQq8msnwpmPp3JV484V38e0XP1I/Pdhlt4FovV1r+P3kiq2+ELRtZhIn+cHdtYs34MevfkGf/r0xdMwglBTzt5cUX8BViv0P3wv/ufVyXHvPOFx39zgcfOxYzJ3xLy494VosmLgQGWnmjdQUdCWy0qE0P7OV4U3FcTvuj6P77If2GW3xz8aZuOrX6zBh+Re0n/inQgLA7TCdcOCgCkTdrMATJ5x1blaIPyxb0cjwzrz38PLc8cj0ZaNPqx44oPsIpJOB4+eCuEN8dkj1LXIO8Z1u3rIUHDHkJKRnpODdX15BSSoZWrJ/fBqvZWYO7rvoYXzw9gT89937MGS/wXLa6IOnP8NDN/8X//fMzTjknAMx56d5OOWA87DzLv1x2c0XoaC4kGoJkqEPoAWtCt596X38+M2v+O/bD2HEkcMw7auZOO+oy3D0SYfhphevwtatW6kxLmR6MnHZcddjxt+z8NmM9+Cj6R3iFzd4PVg7Zz1O2utsHHnCwbj5uWuxtWCr9Eb1SRJUZwgecnRZZPwDhQFM/20u1f0R1f2LvOV5/yP2xvFnHIl+I/ogv7RQvrUj9tjseBkalfFT+1tl5+DN+/6Hx+55BlfdcRFO+s8xyM3LF4fMzopvmuDVoCuF304tLh6prjR8/PznuP3qezFir13xxPv3Y1tprqzWYkGtl2jl5UlFGTnG39dMwfRN81GUEkSPVZ1Q+N02uNPUCowhNzVQ0tQXks92U0yR6QZ3it8RKATO8h2Nkqa9Ij9CdAG1iXXIaUOWVFVYxSYR/v6Qqkc2LCNVUCzEsJhRIymRoRLuPxdQOqIu3a9Y4HYxv/rhJFJah4pd9COIf0C1atkSvfv0xsg9R6JH9x7M5aCWUDcrjNE5hRo7Ir1/HDQznP/dxVhbuAE7te6JE/uOleeCiv2llvHiWcGOgWNF4aOYVjZuD0q3luKo4aeg907b4/nPHkd+IF/O2fFdazlZLfDK3a/j6QdfwZPv3I9d9hsIj9srjujBm58gR3QTDj5nLP75YSbOHnux0mubo9G4i/nP2B+Tv/kHFxx5JY455Qjc9Nx/sJkcEdu6TG8mrjz+Bkz7kx3R2/DleOSCPz8ou2r2Opyy9zk48sRDyRFdja355LwI6mZuMaeg7qBsUyl+mfA33n7xQyz6dzHadWiPY04/FIefOhYdenWQO/KK+cWrZBj5FUZmRcQaGDJklAxQnBnMwImjzsGGdRvw4e+vIrVTOjlGdXpTm1MBL1xc5L35zRKspUWoBY4ZcRrWr92Ez6a8hdT2PnJ6PDqmFgWR18aW+8GfkFizbT0+WPIdijPcmPH+FMx7dJrwOqga7JAuvewy3HDjDUinHyM81mpf6bGuNWqooe4VNhiq4Ygi4ayIaoBGPDGqg48XfornZ72ING8GOmV2wAE9d5PTPMV+9aBqLLD9ZUeEPOCIXU9Bx07tMf7rJ1HsVi865bcItGrRAk/f+gpeevwN5YgOIEcELz58egIeuPkx/N+ztCI6+wDM+GE2zhh7EYbtNhTX3vcfFBbmkROkSsi7uKl6bkGA9LXr1RbZHTPx78+LcK5ZET0/Dltzc4k3hCxvNsaddBMm/jYNn5MjSmnplZsSfOSIVpIjOpkd0UnkiJ4hmQJaZYgRV7vW5XEhWBDCSSPPJQewAQN26YuTLzgeex6yO1JbpqCQVmn+soByzjIk5EhiDI0i0QolIw2TP/8HV5x2PQ499gDc+dL12Mx1asclkKRuAynj1QZfh2vpy8Hpoy/Egn+X4PN/3kZGx3R1GpC5iVdeH8RpXVuqJwUBkvth2URMWT8XpYEidGvTE0d4D0Zqnlf6Zlqm6iTYspzU/kwhiseCplv+18YvWZ0XF2sI0lZdYOSkkLZMpo3IKZIpsSsTWFkrz7UQkfMUmTGRqiipcuoHhiWsIftdg5N87fD7H77H62+8gTWr1+CE44/H+FfHI82cFnVQbSS3I9KTw0Hy4ttl3+GFOa/IKacMTwb26DQQIzoNllNsZUH+mqrdJanf82xUMpCGE/Y8B+tWb8Rn096Br60boTJ2HH60y+mAy4+6Br989weefvd+DKIVkZtc0cfPTcD9Nz6Ou5+7BWNP2w+rZ6zBUaNOw04774jXf3wWm4ObiIufm6E6gmyoaFXj9clt0Xzq7N9fF+DcIy/HkScfhlueY0dEqxtaEWWQIx134i2Y9NtUfEoGPK01GWhyRPxcz2p2RPucgyNOOgQ3kSPKJaegVkMKfENE8eZiPH7jczj6tMMwaMzOCKSVoaCwmM8zisFSp5DszyCxBvshpiY6rwZbpbUSp/jTN79h/KdPYYeRPVFSTAPDHCQrOsjbqtNGDD2+VJgdzMbR5Nw3bd6CTya9idR2qXJbuB51ZhJ+WQW507EobyW+WfYnVuWvlYeMj+15OE7c8XhkpPB77BxUFytXrcJpp56Kn376CXfedRduuflmXeKguojliPSJ2SRA+HhXx6qDpMP+3ffDY6MexNAOg5Fflo8fV07C63M/x5biXKR79W3+ylJKkCQZUW+WD3vutzsZ2WJ8/c43aJfdDr6UFLRr0wYzf56FP36ZyJwW5J1wZmqSEv46Z4cdOtJqaDBmTp2FXz/9C20z2sn1E37/Gp/Ky0Q2lk1bod7AQHWySRZxbcT51mn+4xWF0Pifv0cuhSoK0h+Ds8xrTLp0h8BvZEhrk457X78dux46FPBS3/w+tKLVScu0FmiRlo0W6RxnSfB6fCTP59SUvIDS7JxTUnxYNGsZfv7mdwwePhD9dt9JTudpFgUaAnfAJdfR+BPZ/LLUlPQUdGrbEd9/8AtWr1qLnXfph5btcxAMsCfkf24xb0NIofp5dfX50l/w1vwvyAmtQY8WXXH/Hnfi7J3PiosT0kNXJarLVxHqKh8vdOncWVZFHTp2xGOPPoKVKxP4bFYzQiWOyH701DMasGoHlaNTVifcsdstuHTw+bQqSsXi3JV4bfbn+HP1P3Ix3EdOwZgN3o1szAtLi3HcWYcjq0Um/nvvC3jujvFYOWM13n/8M1x/4R3o3qub8MspEnFCnFZOQUBOpMxdjEtvPk+ea7vh4tvw1PUvYcnfK0jPWvz63m+49uRbcPN5d5FxzVAVywV2Vb9oZOtPJOt6Dzmj8JsG2GxTIS9DCEzVSaVLIr4470FJXhluOf9eXHv87bj59P/DDaffhWvPuAPXn34HbjjjLlx/5l24jtLXnHI7Ni3bKKf8WDWDm8AbrjsjJR0fv/Gp1Hv0qYchlEIOVP4UO/vK7IwsvPnAe/i/Cx7GXx9MxpoZG7Hs7zV4/Jpncff1DxCXC2ddfioCKcTM/7oe7mOWLx3LclfjxVkfYeK6mTQeARy7w+F4dNQD2LntzooxDjDDVBWqy1cR6iofT7AzOvecc7CZVqNff/21pjZR6DmVaFTgiJJptycD6mlvNBKwAT+05yF4fMzD2LXDEOT78/D98r/xBq2ONhdtRSY5JDv47QGd+nXGwy/fjdbtW5Mzeg4n7XM2/u+Gh3DyecfisGMOlE9CBFy0jtHWlF+Dw7dB8xuo2SfxVzh3HNELT7/9MDp27oDnHn0Jpx90Hk7a+2xcf/6dmD1jHk4892hZ+bBFDnpC8paC1Ay+NsIPlfKsdsnpwNT0VOS0yUEAfr1r1XznazupaWm06qBKjSMjxyEqmZHYQqUBTP51Cv74+S9M/G0qJv0+BZP/mELpKfL80aRfKBB98u/TUExOK+zRWJfS43G7sHHtZvz249/o1bs79jhod+QX8zvydD3MyxtK8rh8/M7nuPrcm3D83mfg9LHn4vnHxqNNu9Z4/NX7sOtBQ1BUWEC83E5qP409758vFv2Kd+Z/hfVFG9AjpyvuHnk7zhtwrtys4KDu2HvvfSResWKFxOWh9mOjR3j6VgO173OMa0ThmmdN+a3G14iMshq1v8HArY1PSyvUFL8qqof6ro8q/G7Z93hp7mvYUpyHbPqlP7LDLtit884oC5Gp1+e/+BpOZmYmyraV4p8/ZiNvUx52HNIH3clBbducr24YSHfLXWEMF4kFS2nVwm/KoZ9LfKqOV0kZ6RkIlYSwdPYKLFuwQux8z516ovP2HeHL8iK/ME/GgJ8DChTTGstLkqyDx4ULeFlSRuaeKvJwffwWCPpjB+AOkTMsoTw5QXcK1c/OiNjZgShpXkV5EGK9XDEFppnrQqKb/rmvTPeks+NT+hW0Pvpj3YGiIFJSyOmlueD3+0kD/y7UlZFulkp1paJwcwkWz1mOjes2wh8sQ/cdumGHgT3hyXSjoKiA6uc1kJucDK9QV+Hrpb/KHY5eWsEd2fNwnNznBPkoYb2Cu2G6nWzQQ1yX9k2dOhVDhw7Fbbfdittvv0NTk7vbyYJq3r4dRm0ckYMaIJ6zVutqqANhY9FGPD/zJfy26k+4PV75jPUhPUeidUYrFPqLpU1itMnWpqSk0GrHJ9/0KfWXiQF2u6mUnINc2yHDLs+d8J1cZLDl7ielQHSwveZndry8YnK74S8rQ2kpv2iUyphR88mpN6JRVtMlJW3gfDDAPHyqjJUz9Ct9BEqPbrjo00mSV0zsKixRC8JMepSzkb4IPYqRsurOLHKvxKfcjg3k/YRKZH6Oha838QqRxydATquMxs1F7WeeFPKa7PB/XDYZ09bPQ3GwANu37IlLB16Ifq130gobF2ScVTIpMXnKZAwfNpwc0W3kiCp8S5qDGKjgZgXe3SY4qFfEc8i1rvrfi8rQt01vixt2vQbXDLsSLVOzsHjbMoyf86m8CTrdkyq/ztlqs7Phz3gX5PNnE/xkb3lVEVQ3EZAemYm6E3wjgvgWTiuSQpBvp/WjuLAERfmFKCN9vGqRzzew05I/9mFEFHn6sxRQfQFyEn71rI5SzOacedl5UMQ0DmGvJDqMS5G79CiwA5GHPTmmtoqwpvEKTylimbAeC1Sk9JhS5lXglKmL+xosC6KopBgFBYUoLigiB14q9fEqKNObjtX5GzB+1ieYuHY6KfPjpN7H4eE972u0TogRY8SSCrJrHcQN/NvQgYNawByJyuirlBt7d90Lj4x6ECM67o5tJfn4evHveHvOF9hWXCBvYhCIsyCnQYKy8uFpKKeXtDbLmdAfpRnGkSgenaeE4lKyqkRFTBNqlDORnJBNzjL5VnsY4gy0I9NVC5+SMina6kKR4rbqtnPd6s9IE4QpGlyu9Nk4FVkIygHyK4tkIcd/lOZrQXxK7sslv8udi6vz16FXy264b887cWb/02isnedbEouIveWgjnAckYNaIqZVFbTPaIdbd7sBVw+9HC1SM/HvliV4dfbnmLpuLjK8KfLJcD6Q2aiWR9gxyLEexWJKxQxE2AKi2/Mx7ASTaA2iMsSvUuEKwiVMszkoHccGSbGgxcQZrUlouoAjU0EEymtnigl2fUY8w5eOldvW4uU5H8vdirS8w4k7Ho2HaBW0Uyu1CopZVUMjKRtVO5i5G3sOO4gE7fgq9n0zdERN6GhIaoSwX7d98cSYR2iVNAYFZXn4aunveGveN7RSykOGh36xy65Q+4MPZ06x+deLoDBRQAnKq6IYh78QFA9H6pMLkeAillRxLLCMclWihjZGS3QcVqI1GSGTZ1jMBJ3mSIKNTYGo1Gb5s8sxdJ6vBfGH775Z+gfelOeCVmP7Vj1wz6i7cFa/M5BmnuUilFOfDEjKRtUOZuVs7RwHlYDGqop93wwdURM6GpIaapzbZrTFtcOvwnW7/gc5aVmYt3kRXpn9KX5bNRVpZFj5uSO+TmJdl4mG5VDIQZkkxSodLrOSOo52VVHFljzHhqakWBdT3FK10WLsjhUzixE0TDpvraUkrxybCqpEgpE1MVGt61tGH4PSHrdHbrteVbAB4+d+ht/X0iqIBu3EPsfj4dH3Y0DrfqLbQf2BXyfFKP+DwkFtkNSOyDm0mgbYuI7uNBqPj3oI+3QejcKyfPywYhJencNvZdiGzBT1S14d07zXKcURBb6jjY2sNRfISVirHcsKWKUxET6dZzvdRgm70WcNnBZNQozSactWXpsNoptr0Um9jZBXJBvCnMzHqyC+Zfy7pX/hrblfYEXeavTM6Y6797gD5/SnVZA7VfhULY0b1R7XJEDjH+2aIdH7pt4cUW060tx2dlNHm/Q2uH74OFw3bBxap2VjSd4KvDb7M/y9ZgbS+doR347NE4WC8jHkOCiONrLih4hU5a9RXa4u96uUyEk6HDPE3RFB+LSchai8xWPodkUaFkl4lCNV7KotVnk5We10qeNZ3gysyduAV2d/gj/WTEMgVIpjtz8SD4+8Fzu36S/cDNOMxo7G1A/57EUzQqL3DY1muSMhIWgqB4uD6oFnVUUza68uY/D4Xg9j7657osBfgG+X/oE35nyBrUX5yPSmkQ0m18PCsjJhkPHWytj5hN8sHa6nfF1EiSKKFNEkpg07nzBs7i6SrFSZQk7r2OKz2skIr7pEWHgURbHbeQmGReiqLJ1WOd6QB18v+x1vzJuA5QWr0Tm7I+7a/VacP+Bs+RBfg8L0uzlDnds1UVxRqcomOvbN8BqRg9qgpvNfrUIqlmqTRqujodfgelod5aS0wKItS+mX/2f4a/VMpLp98Hm8+iBnS02aKAqbagW9doigmZZK7bp6jgwvQ/K0sbsMRiRHmI/BjlDynFYU2YqD0jwMdSpRp+0FBsQfTTUukG/55ps4luSuwkuzP6KxmA4/rYKO7nWovGx2cLtBwlcRYtSWGKjmNm/oHx/62ea4olKVTXTsyRE5s8pB1Yg1Syo3fNESijtaZkzn0Xh87wcxujOvjvLlUwV8LWRL0TZ5cSdrERkx8JyyKJRSaaPTrltqp42RCK93wlyGYmDy6okdIxeWYNsT7WbkOScjSFA8NlBGSfCWAv1HlAtC5Hy98paHr5f/gXfnf41V+evRNaszrYJuwwUDzpPPVyg9FaO8XgeJRiJWRM0RzorIQa1RteGzc6h0tAwfx23T2uHG3a6Va0ct01tgYe4yvDL3U/yyaoqcpuLVEb9igB/gVNAuSIxA2MVE18BOI7o+e7my7LzhoOhC0luGSUlMm3CJTYIbElURZzlIGy0hRVV/Ks+P3Wb6MrCSHM/Lsz7Gn2umI+Auw3F9jsAjox/ALrZVUFQVDhoQ/D5BlVCRg7qh1o6oaY6/M6vqC2ak7cZ1ry6j8PhoXh2NRHFZEX5aPgmvzP4YmwpzxVgz7L9AZfUh+UiHE14jKSrnwsGWk2LjFuQtd5IyHAy1AlI5VR6uyc5XGdQqyUhSC/QFLz4F6XV58d2yv/DmvC+xunAdOmd1xN2734nz+p8tD642V1RnXBsS8monjsPTIWFI9rGIB2rtiOph/BOGindsY+5V40LskQ6pd9YNo9XRkCuRk5KF5Xmr8cacz/HnqulI8/L3jvjOOtseJEWcs+9Tu7MwYIqiKpegeOxuybwmSCGcDnNHg2lKC29icURDSfDpPH5H3Jr8jXiZHO3vq6bBHyzBkb0OI0f8EAa1HaDYmzGqM5oNCfNAa/hUbeKQ7GMRD9TTqbnq76zKOeuw022izWHH1h8q2yc13V+8Z2h1Q9GYrnxn3SMY1WUkCgL5+HYZv5VhAnJLC8IrBa3euArOmsCw167osU7VqVpZ2s7PxLCecImktBJDVdkYOdqICzNF5EBT+VSjy4cfV0zG6/M+w4qCVbIKumu323HRzueRg+KVX2Rb7GkHyYHwPtGTwdlLdUKFjij8Covao/zOqiui9NRk39eiCYmeWk1j6lY2sJWUVdj5sEzb9Da0OroG1w+9Gq3SW+HfrYsxftbH+Gv1DDLoKfDyWxk0LyeMJMd29eZXqzgFDVNuKJwPlxIi9IVLJKWF7fxGH6csXZpBFku04duuV+etkzdL/LhqIvyhMhzd63A8NuZBDOlgvyMuXGNku8K1JBUaulkJrL8i1eYaUdhOhvdS3ZCk+zjBqNARmS9l1gW12TU1konXvo9AuN8JUW9DovXXD6JWEtWFrfOx5O20MXLt6CHs12UvFJUV0uroL1odfYltpXny3BFDrruQzvApEwWjJ3Ksy1NVStEjeDmjCRH0CmBvN4OPoxSXF6keWgWtnESroAlYkb8SXTM64/92vxUX0iqI74iLRFhLZJ3VaUHNEN3eWiGiWXHRWDNED0scbJdBxSOuSuJYlUb893FjQKWn5sz7lJoXGnYiNMBhXGfUZcS4v7HkI2khtElvjWuGjsONw69Bq7QcLNq6HK/O+Qx/rp0h76zjC//yI9VmGew62F1yiSq1r3GiQRxyM4HWY0vGgiky+jgOp11yC/rm4ly8Nvdz/EyroLJQCY7odRitgh7A4HaDK1BdcevijfjXVH9trxD10ITwSqiSyeGg2qj01Jynmb3GojzUJDNTzT7lEjX94n0MJaSdrNRSnLjLtWHXER6VkZ1H4onRD2Kvznsgr0Q9d8Tf49ksd9apa0dmNa+uCLEWjpXzURQVGCZWUBzyUGrUqWnDF33KWuVoK//hMn5HXKonBb+unoZX5n6GRbnL0CWzE+7d405cPPA86y5Au7bItsQRCVOcDIjVOT2qCey3eZA19oqo/ge82jXWf9OqhYSemqstTM0NP2ZqthljYTca9nSDgQaoqjFKSDtZqU1xOFnzPWZvX7R02HXYEUJrWh1dRyuj64dehXaprbAkdyVenvMJfls5FSlk/H0en3Aqaf4zLomDuhmiIlhuK6oxrENI5RtJIKJ115y6FsSrIL7b7/vlf6PYX4wjeh6Ex8iBDmq7s+Yrj0qaVT1Et82gJoor0pEg2KurXdWVdK7OA1ox+GvAKhGr1QmsuAJUu8b6b1q1kJRLHjNWSTpmyQMaoOQao7q0RjmAqhFegY3pOhqPjn4A+1JcHMjH9yv+xJu8OirKVd87shRygqToX0gmJpjY+BHlthimFgPj0iLp4d9rIfkcejo5wj/XzMCrcz7Fom3L0TG9De7c7SZcOuhiWgVlat4EwXSmLoiHjhrAXl09V11HqNY2rjbXHNFHgYUKC2qH5n7uLX6I845pfqjOIa0G2c7ZOq01rqaV0c3Db0C79LZYvHU5Xpv9Kf5cPV2uHXn52hEz0jJInU6xS9tWOeRR7E4mtltU5YZLuSaFdG+afNLitbkT8M3SP1EUKMQB3fYlR/kQhncYShxh3Q4aP8xdcw144iix0P2KdRQIKiyoHRxHVEuUm39x3jEOIqHGu+JBHtlpDzw25iHs03UvFPoL8d3yP+WN3rkl+s46UsCrHrPfjD7WGE6r1RDTKjt9p4pc8i4GvoU8zZOKiatnYjytgtgRtsloiRuHXoerdrkcOakthNtIVQ+mlQ6SHpVNlMaMeu6W44hqiSY6/ZIWscY72ly3Sm2Ja2l1dOOwq9EiNQsLc/mN3p9i4tpZyCBnwa/TsU7pi0LtgijNWeOEBJrPnLKzLgFZCImDY0f3Jq2CvlrxJ0oCxdi7y554bNQD5Bh3L9e+6HzFKFeZg2SDdkDOnooPHEfkIBLVt5Z1Rl2rqsgIjOoySlZHe3YagTx/Hr5c9hvemv8lisuK1Z11VLFySFWbEebjO+XU2kkFvhki3ZeGv9bMwiuzP8F8cnityQleP/xqXEdOsE1aayUr23A/q66tqaCuezb5EbIebWk+ezWRcByRg0jE87iqwh4l7hAOoX16O9yy63UYx6fHUrIwf8tiPD/jfVkdpdFKxu1yl7szVLWnfKOFonkzyAFtKynAm3O+wFfk4PLLCrAPf+iPVkF7dtxDeKJh+lnFcDQhNB3jzPss1n4zZ+TCt840cSS4m44jcpA4NJg9MhW7sH/XffHE6EcwosOutDrKx1dLf8P/5n+NEn9p+Eun4mTCR1r0Meeicp/bi0xPGiaumSmvGfqXHFvr1BzcOPRq3DD0KnngllHZ8dp0zHMUKjVSlRYmPXifxdpv1s0sdbpG1AjHJkFNdhyRg0aL8sdE7KOE76a7bfebccXgS5CRkorZmxfgxdkfYtI6Wh3xtSOveu5IwZyEM1v+amoGthXTKmjeBHJkv4tD27fbXnhyzKPy+iG7qaqLWWq0qLTTTXVE4mGRG9HYmKYmqMmOI2osaIQ/nhKN8sdE5UfJQd0PxOOjHsLuHYYirzgXXy3hN3p/IW9oSDdvZZAtx7QK8njk7Qj8sbpX5nyMuVsWoWVqNq2Arsa1Q65Cq7SWmttBc0Vy3L7NjaheQ5LVjDiOqLGgEf14SmZsl9kJt+9+Ky6n1RG/B27h1uUYP/szTFozC+nyvSMvDTV/LygNGwu3yPvsvqZVUEFpAfbpOgZPjHlEPmteGZL1YHcQT5gDMhn2NrelegaiSq4G6k7zcERN1DI4Bs+AR6L6o8F3wR3UYyw5lYexa0daHfnz8e2KP2l19BVyi/LkdN3Xy/7Ca3MmYGnuMrROz8ZNu10rn6Mwd8RVBuc3Qy3RiCa02cfR7x5MjhVSHdBAkzf5HVE8dmx9DS61tT4nYt27ldxHTfVbxyPBoWb96ZDZAbfvehOuGHgJMt3p+HfrErwx/0uMn/cZfl03DX6U4rAeh+KpvZ7AyO0i74jjmhI6esm9axKDBjKC1ULU/nB7PBKXewluMvchieHq1LN/hVN+1pTf0KqVcx48AjxazmSrFWIPnZl+lQ9qood9dcFqjJ/7OmZum4tSVwjtXNm4qP95GNTO/sG6MKrX6sSheuNRMVeix7OpYe6cufj888/RIicHPp8Pixcvwt13343DDjsMJ5xwAoqKiikUoV+/nbDvvvtqKQexsGXLVgwYOkbnFBxH5CDBSFaTp9oV3bp9j9gXP/35CyZ+9yeGDhxGlIraH69+VaanZnXEq0UNhiTuwOYtWzB61CjMnj1bU2hV5HYjFAy/ozAtPQ3f//AD9th9hOSbLOq4n2I5IudmhSSEmtZNBTUzpAlFRAWqXdGtK15fhOAGPzxBdUs3i8RuV7wsZmV6alZHvFpUbcRzhyV859cNrVu1wt333iPOhwN/q40/BaHS6jTdRRde1PBOKF7jWJmeBEw0xxElIdR+TvIjMwFIrCGl8axOBfokv3WuvxFffa5ey+vQv3juMNZVa31x2kdVqDnisMNxzLHHICiv96HG8tygKBAMoFvXbrj66msUY0MinvukHuE4oqRFI51RyYryby2NDc1mbJJ6z1zjRPXa3RTmWZz6UA01t916G1q3bi3ORwT0RLnuhuvRqdN2KlPfiJMfjkA9TwvHEcURiZgPzR3VG9NqcFXzwHKbFZFslWb7d4qaNhLQzyY2dP3798eVV14paX5XITuk3XbbFWeffZbQLNRnv+vDacTsT5hY1+42SUfUUHO/nn9ENAtUb0zjN/LRc0e95Ke57NkE9LNehq5+j/iLL74YO+3UD8FQQFbMN918C9JS03SpRkNPmdoOSY3kwp2sa3ebpCNq6DngoObgX5fLV6zARx99iEceeRiPP/44fvzxR2zZskVzVITKj5yi4iIsWrQQq1av0pTqwdJavzauAdGYO1q/R3ybNm1w++23SfrY447FYYceKumkQm2HpCK5BA+xc2rOQcNB277ikmJcf/0N2LHPjjj66GMwbtzVcvpjn332wcBBg/D2228rxpio/AiZN28+durbD+OuulpTqoBuU92Ou8Zo1BNsaSoBf3Y7FPAj5A9QHDvACn6Jmd/Qwjysx6RJn8Th8nA+KLEEXafQ/aST8qqM5SnP14IsPqWf6znqiCNxyCGH4por/qP6wOUkb3RYMes1Qeg6aJrUx7ymPglhPinTelXeyGpamaIbXZZeHUfo5MA8LGeVq2DKw3I6T/1X/aYxq9ONO5XLJuVzRNygGh8WtRJqQMRob2PrQrww7upxeOThRzBkyBCcftppctqjpLQEf//9F5595lls2rwZ48ePxxlnnKElqo9/pv+DQ8lgHHb44Xjm6ac1tWLsueee+P333/HPP/9gEDlBvj7UfE7NxQE1mMTBgiLkvf0lir6diFBBiabSb2P+GqHcmEaKKK1vTmOC5F1sE5nAfFJmvgqktnxbNTs3lrf2HbPyz25WpthEB6vQHGE76yYpysinHrjQ0AmKSiHFg4JgGVp4UxEoKUMwGG4Fy3P7ufkh2Siy0iVapSzIdVMIMb+unOnMyGcIpLkiz4wUS9KujGDKOKKN8HP7KM9pyVllUiQbTrtFIZVQZLVdy6usagdnhJyTiYyxeyD7uP3gSk1hhlohcQ+0sgZuqAMHNcTSpUsxePAgpKdnYNKkSejSpYsuUfjh++9x4IEHokfPnpg0eTJa5uTokmqA5iWfxw/Qrznz7Ic+0ivESHJEf9gckTO5E4NQcQnWX3wvin+aQkYtDZ7sLBpp+uVNZdp8kjFV466icImA9qOyyWywOW1kmZ+29K/oRGXnRTkuF0ciCjklClSe/iWvlQhJnKGwUMQEVSeTgl4XPF51QilAKw6XX8kqPiKKHishgaRVX2jDaW5xuEfSMqErKDpfg5I+yD9tiMxOUjgpbUkJ3UjzlqksS6saSRHEs3GCBVkh67PJSOMI7MW0jBlL5g3mFtB+K0bmIXuizWPj4PJ5mbvGaOA3K6jO1QsSXVUc9NfjaCQ1Jk+ZguHDhmHfffbBd+R0YuHkk0/GH3/8ga+/+go79u2rqUBJSSlmzpqJv/78AyVk2HYeuDN2330EWrRooTkgr11ZuXIFMrOy0Gm7TppaMUaOHCl1TSdHxKcFnR2VGGx74QNsvO9VpG7fDW3OOgje7dqSdedlBBWyA5CBZ+jB58iQDNhIijGltBhWzaSNp6wKTN4GMbHETyXK5hJCilnklF4hgxZXlGQiE2QNQUmS1SyS503AcNFW+SeBS5Y9khK5MEiHyXK5qVN4KdJptSLiYnYqTDRMHDN0Wvqo05yVItVHQxfHRHyS43ZZbWNwWmeoHlU/8fOPNwYVBdZtxqaXPkfZwpVoeddFyDllLBUIo7BUFw38ZoWaNbZOSHBVZhLWBfU4GnVvbALh86pfVcuWLcfmzZslHY3X33gD//77L3r36aMpwIYNG3D0MUeJE7vssstx9TXX0MppLEbusQfmzJmjuYC58+ahf/8BuHpcNa8RmT2jI/Mj0UF8UfzHP/CkppITOhhpO3aD1+OC1+eB10shxQQvvKk6zWUcm7zQ3CoWGc2b6tNlHniEj/IsK/LEw3SS82h+D4c0ThOfyDI/5bmc5D0sRysfoVHs4ZVQCuUp7WM6Bw8F1iP1MY1lVGAa61B1ct5rxd5UHUwbWZ5j5tdyqm6ul2NTHiNt2mL4RYbppoz0cUzj7OH2spx9LPXYqH5TG6ld0h/eL3SIcpy6Qxe0OvtQWsGmovibP7VZqeQAqYHdqUdH1HTAQ9+o7FMSN7YvrXD2IOexcNFCOQXHTmf5iuXw80VaDT6llpKSAjf/PNW4hhzPFxO+wO133ClOasnSJbj/gfsxa/Zs3HrrrZoLSPH5EAjw6Tk+RVER7EeMSod/vNbgaHJQLfDF8uC2fLgy0+HrQiuh/CK1CuKh5l/pEnOeErTSkNgEO5/wRgdisOeZWUey4jL6uYynBKe5jghdRgfLmEAZCTrN5RF0ptnKpNzo4bQORncEH8dGlmJDl6DzVts5bWg6b4UYuiXPulnGBM0XPVZcxjclWPWYmOUpLiyGb7tWcGWlIpSXT7TKjilCDeyO44jqCbQbHcRAKv26evXVV7HnniMxefJkuVmh7459JX/VVVfJLdwlJeZCtsKmzZswb+5cWhEdg1tuvgm9e/dGj+49cM3V12DXXXfFxIkTLZmgPlj41IZCrD1R/ogx7PrsuoN4gk8PebxqjHl3yBBzgoIZbvuwm11m7TrmI4ZoXq1CQRPZkFqxkbExMt2iRUPzyWk7Hcs5Kwbr4rxKKnCeM5rHTCJGBB8hIs38Ri/HVGiyli4deIlul7VgiPZykyAdEXUQXZIWowbzGRrF0cVcxnLklFy+FMrGz30kryMyY9ZEEL1PHTDUTt5hhx3w7Tff4rtvv8ENN1yPfv36Ydas2Xj00Uex3377YbfddsPPP/+iBpFEWrVshZ9/+RnvvfsuysrKsHLlSsyfPx9LlyxBRkaGrKZKS0tFd1AboMi7jShtshUgZJ2Tq4KxuoiTmqYAGVljeYyDiIAerOgiu5Hn2CQZVtpWLjwc0096EdVlhkV+6hOsucGx4bHToiBzw/CpKAw7gdPMS4EjA8MSIRstZ4NkdZ12hxKh08joWNhoY8gWpMBSZwULuoxjQ+dxZxoHckKsNig0YYwLktcRxa+PgoixblJozD0L7+S09HTsu9/+uOeee+XuuZkzZ+LNN97EXnvthenTp+Poo4/GjFmzRITvgONrShdeeCGG7DIEffr0kVN8vbbfHj/99BNSaJUV5NMOBFVD9BgRtYL5FT62lIy6BB0HxElNY0FVs1KGw2zMKqMiIas8Bp/1g0HD7EDh4TQFTnOws1rlGobHwBQJ3VYgSVverjMCmkfKKS3tNIHAxXZZLrfnrbShmzopE91nRjSJ8yYwjHisMbSD6baqJFgOTSlTfsnQCCauA5rNqTmzP+qKOIx50wYPUC0GyZrrBD6N1rNnT5x8ysn49ttvccLxx2Pz5k148/XXpXz1mtU46KCD8OKLL2L73jvg9ttvx/3334/HH39CnJK/jFZD+mB18zMa8q/yVTXNbnMY8Zo3zQ2VjxuV8jibsY5lWGVHULBPDANmF5rhYZotLXkKDIlpY+JYYLIUsaCGlbQKY8MmEhPWhOKYAueNSk2yaNHgMrWxoTJeO2wEU5+AElxk18FppgmdMvY8g/PCrwlSZgoJUlY3NBtHFC/EYczjjORqkfXDr5p46qknMXToUEyY8HlMMV79HHLoYZJes3atxO//730sXrxY7oT79JNPcO2110q4/PLLxIEFA0F4PEYbxdQo+42slcL8oq6SMUlhsxVJCx5bGWexaEzRNHuriSA8JlbJmI6JEU2TfEyi0mNB08SwUgFH0WICImoWgbQjijGmXGXQAqZ/RrnRY9Wlg4UKKoog2/pipxudglgMtnQEL4GK1C7iRHRh3ZAcjsg+Dk0RTah/VXWlptOTH2SdOnUqvvjiC00pj23bciXO0c8HbdXvn9t9990lNq1as2YNppEuXwo/9a1bIkU12AHyrRlCrF/p1UCD72rd7PiaifhC2W9uIQUzYIbGsTHwEWUGLGcItrRxWgZsMbnIsJqYYU+zXLRDMWqiyBFguXLGmARYxsjZ0wYsYmiig2KLRyei1UbnDezttvNY+nVgAvMyXcpMggql/1qYI1tRBITGP+f4j59H4uOEifFBvTqiCpsd3ekkRq2GvhH1rypEdCUO85Bv2W7Xrh1eeulFfPTxR5oaBr954fnnn5f0iBHq65ct9NsVvvzqS4m5Vfyxsv+7+26s37AB/MyH26OmtjQx2tBUBsu41K5zTWhXJw48SDK8lLAPGNMkH2MUuczaj1FyjHK7i3kMExVy0uhgJxW9+jI6DV8EmKDL7RA+2hh+41gMTDpan8WjExxF81QoY4etAua39Oi8TkbUI+CEzhg5DjI2TIyCpcNlDal564XA1FUjKH0GtXNEtarYXm09oJZtrArV7kOC6k8qVDIY1e1+586dcccdd8preI4/7njsu8++uPKKK3D55Zfj1NNOk9N2M2bMkOtExx5zrMgcfsQR6NixIzmvl3DIoYfKbd78TZiff/oRgwYPRn5eHgoLCoWXHZS6c65yGA7rNm8dm1N6DmKglkMjPkA2WgEPtQkMK03lhiagjMlbdTNB8xkHY5eRtCYID23s549Zj8nyPOE8w8YS5uVyzRDTaOsyQ+espFmOY5W00uGEgr0sum6D6DYKdMKiR8kIiGbazuCkGS9OS5ldLlqH5iO6KrGVR7PWCCzML2CqCaQhhDpVXFOYSmuIem1jDDR0/Q2MmnT/oosulNf77L///vIM0FNPPY2nn34a7733rjiqpyn/6muvISU1RWZDr5498dFHH2EsraZ++P4HPEW8rVq2xscff4oTTjgRQ3YZJrd0MzIyMuU1/cPIoVUG015rtumDNuKXXx1Qy1lcL6h122o5NMrm8XU7UlBR5ZonwngyrKyNbgwv7ysmm2CHyUfHnOC0McRalcDiMeBCw6DrioC9XEOrjSZXH7ZKRBcpiqXL0CqtxxSSIk7KeMUQkDJ9itrAxibJaGdXbiwqQ/k6a/euORkQlWzcqHtHEjYUTWaMqw+/vwxbt25FcXGJPIjKt2FnZ7VAZmaGlJuJaoaF+bcQP4OfLfLq1wXxe7T4hZLyklMb2NaIbCXjat4157z0NHHgTwqsP+V6lC5eh04PXaz2Ez/Rz7APtX2Hm7RBLJrAtr+MLtnxlBF+e5pg11NRmiErByYyuMDGIEaZy03aBs1itUVg5CtAdHFEvRpMMnx2/nKqicDy0eUcM+z0aOFoGdpPgRI/Vl/zNHx9uqLj23cT3cZfTWzZkhund83VvO4kRd07krChaDJjXH14vT60bdtO3sDdrVt3dOzQ0XJCDB4S+7Awfzvi52CcEMPldpVzQgw5ZqoY1/AbGFQc/YO8/tBgFdcLXOZhUoPofWN1P2ocDE/08AidiZyIliGaKTIK2LEwzK8TTRaYdCy65DWR9UbNl3JgMgerfkrw2z64XqZJ4I0NRhWTWT9PZUMTooloIzwmTzD9MjBOzNRnZAQ6YeUZOmNvgxXzTQoqE11NXVE7R+SgWSPOczCp0XCv+GmoeusDNIPIosn1NzOZ7JPKnrYMvQaXGZK9SOi2Ak4KjUycm36kSJ4IlgPSvCzDJE2O0MkQHRxXwSf5aCLBLsPPtGVmA7R6Rwr/cKpIGcEqojL+UcWyHg8FkuO8JUKMhpcRs52c4QTFrM/IRoyt5jE0u7yQNEGcJu25OHsOxxE5qDHs07fpQh14xl45iC+MnbMg46wHu7pjbq0kKGYZzhpZLvO4sdFfhpVFBSgUA0zmTkRscpYODauI+TnovMRUyI7M0CxmJth4o6Flg75UXPbgvdjjzFOwOjdXORSGXY5VWmpd2Br0Yx31YUMgQHEp1gUoEG2zxwV/ZhaQnqEeOTA67LFNj3LAFNubbMEQCZpNlWu60JQOJUZb+7jZkrWF44gqQBzG1kEjhHknXfgUnYIzH+IHHlkeTxnhiGHWo1xusInAfIY3Wlj2FRN1gclmZeGCh+9GjwPG4KspE4G0NFVueCTWaQ6WXo45IwkdE+QlnxaDjhlRvKzT6LLNI5fHhwUrl2PyzBko4bfBu2iFY1djgYTZueS0wBWPPoyeY/dB94MoHLg3uh24l8Q7HLw/Dr70Anz+z2RaYbUgfpKRZvBGpyPmMKWlPSpnwfBJoAyXaxXW6soSZB6OCUaOoaPqw6rACjV3RCzXDFDjsXVQ70jkVLQckmyd+RBP8MjyKc/IU3M8whQsg8hBFYUNYmXQ8mGFEgpKSvXXHqLLCZwVVKCc54DlkBjRaaOAYinS5VIURSOeEK1m9t99BM47/iRkp6RTUdR1MpHjBG1Y3uNBYUkRioqLMWr3PXDOiSfj7GNPwlnHHIcBvXfEt3//gSMvPh8f/vU7PxmuFbC4KKEs5ZlkD4zo2MCMs33sObalZZ8ZWrR8HVBzR2QaVQNUq7117lQcR6VZo47jWI+7oRZTsRZoXvOqfnrLD0ayK6I9aIymGHwKEjGNgr0x9p0taVuhnc+C0uHWZWqFG4NRSDblbLz5OkxWNq1IWqo4lVdSuiwafN0mLRXIzAT4zR/ZxJ9O/HxNR6BjitzFJRh39gV46s770DaD+K1vZEXrpXzUD6HLLzgPT91xF565/hY8c+Ot+OW1N3DLFf+R72w98PyzCMnNOsTNYkYdCxsFTLTSBOax50257AdKGB0Ck7EJCK9KxhyXGqJeTs3Zml8xqsVUGeqswIGg6nGsdNo1sd1g9bXux1oNUe8VCupt95nVQDkjRnnTiOiYWa10jJYKiTaik/WQIzIOQWKtgCMDcVD6bjAOLVtiQUEenv3iEzz49qt46P238fE/U1DAjoZP7ckpMK0g1Yv1tN76ZNpkPPTh23jwrdfw8Htv4Y1ff8ImfrNHll6laGcb8qZgwu+/4Jn33sQWf7GisyrTFx2FwQQtm18IrF0PbNxAYROweRvOOPIY6p8b69evQ6Fff7PLiOg6LZi67OC8YTNt4NjQrTKz0QWSJ5g4uq4qYZSH5erFETloWqjptEtmmGPJIPzdIgPd23rvdNUVRre0sSFiqCtKC2wEk+ThsQfLMWkGjkxgcGWGRWLaSJlicHF5ixw8RE5iyFGH4KJbbsS199+La+75Pxx14TnY++xT8Q8ZfHUKjGTJ+G4uKcPuJxyHIy88l/juxg0PPYCr77sbp427AkOOPQI//TsfyOBTcFIFXOk+PPXaS7jsluuxoSCXnz/QBZpBYEvLKTLVaDc7QKmXVmAMXyryCwrlzSGptLry+VJUH5lNAm9s0OICK9b8kqYQK21igbptm4daVphGT53ASmr6ZgUHDuoNEUdAwhB9LEUfv8mMuNiBegYPr0sMrK39yhbZE4rRCkTj2BAsui2ojQ0kQ/WY/am1Eohg+JnIaWbKboHxX38hjqd1yxx89PyLmP/dT5j15be45PTTMGnGdJw67jJsCfjJK7AzcKGkuAT7jxiJb159DXO/+Q7zv/4eC7//GU/e9X9YsWYVLrr5RuTzM0OmHoKbZPmT916+pZzrlbJw6yL7SmldVEwrrxKfF1u8HgpeLCnMxW2PPShlZx13PFK0TMisTmwqBZzXbVCgTES9FDgbS85A16H/DcEW1x6OI3KQpIg+Igh1n+9VIvosQ4xWWKiH5jQ58Hjy129lBcI5IXAJwzaiZuA5NiGcCMMikawYVgrya13r1xZOTgSKei7jWIPTbhfyQwE88OKzQnr+nodw5G57ok9qJvq3bIMnrrsFh+29H2YvWIC3v/0KyMxAiFYiHbOz8cxNt2H/nQahb1ZrbJ+dg+0zs3HJyafhxEOPwLxFC/HdpMlAShrVzZV74PV4pRlBXuHY22GHRQ8zXH7rrdj5yMMw9LgjMfDow9D/oP3w/e+/4f7rb8K4U88EtuURF4+rRBqUsOfD6giU4TwH5mFYcVTbrDTL6Otu1l16DDtz7eA4okTA2kEO4oq6z/eqEVVHZbsy3s1pPtOGX8HENyywMaMQMZC2vIl5YAyf0OxpDeN8iC98ejVEPkYxKRJvTLCBVhj/LF6IuQsXYOed+mGvQYOBzZvJ2AYQKiuDu7AEJx99jLB+++vPvKxR1XOZP4BijxsrSgqxJH8bFuZuxtq1a9GuY2fhX7x+NUArGQXzHI6GWf1YREpImjcqbbrCp9586akUUpBOjrBVTkuUUd1/TJqIf5cu4ZcqajESsHdP9Nlgygzd1B+Rp4zw2QsUmBwSbycMcYPjiBKByH3noBEh+hpRjXZlHY/NZjVtaKzELBubZoKBPc8Dox2KwKRNeRSvZSd5GaTviVArMAObLnYGPh8Z86WSHTFwMFL5TjhmIUXCWVKCYb37wOv2YM6SxSjh03Osr2VLvPHrjxh11qnosd9o9Np/L+w0dn90HTUST730HEuKIwvfKGGHpkkFFUDarOQevf1OzP54Aqa/9wlmfPAx5k34Gk/fcw++Isd4xCUXYF1JsbqDj026pZNkTbUmNk7GhEqhmSL4OMM3d3AllTW+ZqijI6qkJ5UUOWj8SIrdm4hGaIPFL02NhDxBUTnid1w2PliDU52dou5S4yeJrDGz7BpteB9Y+WrA8BlnY/IUm/0YFGdggh1clxt+uRkASDU3I1DgU4jywyQUQApf2/G4UEpOSM4AZmfj1W+/wmlXXYZFixfjgtNOx4M33YSn77gbL917P44ZO5bVUcXmWSHWLzes67S+dsRQVRO4Lh1Hlfm4fQVFSCsoRFpeAbIoffaRx+CI/cdiAa2IPv75B2p8qq0+G1iH0acVWs8DqYxVjwV7mSXLSZ2haqpxRFSMKNE6OiJbC6NRSZGDxo/a7t46TN3ySMAcc8nT8/wjNvLQUO2Oa+sbL2INg7Uvqt4p7ICYS6mx82tq9IqHwWl7YFhKaCMiRpcuIOdj/aCQZVIMMGsggBZ8dxth/cZ1JBrmlbvDPD6s3bQJpWV+ZKdlwBMKwu9z4bk3Xxeetx57Ek9fewuuPupEnDf2YJx+xNHoN2BnKRMTa3eQ4tgoDmiaRLY085j+M0HLyrvd+JZ3yVI5x7kF2KFzFyZg5ry5gNejTpsZMQ5meWjyGpZDMVXZYec1KygLfEOEIscSrRFs9dTRETmIN9R+idjzTQqVT94E9ztKPf+imzxlMiZNniyfGJ81cxaKitXzGIsWLsBcOrinz5iBH3/8EVu35oYP3uaOyoahGruQVxqRzoY2HIv1tCkvVw+VM42DyDHssgacJiaiGf8jhs6w2FkZpcXYtW9fpKem4Y/Jk7CpuJgEvOp0Hq9EsjPxw4xpwjpiyC7wpaRiY+42LF6+BJ3atcOu/QeQB1tPK5YCIJ8CrZpmTP9H+NVtzjpQv61rVhGdUDQTWeBizaKuShEkopnopR61yMK/K1cIuS1/rofHVfNrNpU3Y82QvA4Mza/ylLGxCngMLFqYOa6n5kit44iSDGrXxmkHJxRmUsYT8ex3jPZFqWfH8t2332HX4cOx++4j1NdgyYDwqujEE0/C4EG7UBiEG2+8AakpKVoqGZGIfVFLVGMXKhZqMyfEAlGC01Kg+8KRPUg5bXSx5CVNiVhGUZcb/+TnOCsdJeRUSrOzUJqZiZKsLAl+nw+92nfEwWP2woq16/DEay8B7VoDrVoBrVtj/tqVeHr8S6LyhLGHAoXFaJWRgW6dOmH1hg34c9ZM4m8H8EtIO3bAKxM+x8fffCP1qnZwQ1SWvxbMSfkMhpzjk4yC5rElKKXSZdzHrGxpbxm1P5/a/9gbr+Kzb78S57bfqDHkUEtoKIwyglETVqfAeZvTEm8taZbVRJO0qeMMO1DZioPSvHGA44gqQ23GuUqZmiiN346uDlRt1a0zYoYmIarXvksuuQRDhgxBaVkp/GV+otCBRqL+sjKU0oHNT67fetttyOC7kmoBHs2E7cX6nR61QswmkgFTX76lYGILhqaSCjYtltG0QxMMv00uqN/xc+mdt6HbIftjhyMPRi8K2x91iKSZdsLtN5GMC/eMuwY9u3TFnU/9F/uffybufONlXPXY/djrxOOxYs0a3HjhJdhn8C4IFRYi1eXFOcefJrrPuu4q4nsQd737Bo67+gpcdsfNGENzSiCe0ISAOCJOh8ynHOyOw4KmCStvgLOvHYduB+2L3tL+g9D7wL1xFfWphObp1edfjD379ANoJScrLdFrAm+UjnBMME5Eimlj+HkjY0xB8hpmn3ANXMTihqZV1QWOI6oM9h1RXVQpwwzV3XO1aUBtoNqjaqtbnXGYk/WK7Oxs3HHHHeJwuPXcewn6GtEJJ56Ag8YeJOnawOhLCCzFCauhzojVMvmVbxlgnjF61kjEZba8sNGG00KmNNM0i4I26nYeRiCA7Tt3xuDevdGNVixtUtPROiMdbTikpaFVWipaU8jmNxyUlKBPTht8/9LrOPe44zBtxgzc9uADeHz8/7N3FQBWVF342/fedtHdnYJ0Y6EoiiA2CoqBYIuBCagY2N0J+tuEioJBt3SIdHdt19vd/5xz75037+0ubAe8b/fOPffcc86Nmbln7sx9M5+iepUq+OLl1/DMyLsBvkXLh0ZcHG7vfxnefGIsIkPD8NpHH+Cpl17AqrVr8N5zL+CWG4eiXpXqCOG68NdnedCmC516NIvq1KIlAq26aoIjqbauO8cZGWhQrTraNm0mM7bKYSGoFEohOAT1q1fHVZf0w88ffo7n7xgJxMaSCXUMe0GSNpsGRswe2wPL2tO2fSJUtisB84/8fSrcDz9OM9x4442YNGkSnA6nnF78qfKKFSpg/sKFaNa0qRLKC9iIz3lvS54EuZcsq8gkB3Ho+keRuuMQakzgT4VTe3m1l4xt/PxBXXV7oPvEdIvpIj1bEKfm222SF4Dk4EBk8PMUsusgnjz0Z79AZbJDzEzPhJNEQ93p8myHl3Lz5yOOxMUgwZ1G9chE5chohPIgHxeryyWaY14tHRqJmJRExLpTEBwWiWhyFsFuN1ITkpBI2UHkhEIpSGl0bKUEuYh2EJ9sp9lfeqorb9pArEynA2n8A1j+HRLN7PgT+CzJl0uBdOEUyC9nJQeKpCRtwscGg/leIIaREx2f2Bd2W04n0lNSse/BdxHYuDaqffOcx1YeYH0q3FYe7xY//Djj8eSTT6Fqlap08cqDgzpDRt55Z/6cEMPn/Mz96Zr3E7vsQS374MFZPI5K6AFROyHDk0Abji2o/aPAGdqOF1sphKSkISwhBWGJyQhJSkZoYgpCKeZ0eEIyIpIpTYMr/3hVdMiJ0EiJSuSs6gYGo44rBKH8wtH4OBot2QFpJ6SLZX40OStHahq+n/Ijfp85A5nkhIJo9lOOnFuYXhbOM4iAzAyEJKciODkZAez4rEGcYkMyWIVZ5JyD0kg+IQHBcUkISUxCKNU5LCERgbHxVM8T5IT45akkz86cY187WUACzDd5VmwTttvwBdVZZWdrPG+w1bdUOKJCaJIffhQITZo0xgOjRgnNL5Js0aIF7rvvPkkXJwpyLpSp84gch9RXNno04ogHRJ30GhwNaY+NnBA6YVMRSBZtTMywxybPDnPbiT/TYN4VpwwwYZMngmVdgdiybx/uGv80lu3YhgBetMAOSOpCjpXlTb1MmQZMWkktZMsWmDry7T2OOc3lGuejmEwoWGXpYOBLy0UAEULzhtOcyTBGCEzqJP+uSpFyGVE4oDJLhSOy2u6HHyWIESNGoN3Z6iHz4489jgoVKgidWxTGiVmQc6FsnUdcW+oxqTTFpvPMIC1pW4u8GmdkbLJG3w5Lx2T6CmanRPAVY0NiyzBNuZRmFs2o2jZphr7nnoc9+/aSE9JvU/CyYYfJ8BUwdlXkgWZwNpN2dYs2hIbJ42Dqbpy8ZYcI0wYOnCF2OBBt5DgWWoQ0iGZeIaEIHJG9snlFQXRLKXLbpNOw6adG6Wp0ZGQEhjw4FF2v647LBvYXnrkrr3Dy+hbieVnKURj7jW2YEY6C6Tx7dzO8iqKEUckCW56xIYEYHDPsfMbJ8hjWwKtjS8YuRMjMQHR6Bqa8/DpeGnkfMuOSFN+6x3gKGLumHIbFY+h6Wk6CQbExzSymTbZvkcLTTFN3S8aWlhkSxWbmZWDvJyVoUbmCpZszisAR5bp62SB3urloV+lBbrujIN1WlCjSzs6h0b4nejHgWNIxvLL0dcyuMh81R9THI0uewLoj66mGXEdTz1PvJFPz7FpQeK0q/v7xRh4P1myra/qVM40ApQ3bBIYR4QGRwbTJY4isPc/YM4o6sm5DCccbmm+KUKo6YZnRBLMlzeA0DaPkiILjElHZ4aTi+TmjAeVbsl6KXqSyo8uT+nNaRR45YtjbafEJhjY6WsyC5BumXdFuj2h7mxmS1Akum89N5smMT8ueCqcSI5Ol4tZcXpHL5pc8zM4syyiJzjYnWzFh/r4FGDXvYfy9fzbCMkMQnRqMXbF78Oiip/Dx+s+QxF/TzCVOVvPCa1VJnQH5PKB9q0tm1LUGbygzm/wcYc8zeswzgTdGhvNNYIgMJbhw+8WO0MyzVcWuZ2V4MW3Qtnhw5nxJajmdJbCXacAsUTN6DKJzOgeMjMm2nC7B4plY50maaI7FLgWbmpXwcuCeyA5RZz63xV52XiE2dCCUSUdUZiAHgB/5QQEO8VwjJjUGr6x4Dc8ufRGHk06gdlRNDG7cDze3HIi2VZrTyeHC91sm4/65D2PN4bVaS+MUFTw9d33htEqsyKCsRzXrytrwNGmS9mDAedmChHi05EHS9+regpax+EwzTyeZb/Ik5nzNMDImtkD5xqFJ0kdeJwUWTYSvHc6zyzJYJkt5xBCeiQlGz9LnDEpI2ghp+CSVqGHqWHiKtMvLWxVo5ufFLCBKiSOyes6P0oxi3E0FO8RPXdHFB5fg3jmjMHPXLIS7InBe7U64sXk/RIZEIC09A5c17IUrG1+AKiGVaHa0G48tfBIfrvsEyel6dlR45+AZB3kxJ/dfdn3Ig5zhS6wTzLcGdx3rKIsd5tsdi4Fv2ox+zOdg7Bl4pW3Khi/l6GDlU8J3NmOSWWIi7LYYnGfyGUxbZWjY8xlWnrYn+UQIXwv7zl5MkrOtaU4OEBPaDpslUqcKDaXEERV2s/woEpSZ3ZRzRWOTY/DmqrfxzJIXcCjxGOpF1cbQFpehR62zkZrhJifkpnMtE4lpSWhYvjZubTUQnaq1hiMgGN9vptnRnGxmR37kDXLlbfYRxTJIUixjoYk1xAExwXJax3cktOTtigRO2lk50QzftMDXAMEkTWzVw4chdbVV0pB2c0wz38S+YL7JM/lGPltQhmWHCIsmGB1j0zBMOjvvokWyg/VJcsZJ5HIL/605P84YLD24jGZBD+DXHTPhdAaiV+32GNLiUlQMjUYCOR4+n9TbkoVAqjtV6H4NeuK6ZhehZmR17IzdgycWj8MHaz9EgjtB7PqRR5DjEd9jZjhmILP1fRb4smRnKdKTl42QNRNgWpMGxoaJfWmpBwW2IYGSdnCa5Rk8kBuaM5i2nKiGJatjo2/ZsQvbkC2by9DlsL4vpG9NYPgK2dKGtIsaHseGTxCSN+n8egqdYTOVX5zZjsjWwadGnoT9KEWIS4vHGzQLGrt4PA6lHEet8OoY0uwynFOrI9JoFpSa6c7mZKJ5EfH4ezbx6UmoF10Dt7S8HF1rtIUzIBA/bf4F985+ECsOq88D+JE38KxTdTmfVzmMZCbLnm1oe8wDopeMr4KtDJPFsclicGwTE1h5xDS0gSnDOE8vAW3M8LMbsL3EjawNMkPhYNIUmJaYCGPTwMgxjIwwfTO0np3NMGmO2bbdvOQpnuXXCxlntiPy3RknRZ6E/SglWHl4Fe6f9xB+3zUTwa5gdK3WBkNbXY5q4ZXk9pv9xDR72Ptc41ezBCAlPRXplHNR/a64vvnFsrBhb/xBPLnwabyz9n2aUflnR3acdLwymdLnvucVZ/poZ8MSWHyyYc+XQZqD5hun4SWjY3v5hhR12pi0xDY5C8SzOwS7CNOSRYQ4DqZV0pJjnqRt+RwL3zAIRsfIMyE8HRsYGbWxwaRJwN4XQhLBtGmHRHajBJ3F5YlP5mz2HD5iBYH/1pwfpwXMuWKQkBqP99Z+iCcXj8P++EOoSbOgwc374cJ63ZCRmY40fukknZTWOehrgCAnHJ98THMgwXhyXjXCq2Boy8vQs+bZCHQE4Zdt03EvObt/Di1ntWyQjfHTHKcao9QnuI2U1cMeUvpe0wxDm7SRYZjBVSItwDxOcxCWTht9gZHhDYHzuE52njgECjppQervZUzp2wW97KhIlaFIC5yWfF9ZH0HDZ9jt2GkGl2nxaGPqwGCepIlg+771s0OLeerDF2WUZB6/gJXjQoLfEflRxqHOBvt5tObIGpoFPYzJm3+GC8HoUf1s3NziclQPryyORFyLVuAB0X6eMkzSjEF8g85eTkpGCtLJmZ1Xt4s4t5rhNbA37oDc+ntj1VuIS40TWQ8K8l6u/GvmCkVsPltQmeKIePSR397YQWlmcb04mGypp84TUhO+g6wI2HgCY8yGLDvdV8ekqZLsnHzUhcEiRkwOFgbHWl5Yms/t1aTA6DGY5jxjz8iJjBYUnqY5NqRd1thgmJgJI8O0yBGD28vBeBNfXUNbUAxZpOCkwO/hM7qFAL8j8qOMw3PGJLoT8fH6T/HEwnHYFbcftaNqyLOgC+p2Rho5k9R0N417Pu9KyDIAeUPNh5SGnHZEsgXm8w9dq0dUxhCaHZ1Toz0CA4Lx2/Y/cM/sUVh6YClLFwJOXr8Co4jNW7CPWU4HHIEuZCalIiPVLWnJFxnaWLJUObuePU8GdgryclFmmgwG81Sk2GxH8wysQZT5TFOQvqBYrjuYr9MGTFp6um6GJ7M7jnXaQNJMUL6xb/F0bKcNDN/Uw0tXx3ZIWtfJxKxjZCWWTAV72pJRSSvP8CTQhvZZekIiMvlt5SHBCJBveBUO/N8j8qNMgg9aOTc11h1Zi/fWfoStsTsQ4gpFxyotZTECf/slJUOtflNaDDlDFekDYzcnCflWDudKpoqZF+kMw564g5i+cwEOJBymPJox1T4Xt7QYiqjgKBb2w4bjT7+P2C9+R8SFnVFh2CU0qFFfslOxLgz0npBIOttiyaDIckaW0wZMyiyLCMPOcrFh0ixDgfNF1k4zdFpIzeSkcTqWXaIl2/CZVqSyJ5lWtiUrcjrPgl3ZA0nRxiqSwDxrImZsM7j9Vpo2JrZsEwwpddMJq54mk2JDktPJSEzGkfemInHJOkSNvAIV7ldfqM0r5HtE7XrrlMKZ44h89kPOyLVg2UM2Tctta7PIlZJuSkpPwv82fosp236RFXD8/KZv/e6oE1mdZkj86WSuppoFqdmNRg71z7lZJid7Cb7VFOwMknN43p5VWLpvDRLSElE1vDLubDMcnap11JL5Rc41E5wiO6/gMck+6BU20vcewoFrHoP74HEE1asOV9XyVCAVyu2gjeyrdKoAV4L+5VaeAZNcN8pTAzFJS131x+90nmmEWZ8nc1qWV8LEoAQ/62A7xFKfL5eSJUh1aKMuPYRDQW2VKOUwwbTIMbQcRVIFuhDibKbkj/mkIzzOFznasJo1wVD6nCkf8mPaCCtKkUJofQa3g1nsiJhPG60iMM1mJn+BmOsnzMwMdQ3AssyTMpmfiQxi8tfW+aN86QePIW33YTgbV0e1SePhqpQ/33BmOyI/CgRzjJYm/Ht8I95Z/T62yCwoGO0rt1CzIDrDUtNTJVbgOLvDnIcGPSgw+ISjRPbtZFnKU6OLpEWSk0SKDm/IQBjVZW/8IUzfthD74w/S1X4m+tQ9F8Na3ITIwEiW9IOQunEHjo3/GKkrN6kPxcngRxncx9aoqFgMebUM5akcj3tQULIC0qWxVWRll4gsS8jQLAaVDZPLNG3ZtgzSxOe6CN8ipVqZGbygnwgarGWAVmoWrOOHjUpkO764Tcy38hQ8x6nh8N1B0iN5paKMshSXJ/Xheoo8VUQqwXJsi0KGaoeaGXJHKG8mXSpCHHjDqkqXU1IOQwSJlsJU/7CzzgwNRHiPNij/yE1w1aoqovmB3xEVBfQ+OzlyJXQGoWD9keROwndbvsdkmgWlutNQJawiLqnXA/WiaupZkJw6SjiHcvikUyeyB74aqpaeLWfIOUpQXE/Mg0amGbEIPDvizDm7/8HSg+uoXkmoFVUVd7S6HR2rdNBSp4AxfipoudyKlyZkkgNK27kPSEjSAyfD0wo1UFJa/cvYKLSM+JTQI7/wqQdYVNEESvCeUwOsHmaNnijppMiYPCFEOssdPtkqXSVPlD4gVDWVhPaCipaYMznSNIPf2G0qSmyTpcR4yzQxTINtkGONi2A+Z5E895PUmR0P61htUfaMLT5G2TyLSH1tfSF2KM0sVmWWskV6Dgcc5aMQWL2SyGkFlsgzCuaI8l+uHxon78Li62Czw71LKxs7+N/j/+G9NR9g0/EtCHaF0iyoOc2C2sPpdCIlw+3VAj41uU2+rbLzs7SaGOY5kOTZT1TaqJR3KQqGp+Vlq2ZHO2MP4PcdC3Ew8bDk9qlDs6PmQ/SzI7ZplcZqNqr0oTTXzY8SRi4PjtNuRpT/k8KmmRcj+S8wG/ga4zSj0Ao4TaD6KTUjFd/89x1+2DIN7ow0VAutjIvqd0O9cjWQlJZCUjyc6160CDts/W26mFiKa5yBHTZ5O9gxWXq+GlmtMIIcgcigS9h5e1dg2YENSEpPRPWwqri15U3oXqObyLA9A4+FHOpQwshrrYqnFaWzr06JAlQ7X6p5VspGoYBd7b8150eJoCDHLQ/u/x7bhPfXqllQiDMUbas0Q5/aXeF0BCAxI4VsqxmFxxXpEk3SC4aha0RJdRdD6RgrVr4XONeew5S2x7c1DMk8uf+hZTNo6wDCAkOwN+YQft05F/sSjlBeBnrX6onbWwxDuRDv88y7HD9KDXKxY4p0350GB0YRO6IS7KE8Fp2teBFUP6crZC/w/VctkkX2JHWy22YxtuN56JkLZGe7CPogO0h9CacqKtWdgm82/YDvN/2EdBq0q4RXxEV1u6FhuTrynIgfGzPs1ebY2LfDSCo5LS2zG7uGcUcGHr4FI26p2TQsHsPsIZVvpIIcLpFZuH81lu5bj3h3PKoGV8Cw1jehZ61eIuNlM1ewlZFX1VKJ0teI3NXILlXMbchtcb5yea1mITSrUB1RIdTnzANfMufCWeTKgRF4SaXbnYYApxMuCsWBgu/3U1vg9m89sQ3vrfkQ605sRHBAIM6u3Bzn1+4Mp8sp731jG95ug2PW9HAU7eFJryrCZHpB+t3+kFdv1SoqSajZE9FGXbOVCmXIw2CjSZHa3bKxwBKhrmAcTDyKP3Ysxo4Te2nSlI7uNbritlbDUDm0kpb0hikzZ5xaosAohiL8KG3IzU7P/YGRR0cUQI5o3ul5a65QTqa8Gzl2/Dief+55JCcnyeCmbuVkIjQ0FMHBwejcuTN69+qFyKhT/wAyLjYOt91+G9LS0vDJJ5+gXLnC2E+F0jEFQho5mR+3TcW3//2ApPRkVKVBuU+dLmhUvo44IDULyq6enCa+NctRYEkFRXk7+OzsEAzLo6xBDO2UJIvltAlZWmwpmoysMOXzKqcgZyCcDgfNjNZh7p4VMjuqGFoON7UYggtqn2fJ+uFHocB+iJYATPF5cESqtqetIyoh7N9/AG3anIXDh/mX99mjcaPGePPtt9D3oovUUEYbdVXtjWlTp+HyAZfj9ddfx7333pvbyVauYQ6a4sT2uO14e9W78kwo0BGMtlWb4fxaneByuJCckarqQxWzTVosiO/hPlBJL0hbWEfrWo3jmCE0KxNheJaQjoTvkZFcoycwQhRrvn1eq3M8MOJEhLtCcCTxOH7bsUBmR25HGrpU7Yg7Wt+KqmHVWKgMI0vLyxQ8tS+kdhRJd5StPs6lI/I0yO+IChcHDx5Es2bN0LxFC3zx5Zdy/PC7z9zpadj470Z8++13+ObbbxBCsyOO+1/WP8dD7J577sHmzZvx008/yYyquFGYhz7Pgn7aOhnfbvkRiSkpqBxaUVbENalQF4lumgVlpnuV5SlbHbrWgM8bxfJGFr6vEAn4zKSUjD3N2VwSEyqX9x37IbukonnLNNfL3BpUXOW8+F/ZMttAmh0FBjjxz/5/MWfPMnlxarmgSNzcahgurHu+SHmgLJ4Mp5YoTuS9NifVKF2NK1MoDV2XC0fkXcUz1REV1c5iR9S0SVO079Aef/31l+Z649333sOdI0eifv36WLp0KSpVqiQVUsMZQV+R87Mhh9MBp0M/G/KZEvGtnwwKvLKMn1skpyQjIz0DgYEuBAUFsQSFrK1MTk5GerobQcEhCHS5VKny/g82X/i9si1mO95d9x7WH94os6A2lZqhb91ucLgCkMSfaiAZVVOpicBeczPAe7geOaYtJ+UFLSN9aZNRSY+8JpjHsNfBQH4sKGyTx1LGBRkTivKkDXw5/OwoCCcS4/H79gXYHLcTGRlu9KjRFbfzs6OwKlquNCNrK08nnN6tKx5k54j43Q8ap2v38qGTNxRVT/CLHXkw59+UyC/GvaDSI0eMwIABA7B9+3Z89913wuMKffPttzjnnHMwe9ZsGT8DA/n5gpMGqgzcc/c9uJx09u3bJ+Jut1tu1w27eRgOHTpMs6e70bBBA9StWwc9e/XEr7/+qowSTC1iYmIwZswYNGnSBLVq1UGnDh3FWc6cMQPnX3A+lixZoiXzB9/Wch/8uHkyHpw7GhsOb6JBthIGNe6Dyxueg0xHJpK1E1JgbY8FNfAzwSujLRdNsfzcXCglZJyQR1cxeENB2B4nJGoqUmBCeLzhBFHijD1B5HWFtLjlsGVLG5Wr0xqGZ2As8Bu9I0LCcV3zS8gh95BXAs3fuxj3zX0If+7605IsEeiiT14DeyvzghJsVx6Q39aVJMpCz2pHVBa7N7coubZ5DgBFBboC4eBXp3PSVi1Osl8yvun6666XeNbsWRIz9u7Zi7lz52L/fuVsDNihzZkzh5zLL0hO4i+OQt4ysGL5cvz223QMuvJK/Pjjj+jWvRuaNW+OpUuWkv3rsHHjvyLL1XCnuTF0yFA8/fTTiI6OxiUX95UFE4MHD8YH77+PWbNmkaOKFfn8gsvRzcPuuN14bMFT+Gj953AT8+wqLXFTywFoXKEOYtPj1ae7Va9IULq2DrMG/kyZFYaFhyI8PIzazS84Uc5IJLSK6NrUc4TYVbYteYnJ4fBtO8r3MsMJEhd3xDMj/tM8X3izjB01e1JpFTOPf7ybmJGAjjVa4KZW/dGoXD3EJCfgleVv4unFz+Ng4iFWLjF49UGhoWisFhqy2adlBXnuWVtbi6vZNCqWrgOgDO/vLPD0bAB2796NdWvXyUwgPj4OK1euxKpVq7D8n38QFxsrV9H6QhpdunRBREQE/llGeXHKAVi34HzAei6XCw7zNl3m0Z+LZky8KCIoMAhr1qzBD9//gPnz5mH48OGIjYvDd9/q2RZhytQpmDptKi4mB7Rw4UJ89fXX5PTm4OFHHsHkKVNEpjBuy2VmpOOX7dMximZBq46sRcXQCriiyfkY0PhcOAN4Wbb5cSohS3E8ZPPRwYEz+bYj6RxLxuS3f8b3b01DZkKAOHuWE8ehDyYvU6JuOMYeR8auztZsJa+DPEPSGb4yFCSpN1YWEdIm7eQsvo45z7gl444EVImktGREBkfg+paX4KIG3Wl2FIWFB5bgvjkPYMaumSRrSRcPVDWLBcXcslOjGNte4rC1NedmF+4est2aKx0ozv3NXZnv7syj4oQJE9Crdy+cOBFDzmcF2rdrj7PPPhsdOnbE6jWrlZC2GRoWSs4lkBxWPNLT9e2mk3UM5UlbZKDkdCbSadBnvDThRXnOZKp7ySWXSLx5yxaJGT///LPEo0Y9iMhIz9uh77rzTrRtd7bQ/GA+L/Dtnr3x+/Dkkqfx7uoPkEwO5+wqzXFLqwFoWqGu/moqt9M2EKsRXIOHaPVnmLL8OSgY65ZsxKfvfIVJH32Hh4eORWCmi0RIxqabpTZW0mNPIHxKm3wzQ9KRgGObisBSYdegKBYxPBUxR7XAiinLo6diwzGRO8Mt/dWhOs0az+qPhuXrIC4tFa+veBfPLH2OZkcHlaANWrVMQ/VTYeN06JmiR+56qXD3UKlzRMUJNTTkE3lUHDBgIMaOHYcwcjJNmjbBq6++ilcovPTyS2hQv4ES0jZlOKOZk70I80wpp5kJ3/Jz6LcXsygvTKhZswaaNWsuPKMVpX+jZOwlJiZhxYoViIqOQps2bYRnwIsaLrygj9Cn/hpj9ocvl/PLjt9w/7wHsWL/CpQPpllQoz40CzqfZjQuJKalkHFyQnzHkitJZliHb7m5ArVTEbB9VQYvwggKDUamMwMtz2mJGSum4IILz8GWjVuQlJQkugylQfpZ+kzZUVsNuwyTHLTz4H+R5SRDGVYQOYpYTDaspgTtWwUW9Dgr4+j4j28pptM+l+eHRFsyDOLx7Cg8OBzXtbgYF9buhEhHNBbt+wf3zhmF37bPED0Rla0f2cO+L/KCMtCrBa6ix4BXLzG7ILZzqVv4jqjAHXJ64vzzz8O9994jP1zlRQP3338/HqDwIM1CatasSd3m6bjdu/cgISEBVatW0yvcqFv1DMe3f/mgkdty9Gey5ECihCPAaQ3KBr6OLDU1BUeOHEagk2/vZT1RuW4Kp9ixZjamwal9CfsxdvEzeGfVe0hMSUWbKi0xjGZBTSrWRQLNgtyZ1CYnuYo0BzKTM6QdvFCB65x0JBkHNhxCeiLJaAfLVnkpd0RoODYv2oZ53y5G7WrVsXTxP5j08be4f8ydCC8fRrNIqiv9e9WIq+/TPLldZni+zZO0ztR5log4EI5V5GXX6geSsasLrfaRkRDXQbsnPDQM5aPKoUK58jQjjVL7nIW0Y+OYI6fLgRC6kLmgZTeM7Ho1mlRogHh3Mt5c/R6eXvo8DiYcUOIUGFZ9c8Cp8osUVuElWotcwvRoKUaBq5iDAXNA8W7Kz67KZb0K3xEVuENOX/BbEDIyMpHmTpdZix3mpg1jzuw5svKtQ8cONIMKE56+QZcF4sBI1bNijEADl7rOzubosZKqPJ6VhIWHU93cMtOwoMnjx08o4lSQOiglvjrnq/QH5j6EpQdpFhRSHgMbn4craBYUSE4mOSMFIQHBCA0Ikd8MvTbqfQzqOBRJ+5Lkqj+C6vPVW9/j6t43Y8OiTeK82TTPlIJDQnBs1wmMvnUcRt8+FhMeeAtntzob9RvX07MJcmy2dli9yoSwdS0lLZW24O1LOcNmh/LYrsPhRFgI7RNeFm/yKeIiTbHGTzGDTYpZEeCYE+xQMxESEgpXiguzvp6PNx/8gPrhPUx67n/YsXonXM5Ayx6vyouMiMTuVXvw7qOfYtyIl/DLO7/hmsr9cHmzCxAVFImle5fhXurvGTtmKiWCV3OywanyixRW4Z5amG7zI48ojo7j3VSEB0zhO6IzBafY+dll8+0yzjnZ/jx69Cg++ugjoS+++GKJGfwjV0Y6zyJscJNTi4+NI5ueGZG67aaCGcws6MLN5CcyKgKdOnVGbFwsNqzfIDzR1/kzZsyQOIsdG0wW14GvyscufhZvrXmfZj0paF6hIW5udTmaV6ar9/REkLtDeFgEfvj4Z1zR8UYM7HIj/pw+C8ePxOD2K+4jx/IGgkNDkZzM75Oj9qbyMm6qDM8KnAFIjk3F6NvGkkNPxz2jb8OkD77B6JFP4Y6Hb0btxtWRlqpeAmSBVQ1JhHI2LMFuRMUKXlqelFaWLqEZW2JiCub//A/CA0LFObBDkiXk4n08QW1ZmSlNc5ICOyF+Drh7zT7ceMEIPHbXM/j2symYPOkXvP3iJ+RoJsCRTPtTnF2GXChM+/h33HjhCHzxzteY9r8ZeGXcOxhw3jWouC8Mt3e8Bi0rNEFSahLeWPEWnlo4Bnvi90q5ZQm6q3OA6sciQxGbL1KctOMKt2EFsXYyXb8jyi9OftZ4Z5s9wEyiXU6X5QjsWL9+Pa679lr8++8G9OzZE5deeqnOUa/+YfDveuyYPv03bNz0H5wul+ZoSJke52Rgbs0pZ6VwcV/l8Ca8NEF+0GpkJk6ciMWLFwmd07MphsmZtWc27p/7MJYeWo6IwDD5YerVTS+Sr5Xye+L4+5HScEcmIqLDUL1GVdSsUQPhEeGiHxEeKbenEuMTcOn1fTD+ncfQqF19pJIz4qGdHZI7JQ3ValbFiMdvwT3P34Hx747BmtVrUbV2RbTq0QIpaVROpkPkzbMWbqnE9ibo5sulATsSOROUJMM87+Ekc7gn2RE63Zl4Yvg4XN39Fkx+51cgBigXEQ2Xi8pkZyRlaBt6q1IaVAlnoBPx++Jx3+BHcHD3IYx/60nM+O8nTF/zHX5b+T3ufPw2uAPcVLkMBAYFYefy3Xj+kVdRq24tfDv7c/y9eRpeeu9pHD10FI+OeAahaSEY2OZ8XNbwXJQLqUCz0FW0Hx7E1K1Ts1y4lF3Yd14RoIjNlxwKt2EFsXYy3YAa9Vt5nSd2+F/xU7g4ePAAWrVqJbd3evboKT9G5dtJPPgfo5nQ+g0b6Io7EW3btsWUyZNRt149Mwpi7959NHPpKD9QHTVqlLwqaOvWrfjyiy8QFxcnb05gR8ZvZGB0794dO3fuwubNm7xeAcTLsnv3Pkd+IzRp0iThJSenYNCgK8ipTUfbNm1wUd++WLlqpSw3P6t1G/w+4zfMmvU3zjnnXJH3xbHkY/hkw2eYvXseuRon6kXXwsX1u8kLPJPcqcrp0UDvcDkRERKJxOMJCHYEIbpCOXkecsfl92ImzYqmLfkGNVtUx/GY4yhfLgqhIaE4GnsCKUm8rJtAZlxBLlSpVAXxMfGIOxaHclHl4Qp2ITE9AXEJ8XDyc6aMTHmDRHhIuMwSqEoICQhBUkwKAkOcCAgNEFl2NpFhkUhPdCM1yY2wciFIyUxBMjk+dYVGpYrDpkCyTPFqxvk/LcXEt/+Hjev+QzTV84ob+uOKIf1Qo2kVJLpTkEL9ybZlCbnUXDlDBi9KKBcehbef+BhfkI1n3ngMl424DIdiDsJBXtFF9efl+ElJqeyvUT6iHCbc+wa++WIy3v3qZbS/4mzEnYhF1QpVMeHuNzHxw2/w4gdj0eua7shMTkdCaiJ+3z4fm47vQFpGKs6u0hbDW9+GulF1dA24JtKbfpymXVF6m6Vqdoo3K/hR1DC3dw4dOoQff/oRk6dMxtSpU+X218b//kPDhg3l7QYzZ85UToihjyheAffGG6+jXLlovPjiC7j55pvw2muv4oknnkDLli2RRjMBM8tJT09HuttN6Qykk7Ozg52fL0JCgvHll1/gpptuws5du/Dyyy9jz67d+OCDD9CrZw+RCQtTsxZfLDiwiK6++Vf/cxAWGIEL6nTF9c0ukd+/JNCgzENwBo2ogSGBSD6chgn3v4VBnYfiwlZX4O7rH8bm9dusmUp8chzikmIRGR6BKR//jtv6jsLWpTsQGhQsbQsMCkRGvANvPvYhBve+HQPPvgEDOl6PFx96E8d3xyA8PEQ+pxASHoy1izfh7kGjsfjnf3Dw36N4+LqxuLLbENx68f2Y+eXfNMBHIygjBJNe+Q5DL7iT6jQEowePxc7VexAWqm6D2p0Qgyc8/F7APtf1wJd/v4N3v30Zrdu3xBfvfY2B3W7E40PGY/PCHdJ2frbH7ZKZGP2ZeRG/XSMpNhUzp8xG1RqVccFV5yIlNR7RzghEBkXIs6FkcrxyYlK5qSkZWDJ/OaKiI9G0XWMkxpKzzXQiNj4WvfupfbNw1hIEZbIzThYnNqjphbi00bmIDimPVUfWYdS80Zi8ZSpd9PDsqPCGKNWiMozC64pShfw0K2/7svD3fKmeEXHFTqdjJTU1lWY96+VNBvZbXUxXqFAetWrXlh9kZgfTF7v37MXGf9cLr2GjxmhAMyCeCfGnJVq2ai3PknhBBN/ec6eloVXrVnA6PbftYmNjsXHjRlSqVBkNGvDsiYZJbZxvfR04cEBk6pEj5NlKv36X0kzpV7L3r8zCDGLT4vDxuk/JAf1NV+5O1ImsgX4Ne6JiWAWaFag3PHB9eRDmmZD7aBpGXPEQtmzcig49OqBW3RpYvmg5zWBcCIsIxYbVG/HN7I9Qo0U1ckRRmHDnW/jf5z/gtc9fROf+ZyPFnYyMYxm499pHsW7Vv2jRtgVantUEe3buxaI5y1CjTlW8//1riG4QhWCq9x+T5uPJO5/GOX16YP2a/xBGTqpytYpYt/JfGehffX88/vpzHqZPnol2ndrgxLHj2LppB2rUqo4vZr4HVwUnMs1vuKh/1ElCDoU8hFxQ0F8w2eS/bat2YPIXv2La99MRHxePjt3b4+qbLkeXfh2QGpCGAH5XnyAAjmAHDm88gqt63IxLrjgfo8c/gEkffI/1KzeiRr2quGRQX7Tq3QwxCSfkDRmxuxIwsOuNaHt2K7z/+yuIJUfNP/6lbkPykXT0b3s16tavg6/mf4i49Di60lDHVZgzGHEpCZixYyH+O74T7owUtKrYEne3HYk6UbVFpvRDH5glgJIruQAoI5XO4aWn/ltz+YZtxxfPMZD3Uswsye74PFD2Dh0+hG+/+Q5XXjUI1atVV1mEaVN/xoCBl6NTp06YP3+e3JZirDi0Am+veR/7Ew7SgBeOHjXaoVvNNvJqnrSMNJFRtlX55cKj8fL9b+Obz3/CiIeG4danhlF9MuGOT8Nz972KKd/8IrLfzP0E1ZtXQWRoJF665x3879Pv8fqXz6Njv7YICQzB+JGv4qdJP+O+J0Zg8APX0KDuhCM9E79+NgNP3Dse517cEy9+NYZmYOn465uFePyOcWL3sRdG4fJh/WhG5cL8aYtw302PIjAwCI1aNMT4Dx5HzYZV4Ux3YvSwp/HHr7Pw4odj0Ovq7khMSCRtagdPbbj7pLtUn/E/t42fQgWR3XIRFZByNAM/fDAVLz3ziuR9Ov1tNO7cAKnJ+hMWtA+CQ4Ow7JeVuO/Gx9Cjd2fs33cQO7btRkR0OGKOqbdo3PfkSFz/0JVISEnEnlV7cWOf4eh1Xje8PvV5HI09Ciffa3SSi4/JxFXdhpHNYPy0/EskZdAFADk9nnVzLXlRf4gjGGsObcZfexcjJjUOYY5Q3NDsGvRveKk4tAJDd4cfecGZ3Wn+W3OFDduxlPWw4oMtv8hBN29sDb52P/lBz7OoN958Hc2bNkfv3r1x+cAB6NK5CzmmK+X50thx48QJJaUm4L1VH2LM4vE4EH+ErqxrYGjLy9C9VhsaBJPFCXlKUuXyF1WTYtPw569zUKlyRQweeTVd7R/FMRpQk5xJuOvx2xBVzvM2B347BM/ozBpoeVFskBOHdxzBjCl/onnrJhj60HVIdMYjNvkEjqcdR79hF+NsmtUsnL0U+7cfgoNmEhwY517YC1ffNRCx7hM4lnwEHfq0RZUalZGakozHJ4xCtWYVaYCORWpQKi6+oo84kD079sJFg704ca4GN0qqw/M7nnSoG228wCEkLBiRwZHYs34/vnrva0z+ZrI4/Q7d26JyzcpId/MnLNgA6ZA9foaVkqyc9fw5S9C2cxv8tuJHTF3yNT76/nWatVXC68+8i7VzNyCEnFZAhjpF+Uey7gD+kbPuYeon/pFxUFCg3IZ1p/L7+biGamk4FSbPHxPciWhVpSFuaTUQZ1VsgtQMNz6gmezo+U9gX7z3ewvzhZMfWn5kixLuNDmWSxdKiSMqqp4pyR4vyMGWg262s5qTlyQqOQqojKioaPzvq69xxaAraJBMxub//kNKajIGD74eCxYskI/0/Xd8M+6fOxpTd/wGlyMIvWt1wJDml6FCaDTi3Uky+ClrZthVKZfDif1bD+DI4aM4q0NLhFUM4zXoNMwHIDUtFeXrlkPTZmpFIF/NiyYN1p4BFwgKDMTenYeQEJ+EipUqYOvKHdi95AAOrDiCvctpRrF6J8pRG3hRw6FdNGOg2U4ADcKMtp1bISUtmQ50vqfmkOdn/FukiIhIVG9QBYmJlEd8N/EjKqnfbJ04HidVEUdk6uGpDjm5ANIPR3RQFLYs3I6nhr2IAV2vw9svfIQ6TWrh/Z9exbvTXkJk9TD5PZgCa9KWdkia/nFyoxYNMPrVe+Gq5YQ7KhXtL22Dux+9XfL+mjyLZoFBSMtUTkt6xPZ4T6w5yDGyo7YfF7Z6CiiPv3Qb5HBhQKPzcEn9HigfXA4baX8+NP8xbI3ZpgX9OGNgO1xKFp6K5O/WHGuUmsaUHvAgx2/J/m/TJsTGxNDgZgYh6jIa1Hhcs8YM3YeewY4HcoqZpzn2AUYNzJxjtqxLYxENRIbmxQkGrJudjq8lnng4nC5ZQs23mBKTkhFz/Lg8H+IFCnxFfzTmCGbVXEQzh+OoGlIVlzc8F5XDyyOR3xHHZep6ytZjXOjg4CD8O3czbh14DwZefynGfvwwDh8/JjODdBLkpc8PX/MU/v5tLv43+2NUb1kNUWFReOWed/DVJ9/ijYkvoNeV3THzf3/jkWFjtOGc8f4Pr6HTZe0x4/O/8OjwcXjkhfsw8I5LkJDIt9moPukhGHLBCBzeewTTVn4FRNDMgZoQHBKMfxdswm3978GNI6/F3c/djrjEGGoCX6tRg3SbHIH8olU3Fk5fiJ8m/oz1qzchMjoSlw/uh8tv7Ic6zWsgJT0JSbzSj3S4a9TqOWUiLDIM875bhIdvHYOrhvbH6Pfux9Fjx8gwzR5p5ndiYywG9bgRHbq1w0d/v4E1c9dh6IUj5Nbcq9Oew4mY47Jv+S0Y6THAwK5DEB0VgR+XfU4XBIlmIilleXaF3lIUFRyFE0kn8PmGaTiSeASX1e+Hu9reIfl+nAkwR0bJwXNrzlMP/zOiAkPt2Hnz5+OF55+XTybw+85ON3S6oxtqXlUH4elh6FilFTpUbiYDYmKmemN2dmBuYHAgdv6zGzf0HY7LruqLZz99EodjDosu/+6mXHg5PHzlE/j7j/niiGq0qI6I0Ai8fO9b+N+nP4gj6nlVV8yZvBj3X/cILu5/AfpdczHSUvm5C5dAAzKNsOyP0zPS0LRzY1SpVxl/fz0fj94+BqOeuRNX3zWAnEqCVCjEzY7oDhzedxQ/r/oWmRFpyKAZWgjNkjZoRzTkrutw9/hbERPPPxQmNfYmtJ/5NmFabCZuOPd20j+MJi0b4eohV6B3/66Iqh6JJHLMKSlpcnEgCxREjyI5w/h2Hr8jLwRrZq7Bndc+jAHX98MTHzwoz324LbyoI2ZbPAZ1u0FuNX7051vYtXYXruw5RGaT7//2uqwq5NmRw+VA4v4U9G9/rcysJs56H7EpccZtSpnq0RZt5DZeAEKcQdgesxdz9izH/oTDdKGUgue6jkObKt7vGPTDA3V2+1GYKDOOyL7zy8KB8Mabb8pvezJpRtShQwf5DY95RpEFfFnKg7BE3q1jSl88a4Lzs8fJ+iVrHg9H6vmGAuVKBVTK8HOyJ/okFNWpApaE/yNvBK8RVhUX1euKOuWq0wCslmkrSbZnaLrKd9KAeSQFV3S+AfUa1JMVaTEZJ2RwZwdSPqg8hp1/B9at2Yiv53yEms3ZEYXj5fvexv8++RFvfjkBXa7sgE0LtuCGPrejLzmi16eMx0FyZq4Al1VnXjTAq8ySE1MQGhSCWd8vIEc0FqPGjcTV91xBjiheKhecHoSbz78TB8mR/LyaHFFYuixp5yXs6+ZvxPDL78fQe67DXc+SI4rjz3PwsK/bQ4N54vFkvPHw+7jypgE4q0dLZAZnIj4pAZlkgyWlQiIuLkDaKX0tKYIzAKnH0mS5eJWqFfH17E8Q64qDk/Y3/0Zq35oDuP7c29DzvM7UzueRFJ+CwT1ux9HDxzF50ZdwVnLK76R4xrr6z39x17WjMPDGS/HYmw8gJkF9ToQroPY4g5ysMwSp7jTM2r0Uq4/8R/srEfXL1cddre9Aq0otSELPxr1gq3OhoLDtFSPKcNVLI/wzoiLAjD9moN/F/eS9Ye+++678UJQH39MSGcDqQ2vw7r8fY2fcLoQGBNPVdDOcW6ejrMDiD7p5nbGaDA+MwO1978Ga5esxcfoHaNa7EeISElA+MhqLJi/DyOsfFLn/kSOqwY4onGZEvGruk+/x5sQJaHfpWQhIBIaeOwJ79u7Hd399jqqtKsubw5008PIzJF5csHfHAURViUJYGDmi7+Zj9O3j8OA4mhHdOxCxCcoRhWSEkCO6C/v3HqAZ0TdARLoM7MHBPCP6j2ZE9+Kmu6/FneNvE0dE3occDJ0i5Cj4NiQ7iwpRFRDADjY5SS2sIIgT4uDgQZ3EiR9Pzo9vvVqDPNHp5NGjQ6Lw2NBn8OfPs/H51HfR6oJm5CgTUYFmh+88/jE+fO1zjBozElc+0B+BCMarD7yLr6kvXv3iWZx7TU+qVwwqRlTE40OexbTvf8ObX7yIDpe1RRL1B3kiKUrVxoHQwGBsPb4HM7YvwJHkY+BPx1/W4BJc3/Q6hLvUM7Hs4R99Sw9yvy/Kwl7LzhGVyRFTnfolDx6Yxj8zXp4Nvf3O2xgy5EblhApSQdY1+r52TmJXLroNTiKXPZQCb71V6VrZzqBBtk21s/BazxdxRYPLkEZ/Sw+sxWdrp2BX7D4a2EJh3gTOujyLkkmfKwM33nmtmHhsxNNY8O0yJO9OwS8fzsTzj7wiq+kY1oIHfpavC+ardQc5AWe4A3eMvhnJCcm487oH8fekeYjfl4gTO2Ix//vFeOT6p/HgtU8hxKHeXG3qTfMdRWjQOEzlqMUCvPhaxQTtUAT8WxyZkep5hdCUon2bkRSA98Z+jlcfeg9vP/YR3n38I7xHzuMdit98lHijP8Qbj7yPT5//imS1bQvsGgLk7Q233j8EQcFBeGTEWMyaNB+Ju5Pwyfiv8PGbE1G9VlX0vaYPklNSkJiShGtvuxKh4WF46dG3qK3LEbM9Hh8887k4obM7n4UOfckJkVM0TogbH0T9wKnfty/Et//9hoNJh1A3qhae6/Y0bmt5yymcEEPbKjR494QfeUHu90Xe9hrvk5LcL6Z8Ou/9M6K8gzuMdzh/ZbV9+/bo3LmzrC6Tz4DnCcZS2cSaw2vwxqp3sC9+PwJdQehQtTXOq91JlhWnuPk1N0qOXwoaERSBr1/5Du+9/Km86dvg0adHYdXS1fjtlz8x8c/3ULdNLYQFReK1h9/FVx98h1cnPocul7aX2U90aCR+nfgnXh/3Lk4ci6GuowLk6M1EpSoVMfSu6zBoxGUICAzAH9/MxVN3PIt7nrwdg0ddJTMwvm0V7A7CkPPvkJesfr/kc7iiybm4eUYUhHXz/sPwgfdhyPCrcfeE4YiJj6W9Q65Dt4MdUfLRFFzT9WYkJSQhwEWOihyvqgJtSY7l3W5+H15lfPHH+3BEEpP9nQgROEkXMNER0Zj30yI8M+plHD92XGcCteuTs/hwDBq1qyszLpaPDI3Awl+WYcxdz3l9sr3ZWU3w8ufjEFk7Au4UtUycbx+GOmgWdGIPft+xAIeTjtCM0YWBDS7HdY2vRrArRHTL9pHnR1mGZ0bkgd8RFQB/zPwDF150IZ548gk88/QzmntmwAxkcWlx+HzDF5ix/Q8ab12oGl4JF9fvTlff1eTZUQavOaaRXAZfGlD3bT6M5XNWyW2kjhe0Q8PWDXBg1wFkpmUgonIYMvi3mgEuuOPdSIxNQVjFIDiC1Pvj+FtFkeGRiD+YhOXzV2L31t0IjwpDy/YtUa9JLQRHB6p3yJEzSE/NRNLRZIRGB8EVRs5G15ptJx7hW2pARJUQ8MfoZNbGE9k0IOFwEkIiAhEUFaRej0SNNAM2+xonCSaf4NcpSbMoT+dSJB/EI768RsmRgfAKIXATzfa5CAssRgYiIiMQfyABi2csw8F9R1C/aV10PK8NnFFOJLKjI3vmWVpUWDhi9yZg0cx/cOjAYTRqVR8dzmuN9OBMpNLMidvMs0Hu59m7/sGyA+uRTFOyphXqY2TrkWhewfNWDAbXR9fcDz+KFX5HVMjgd8T17dsX77//PoYPH665Zyb+ObgM76z9GPvjDyGMrrrbVWuJnjXPJtfE3x/Sz47IKfFbwvl5Gg+CPICm0OyB30DEb8zOcKuv0vINOlns4cxEBjkoXoEmN+3on1fa8cwzJDBQbPHBm0Y20txu+cyGOAZi8syAf++TSTbVD2TZMjsA8hHEp4mMkudnPypHnBHP5sTpUVDPfXSedjLsVXhmxLf1lBPiGZO+hSkiRGSonIx0vgXIs2SVaayJHCnwb4B4gUVocLA4HDe1IZmdN9VZymZHROJsmx0Mr6rjmRv/SDiDZpV8647YIhPuDMGuuAOYsWsh9sUdRKAzUG6fXt30KoQ61UtvdRX98KNEkZ0jyuu9pBzBB/mZCh5AznR0qNoRb/Z+GRfX64Pk9GQs3L0cE9dPw8GEI4hwhcoPWOWxvzsdSfEJSKDA/carxZDGDkM/H6KtDL7pbmSmsqMQlvgBdhn8vIh/EMvfK2IbCfGJSOU3FRCP7Ys8gxwJOzEexD0ryeiA5w07Gi6PbJnBmYM8G2I+T2gUxwMjSBvRdXNMbHZ0lM6k8jPTSIh/f0qzIHZk3GJ2UtwiL2tcJ86lcjLT0pFIbUiIi5d34PHXH7ivLA2R5Vki2SKbqYkpSIpNREpSKqUd8okNfpP537uX4KsNv2JPzH7UiqiB8V3HYmiLIZYTYrAdbsbpAm5LUbandPRVbmtRtvdsoTkirxMtVyjbHSeQAY4gl8N+RAZG4t62I/FMlydRO6oGXZnvx6R/f8Xs3f/Ip8gDHTyDUX0mAy07FS/kdBQZflZ53gXiXHgXcCDa7BY7jIgHSsESJSUvNU54MlVkK0NmPhZsmkKKgAK30Zbtga1sga18TVhOlSBFS5pLZiIAYYEhOJJwHF+u/wXz9q5EakYyLqvfF6/3ellecKqkvaFM+3LLJrgtHIqqNdb+KFHkthalo7a5h9l7qt6F5ogs5PqoKGsd54FvE7OMp2cguE9Mv7Sv2g6v0+xoUOMBNEFIxZx9y2iw/BlHko4hItBcoZN0Nv0mg6zws2b69ruAmGrWQ7QZuZlnCG1GzUt0vkBlCIfJrFliV+1bzjRBR1yglrP4lh2dzhEq3+u4MbTEKmG3whwO3I5AR6DMhBbsXomJG37Brtg9qBpaGU91fgJ30oVAWKBnRZwx643suWUVp1drzkTwvYPCxhlwVJgmWk31eyLdF+panUOoKxS3tBqG8d2eRq3w6tgRtwtf0qA5b88KhLhC5BmGL1hbzZQ0w0DPOL0cCRdo63ZrUmoTkd0iGWTXyHrp6VmITUdAaXFuRNpnJcKxOTsrMjIUSw94MQk2UkFXgvk6j/WUGm01zzNHMjE/CwpDTGI8viDH/ufuRUhMT0TfehfgDXL8Xap30lK5gy6m1KG01suPokPhO6ISQIkduNbo5l2DM+FEyq6NPHDqIVbAMmdVbIVXe01Av/oXIyk9CX/uXIwv103DsaQYWdRgpO16PqM/pVWO3MwygixCwUvSllAaWpj1fUzKCjcllC2yZhmOt556OwaDYw6caYIHPsV7oM9Afl7FGtJGTnvpZ8IV4JQ3JCzcuxqfbpiCnXF7UCm0PJ7sNBr3nn23vEPOXpPcwLuGpQeltV6lDr47Oq8HQBbkW9EL+bFyWjii4j5wrY42hOWQFM6EEynnNnoOQ57BcCoiMAL3tLkTT3R4BBWDy2F7zG66op+GRTSohrqCEEiDrNJSVvlTEIo0tmy5TFrTH+LZKsJqkq3VvXyEQAtTWmZXmi+1tNvRsRgQvs40MizANMe6MK6zODcNZlvyPhA1RWp4UmbWp/QVzT8UjklLwFebfsXMvQuRTA793Nrd8XrPV9CteheRYZjicii2bMO7w/xg+O7oAh8AhXPk5MfKaeGICg25PNg9Ha0UCmf3nS6w94b3dX33Gt3wxjmvoGfNrkhIS8TMXYvw9b+/IT4tCeHOUBrMySXofSC0pe3d4x4+y2mCYPwGx/pGF0FRZiuRiUlYlSKEsBSbt0SzN9AFyFaRlhwvJZeYZIxjU7qKlmBBJXjL5VktELaVImg6Q/2eit+QsOTAGkzcMBVbj+9EhaBIPNLhATzS7iFUoBmRvSC1LQoUneVcw95FJYhS0BOlBLnridxKlT1HVARHAo81YraAB3sRVK14UIwVrxhaAY93Go1RZ9+NSFcYttDg+um6qfjnwHqE0ZU/f7/IAx7ovSvHu8jspuyqbfajlxPTpK9jUz5G05riYGY27FTMLTzLOWm+UiaHopXEnSk1AitoJ6UYnKtj5nlaJb6OCUuX0sTgd8TFpMThfxun4/cdi+Sz312qdsArvV5Ar5o9tCSDFT22iwZFZ7loYXq58FBWeyIvyF2v5a4ncitV9hyRvl1RmNBjTa7hWwOTPqmNwq92VuSjDFHJS+MLAVxmn7rn4/XeE9CpWjvEu2Mxfed8fPPfb0hMS0Y4PzvSFeM/e7MUrTlmv9nqLyRlc2z0ArTT8HA4VrMYo6pi7SKMGHOVqKIZOk/eeqDzOEd+1Co5GnJvzdLShFIQkjYizxtmUMyk0+EihxyM5QfXY+L6n7E1dieigsNwPznuMZ2fQLXQaiTu3Sd+5ASr908vFPHOL4leK4O35kr+4MpXDYqj2vkoI1/VKuCJYMqsHl5dBtd7296F6OAIbDq2HZ+vp9kRDcKhvLKOBmXlirxhis9Sd2J4qqYpLyFKiPdQTI8bMtKqNLsK05xn7KpZj9HXgZwOB4/DU1tFaV3ZeLhcDZMSmvT5h7/xNPP5auNv+HX7PMS649C1emf5XVCfOueLni/ErB9nFuQQOr32vP8ZUX5wpp/9aiwtFPDM4qI6ffBarwnoWL09YlJj8PvW+fh24+9yOyo00POSTgGVzcVL2jDJAdjzFa0rKQnlXERPz1SEZ0gNzlK6ljXLjCXKWZyg2OhbeSbDB4ZrcuwS7Lt4RRzflly6f518OXXT8R0IDwrHfbLAYzSqhlbR0h6YMj1llxSytteP4kDJ7vnC3ut+R5QfZDkG/CdjQcC9V4UG23E0O+JbUOHBYdh0Yge+WDcNS/etlS+L8mDNcjKh0TvA9Lr1fIYYaqahcnx3k+IaLaI8pMiaWYrHGCc4YkFPmiGqtDEnkGgoZd5oiBRt7XMvDzg3LDAY8e4kTPr3F3lbdmzKCXSs2hZv934FfeteKJ/VKN3waZlqsh+nObI7ngsCvyPKB8y5xqulGPl+1OY/aQV8UJuevLDOBXiz1yvoXq0L4tzxmLFjIb76j2ZHqQmIpFmDuXHGW48e7wtNaHDSypM/llfbrFCSMiPiIEkmaKuyiNR6HNnMMKlFhFCzKs8MTYkqYd4KTUxeERfhDMbKQxvx2bop2ByzS17Zc2fr2/FM16eynQUVKqxKFw2K2LwfBUUp20GlxxGVpSM3S13zWXk9mJ3p4N4zXcF0lfAqeLzzw3iw/b0oFxqFrcdpdrR+GhbsX40gMzuyulxpsz5Tiq1SxibHJt/+mN/wFEWwDHhkPBSBElwu89iOx90Qj0yIFevixOQqaTv4NlxCSiK+Jgc7ffs8cbjtq5yF13q9iMsaXkbSZfj6UDfVu8V+lDpk2UGeYzl3YPm86uSM0nPEl6Ej1/NswbvS1m4pvP1z2sO3qzw9GoDzap2DN3q+hB7V+XdH8fJWhkkbfkFsarx6K4MosxOyD/oqNrMQhuEqDm1pBxp5xbM7FY49ukzarfG+F23yPBaPN+SAlKbiKmtMe9JOh1OWZfOKuC/WT8XGY9ukHfeeNQLjujyJmhE1RbZYYCrvhx+CvB4QnmO7MOC/NVcQ+OwHSfqMY0UBNciVLAqrDtkfzh63UDG0Ih7v9Agebj8KUcER2Ba7W353tPTAOoQFhiKQf3dEwmKHvATHyr0oC8Y9KFo7IHIaiqO2WtvaGq6Bx22ZjUdP3Yrz1hOKmRTMrT1+O0JSajK+3jAdv9EsKMYdg+41OuONXi+jb92L4KRZXuFDF+6HHydFyR8npd4R5aaLirsbTXlm4DHPigSGmRfksQH5KaKwUTR18PSsr/3etXrSoP0SevNbGdIT8MfORfjq318Rl5KI0CB+2zRpaHWlayxwrDKMQzGwUkT4lmeB8ozbMrBbEUdD2ebZkIFpAf9AN9QRghUHNpIDnYKNx7cjjOrL74d7otOjqBZeTeSKBjm2yo8Cwn4MnBS5FixJlPxxUuodUW66qLi70RrQdMEFPta8GlAmjtwiwsn3ZOXQyni0wyN44Ox7ER4Ugs00qPNbqFce3IBQV7DMKuzXBEKKSbXHjENRtOESTWxFKSiH4nErplYiTwlOKwkNZuuCLT4J8W23uNQk/G/j7/hl+xzEpsWiW42OeItXxNXpQyLGsh9lDbnec7kStI6k0osirqL/1lw+YF0h651TuMOJf3A6FS6sfR5e7/kSOlZtT4N7jNzq+va/35GcniLLodUXWTVoH3HKBF8Yp8N5imI5JZ2dvAhoGB0lyPJKg2dBvCBh+eEN+GLDNGyM2Yqo4HA82O5ePNXxcVQNq2I348cZj2yPtNKFIq7imeOIiuLM1zbtA19ui/EPRLkH95Vvf/EtrXFdn8LIVrfJwL/x2HZ8tnYK1h3egghXmMyOeK/4nj+Gx7Mb5X5MiuFTEpGGY3EDzEzJM2MyBDuiMGcoktNS8e2mGfh9O/8uKAY9q3eRJennkwP1cpJ+aFg96ccZijPHEeXy/M/dKWGGIgXzjIi3uR1m/MNR7qFcRVYw77KGl+KVHi/grIrNEUOD/rRts/HD5j/hznQjxBmsBBk2A7yfvOdA9mwPxbfs7BAdzTSzHyPCji/EFYzVhzbi0/VTsOHoZvld0D1tR+Lxjo+gclglLangY/oMh783yjrUWZR/+G/N+eBUp4R0uNXrhvAelHxR0J1UlCjNdcst6kfXw3Pdn8ZtLW9GYIADqw79i09odvTf8R3y/jYHz0Kooaqtnltu6maaSin/ouQMPHJ2GBfmEeT34qW4U/H9fzPxy465OJEagw5VzsZr3Sfg4noX+WdBfpz2KOgR7ndEeQR3eNaB5eTDeWkehkpb3U7ekzmD31QwsPEATOj5PJpVaITDiUfx4+Y/MGXb38ggo8E0O7KcDgXTbp7MMi2r33ThNlLyDM1gN8Rp5rvgRLgrHOuPbMFnPAs6thlBrkAMb3ELxnV+EjUiq4uON+zW8oeCW/Ajb33o7/Giht8RFQh6OLMdpx6ybB+8WWtfPO0xDuJUyK42zGsY3QATuj+Hoc2uJzcRgOX7eXb0E7Yc34XwQDU7Mr/tEVCBZsGCSXueGKkcUyeOFZ2JEEcw0tLd+GHTTEzdMgtHU4+hTeXWeK3nBAxsdJn8eFVJ+sJY80ZWuZyRvQU/8oK89aGvdF72lh+5gd8R5QNZDkPbceohy/ZwkbX2xd+ek53u2dXG8Pg1QIObX4uXejwns6MjSUfxA8+Otvwlz/P4WY7YJgXWUTMlrU0Z6uab4qtFDSqXKSedMvzjVH5D9ifrJ2PNkf9kscRtLYZhfNenUSeilugaaKunRG7l/CgNKOjeOtmRfWaiQI7I350G/mGkKJC1V/N2xDUu3xgTyBkNaT4YDjrSVx3ehI9pdrTx6DZEBUYgEC65NcdWZcEJF6iD5+4rv/lNMUMcIcjMSMfUbbPx/eY/cTT5GFpVbIFXej6PKxsNhDMXb8o+WQs8eSeTOgmkIYr0w4PS1yXWwVUmUBz9VyBHVLa6s/DheaPCmXP2F2dLs5aV2yPOo8mzo+ubXoMJ3Z5D0/INaXZ0DD9tmYXvNs1EsjsV/DVUFmfHo9wNBeOdNPiZIP84dcuJnfh4/RQsP7gOQeTZbm05FM93H4cG0fW1pAdG3WZGkF0LjIwnLzupXMA0wA8vnGld4nvMFRTF0X9l9NZcYXd13mB2jLlqPpNWRRVnS/NflrcmHy1NyjdSz45aXIdARwDWHf4Pn66fjLVHtyAsKEQWO8hRRapmQQKDb+Ol0yxo2ha1LPxA4mG0rtCKZkETcFXjQWQrUGQ9R6SiTA1y04b8t1PBU7YfZQFFvb8KejyVBMqoIyrZrs7VgeQfHUoNzNHCnx6/rgk/O3oezSo1xrGUE+Jgvt04A4npyfISVfVcKACB9Mcr4jYe3Y5P107G8kPr4CL9ka1vx4s9npEl4wZs3+O6iv7YlJJsx1dZHHgUStFJkpeq5KPadpWyu7+KDvlyRKXo8MkVCru+5kDiAStbcIH+o63UomG5Bnix27O4tcVN8vbu/45txedrpmLZ/vUIdgSLQ0pIS8L35KB+3PwXDiYfQVtZEfcCBjbqLz9ezYri2+FSkimurJ2MXihFJ0leqpKPapeilpZK5MsRlbVOLbL65mTYf9SVUphRO5McUBCubDwQb5zzMtpUbIW41BjM3D5flmMv3b8On677CWuP/odQVxDuPmsEnuv2NOpG1dH6pQj+Y82PkkYhXAyV0VtzpQNFdTFapi9ySzXsi7EVakfUwvjuT+OetneiYlh57MQBzIn5B/GOBPSu2RNv9XwJ/Rv0gyMXK+J8Udz70X/c+FEiKISLoVLhiMrsCaQrrga3woP/IrfokPV2aqY4mYvqXShv9E6fl4RtP2zE3bVG4tFOD6JaZA0tl3cU9348aXl+L1UAcOf5O7AoUSocUZkdeHXFy2z9T1Pkbcjw7L1yIeVw+JeDWPnmctR0V9Xc0wTFfZCeZCeU1iE953px550eZ3lp7fuSd0SltWfyBE83quacFo0qIpTuvjG1833zth95xPT/OB4AAOAESURBVEn6r7R27Zmwy7NrY2k4I0veEZXhve/kn+tz7PR0o2oOb0vZgMvVKRVVKvodnvcSPB1j3WY1L6QryT4rFfvLj6w4vXZMaRiCS94RlSH8u3Ej5sydiyWLl2D16lVYt26d8Ldt24p169dj+T/LMX/+fGzatIm4pWH32sDVKWVVKj3wdEyp+m2yT11yGv78/qq44T+RCht+R5QHHDl8GJf264devXqha9dueOihh4T/2muvo0unzujRozsuvPBCHDx4UPgFRaENMP6RKv/I15iT1w7PnXzWqii9sjYs+g9HP3zhd0Q+yOkkYX7Pnj1x87BhSE1LRVJSMjLS0+V1/xnpGUhITERySgqGDhkqcoWBLANMfs/gHEcq/5CQEwo2M1LK3Lu56+H8FlagSpYYymat/ShKlBJHVHoGxJxOEsN/dPRo1KvHr3fJpMFKdZ9611wmatSogUcfe0x4RYL8nsE5dm8RDgll3MdZ77PNRUP2HziAlStWyq3Z5SuWY8eOHfJCXOndfPZDOl3kpKWlSezHaYYyfm4UBYrJEZ2q520DYrHvpLwVWL16dTz66KMqQYON+WM8+NCDqFOntpUuNShCf5MjSqLMIkHODdm/fz9uv+12tG7dGu3at0OHjh3QoX0HtGrZClcMHIgtmzfne2b1zTf/Q/PmzfHb9N8059TwHHWl7Pgr6yjs7jxtzo3CQwEcUV72Th56vlh2kr3ueS/wpptuQq/evZCemSHpjIwMdOrUCcOH3yHpHN9BdzIU9sHuH4tygWw6KZe7LikpCVdffRU++vgj1K1TBy+//Aref/8DvPvuuzjn3HMwZepU9B9wOfbs3aM1ckZ2u+rAwYPYunUrjp84rjkGOe9YT9WL5SQ6c+DvziJHARyR2Ts+JwYncz5Xihc51iO3R5Yy4GsmKCgIT497WmJ2Qg6HA2PGjEFYaKiWyAEn65ccqpSrrsxOKFt7ubJWJsAtKXhrTnIcnGIqM2XqFMyfvwAX9e2L+QsWYNSoB+hC5HaMGDECv/zyC54a8xT+3fAvXn/tDa2RM7IradCgq/D3rL/Rp08fzTE4eb1yRt566/Q5UvwoCyiEW3M+JwYn83uuFDYKXA9lIDszvXv3loULjOuuH4xLLrlE6JMiH/XJlUqu7eajAqUQPEhyS/LamlwNrrkcgXm2wujVoydCQ0KEFmj92269DV26dKGZzX5k6JmzHfv27cXixYuxbNkynDhxQnj2ouvWrY1zzzkXVasU1hse8tZbp8eRUtjI5cHhR55RJM+IMt1uZCQmITMpBRkUMpM5TlWBaMM3eSqovAyK03WcqXUklnxFG3mJ2Q7nGXsmsI0UI6t5iZ48VR7b0zwTjIyEbOwmJSMzIRlITsPoBx5CiybN8MRDDwNpaSrPJq90uQ4cVJ5VtrbtkVd1ySA56QedlvpInex11TZTiBZZY8M7ZPDKPqZ1+1WZFBIV3/ZEPg8o+ZMxv4Mk6+W29qaMnOTNS1B37NwhsQX+ISz916pVC4sWLcKkiZOsRS2MLVu2YODAK9CiRSt07dpVbunyM6bXXnvNa398+813aNyoEX77fbrm+JFf5HafnxpZj7zCs31mI6BG/VY59uW65fNQvnw5nTo10vYcRPwnU5G6ciPSk9IQ4KITUFYPBSCTb3WYlUR69/F5F+DQO1cSLKdJ/qOTmmlHpgMZjgz1Y3cSYD5fYwaQH82kq021QknbYXssx0kOTBNIUsmyJA8Mmk/GxaZi6GUGtFGDB+cxg0kqkeW4TixOyaAgFw7HxKNy1cpITyPH4E6XW3WiQ3IiJvXlmrINyUAGf86GxNTH1BRPAjdQWLocTtA/t437ST5NzvmyUTKiQvLSB06HWBI5zqAEV1vdZZINZ1IdeSVWAFy1qiHy5ssQ0r2NZGmJXEGqQciLzsmgW1Ti6N69OxYuXIjVq1fjrLPOyrFeS/9ZhnNoVpxCTn7EHXfgpptvRqvWrRASbJsd+SAmJha9evbE+g3rcc/dd6N9hw5ISEjAW2+/jXVr1+KHH37AoEGDRJafNd15552YOHEibrjhBuH5UYwoLQdkHpBjlUtZW44fj0GrdufolELBHZFupHvLLhy67Rmk7jwMZ0QYnGF8QtIoyJkZevBmYXFIuldEV+U5ZDDlLN6w4yA14rNkABPad0i2jKw8CLMA6dNoq5yLcjQsyBJKQ1wAMsnhyMDP5SgOpZlmedLnmB0h5Qgtddc06wSowVvqSE6BrXKZgWFBcHP7WIZmYJDltqRFalIbZVDXWUgpT2Toj5tGDGojuUrpC9Yh+1qfy1aaqtacR35ZpZkWvmqLFGrAbeF2SfksR3nsrIjK4FcSUT3TT8STgw9AxWduQ9RVFym9MxzGEa1avQptzlIOOid8/vnnGP3oozh44IA8J2xIM5huXbuhV6+eOP/881GnTh3qes8+mTFzJgYOGICRI0fi5Zdf1lxg2bJ/aGbUEbfddhs+/PBD4b33/vsYOWIEviRHdKPfEflxGqFoHJHGoVufRvLslQjp1hoVrrsAjsgwGknVoCyDJo+DMliaJA+hasAWPkvSQCnjpqR43FTOgBkyAGtaNjKoKmhLimIhts8isqE8ibWTYuhCOCUkK0mCyhC+yhQ281lK/nlDMjSOiw4JqToqQdFjklWYywSXzxzK98zclLyS9LRZKM1XfUF/bJcFNFRdSYbF1IagBERWKILUj0EcmU0RKeUrOUbignWI+fovIDgAVae+hsAalYV/JsOaEa1ahbPanNwRMfbt249pU6fgp8mT8c/y5Th+7JjwwyMiaKY0HOPGjUNYWLjwkpKTkZqSgsjISHFcBkePHkXt2nVwzTVX47PPPhMeO6Thw4fTjOhLmhHdKDw/fMDHtHXA+1FWkJ0j8pwNuYEMZoq0w71zH1KW/wdnzUqoOOJyuMpHwMGrySiPb4nxDSMOTtJ10rjNd6YkzTHNJpw68F0y4dGAKTTNOJwkycFBg6eTg7GjbSq+yqet0qErfr6HL7Imz+FUeSxPg4DiU0w05zkCKJCe4uv66ZmPlMM6DpfYdkk5ZI94LqeLQiBcnMdlOMkO26NYyZA086QsVYZJO9g+86VMbZNtc5laXpXlCVwP9afrxm1jPv05yfPxzNJBfazytQz3L+0H6TNuP8UcIi/tirBereA+EoO0f9aTZD6QzfGQI/IiW0Iwz3NMVdVlQs6oUaM67qCZy0ya7axfuw5//vUX7rvvPoQGB8uSbl5FZ8CLGo4dPYbx48fL86HGjZqgadNmNBvqjKSkRDkuDAJo32tKx35kQYG6pgwcjMWBUtIN6qzLNajW2ez89Jh4efAfWKsKnMGBAN+ikktwI0y0dYVOYNoESatICC85DrSRSYeJOYMhmSqigVbxdSy0Tyx2NYNpk/aiJZM3CsJnUDukDKoAs+zyHDjP1M3YY54RkIhjCiKraXsQORNs8tnlSZpjirKzZ/I5GAjNfA5UWX6WRVfoQU3rSNJ94KiI5Rl5GQwKNHAUE6T/CFZdT15p1d2yQXVySuefd54sPPjt9xmoVKkyvvrqa3nrAmP27DnoQg7oqaeeQmpqKmrWqonq1aqhWlW1Ms5eknU3wI8iQlk4GIsBxdkN+tTKDnlzRHQ17QVjmK7yZdEBX00Kj2mOKZGlcM2w5IxsdiAhzjP3piTWtMqgoGUEhtByVlLraLbALmogcpQhcrSRWDJ4o2GjRYaC1QZOU8Q0B0vUImyyNpi0b8zwpe1pLlqT3nKUsKcZpgocW9UhIaq/zAL0TKDwYGtzGYJVa7mvmrUbGenkxJ977jmaCd2Bw4cPqf4mSVkkotGhQ3t06dJZXtFz+Mhh4T3//HM4dOggvvzySyxfvpwc0yzMnjMbP//yM0JDQ71e52O7yepHaUSZObxzrqjtcC0enOSQLtjoow3zrSF+hqOem2jIycmxtSHY84nmpO/MwYJXwgdGR0NIzfNqrI0nMgSm7TK+tDgWTZs81rXTVqxlmWY9oytpCnZwe8WGLYNJY9fApO18S87XqIbpS6EpMG10fFUsu6yjglxDOK2MQkJh2ysemMNW+jQbSLfS8f7777/jg/c/wGb55IeCZ2GC0nW70yR2BQYiOSlZPg/Cr+3xXQXHTonf1GCHf0ZUylEmDm85WhWZDazDtRSgkC6D6araDMQGmlSRjW+Be8GH79sxnG2CV6aPoDHlZS4bGYbUUSeMvF3UoomQq+KTyIoMR7QRUd4wQ6cN7P3CMEkjo1UEVpnEkD7VSYa+SldleYJagqDTxo6BnWfP0+Uwi0lftTMWuitNh/j2C2ez477++uslPe7ppxFzIkZoDwLw2/Tp+HvWLFSsUFF+DxQY6JJFCnt275bfEhmkkbN6/bXXhebniwa+h4wffuQd5mAuJpzymM1ZoFAcEZs3Y6S03dZ+IXmAFiEdBMSzy9rraGiTLzLEtGQMYVPKIsexLd+QlrNgWkWStER9mFmujE2a8ygy4haI4XupIWkK2qTALqKzBVIeBeOQLDmLIBBtbFEbJYc3nObYiHLaDuFrppGRfcM2DOMMh8zQCbo7svSKzh46dKi8TeOPP/6Ql53yK36++OILvPH6G7jqyqtw9TXXIDUlFY+MfgS1a9eG0+VC3759ERcfL07sxx9/xE+Tf0LvXr1x4MB+WchgVtwxrN/XFQN8DxM/8oky1pGFXt1THrI5CxTAEdmawaQMZtocn8z2MtkhcFqCyfDRt8PS1YRXvi+P0kz72mDIIKtpO+w8Q1tlMsNKZNX38rgaZkphZO027XybigXJ1wJGzsDIC9+eqWnJt5Ut5RFhaDskj4PJYDlhqF1i6mBDVk5+UDhWihvGMduf+wh09/EznW+++QaPPPIwEpOS5OOI/DLc++6/D1OnTZVbcN98+428kd3g8cefkNtya9auxZVXXolBVwwSB/TJJ5+gGcnv278fcXFxIhsRHoFy5cojPFwt/S5KmCPijEZhHKZlrCNLU3Xz/zsi1tItSV23BQevfhShZzdDpVFXAfGJlEdOSSwbQV2MTc+wrOxT9Ux2MnYbFoxBHZk8Q9t17DwjZ+ArzzAydhsMuwzDbtNXX9ImU8NGCixdTchMiWJLjQhxKhbDBqOjSYZdx/BDgxC3eD2Ovf4dyj9+M6JuGchCZzR69OiBBQsWYNWqVWiTi98RMeLjE7By5QocOXJEbq81bNQQTZs0hYtmQdZvx6T/qdspzW9R2LJ1q3y/qn379jJbSklOlsUK7OB4ib7b7UZqWhqCAoPIjueWnR9+lHUU/HdEdugTi6F+OKrGNskwMwTZsKCV6dGTLErobEvW6Fox57GQJ/LiMbz4DCbsOjZZhiRJxteO0bfsEAzNYj5mvGDy7HK+8pxme76yJm0v15IlwtAMM8szDoU3HNtvIfrqMCyHxrRwiNa7n2yVtVtz9qadGnmQtvpGx74zomwQEREuX+UdOHAg+vfvj5YtWooTYsgCBrGlfpHE6dZnnSWynTt3FjnODqGZEc9+AsgJsRzz+W3ufidUyMjDoeBHfpC/Di7ArTkP+ESSwCdtlhOX00aCwEnDMoRk00Z0OXCaYuFTMDZ1ZPE4zTTD5JmYCaYlaKboKVLKE2g5A6btcgx72pfPYKfACV89377gpNExhCVChNG3q5m09I9msJzIapohdTgFfOtDtqxusIiygbzV1uokHZ8MWsb0Z04F5caUF3Ln6lnGS+4U5eS5GoWNEq9AHpGbneBHAZC/Di4UR8RHIy82NeOxQAY9SsiBShvmm4PWa9DTTC2eLYTPG5uAr6zJ5sBl2wdpX1kuy5TnK+Mla0swaauj17jPTtMqk4UIEpEQxyJrFHTMkcnjmA2atBaxYGTskLTWscNyWDZY9jiPgtRRCWXSrEhYkipZ+Fa78HHqVmatg9LJwj+FqYK0xUv3FOUU+n7La8ULvQIlh4Lss7KI0tTeQnJEdLXn5YUI4myoqZbTYZoiMwhm1wvM8zHjAevblOyeIIstysvpCt+wOTZ6dp4B03an4lOGiNp5Ii+brHyJiclBHBalOXAexwwjZ/IY2pyVzgl2p2unGZa+ZkodmLYLaZYQOi4B2GtUgtVQsB9rBO/eOjXyKm9HQXQLjBItvGRxpjW9NLW3AI7IdqLSAOw1kPFgaOVzrDOFZWu+XczAzsuSz4kAmn2p++iqTKLsPeo1KFOw8uxCDErb5STWDJO2oBl2E5rFb9LjbuS3b1t62chJzDJmgLOKMoaIIlJWaUlgphbiyAQ7LB5ttBkB0xw4z8QMExtIfiYCaDprqfvKlBBKvBpeB3ThovAt+pEf+PdDDiiBjimAI7INFVRxGdNMC+yjiLBsLfNtpFL0huFxbGibDL8slH9nwQNots7DDORZbGtZnrmwjIFmW8JWmsC0mV3ZbWlemsuBuKAgpAUGMlN4AtFTZLZ1YF6GXvLOD6SDghEQHIgAfsht1c+m6JW08e2wFe9FG3EvNUrotOrCHGyeCbA13ZD8zavCQHZW7LsmNyjMPVOYtso68rofzhiUQMcU0q05O/hQ55bo1tgb5UubtD22y9gh/AAkULwp9gR2pybTAM7V16cW55uzzG7D0HbHw/B1LqbaAiZMYFDM8py05IkID8OHM39B1fO7441ffwIiw73tGVrMUEJi2rCuk+perhxigl1YH3MCy/fvxqpDB7ExIQEx5NhQoQK1j2JTb9ElSJISXmmCpG2yTHJg2sh6xZ4Mwz5jYesAz5ICFZvuzS8Ko29zZSOXFRVbBW2UH34UMgrHEfHRTQO1WjXHDPuR7nMaSdKHx+I+LEkz35jid2/RrGPFzm1o1q8P7nhuHBAdrX48a2RYR2YTFMSeMFQwjkdlaB3D51hFeqPAV8WS5DJ0OSZb5AMQn5KCpMQEnEhI4qmayuNMy4wURGnOI2Y6tSM8Ensz0/HAW6+izaD+aEXt6TDocpw94BK07Hsu2lxxKYa/8DRW7N0lMyVtQdnkwAyLyTAJLpdoTlqyOs3gWIKNwf1K6QDzRoEzCqZDPODPdDDkS7sE45hKfe+oauYOeZH1w49iwEkcUV6OVr4pZ05Vo3eKU9eeLSrZlGdYJp8G/nSHej9aijudX86l8jgw0wywRk8gGZqk2O64BCZBSvy5VBm4dZBbfxxk47FreG432jVojGGXDkDHRo2pUilahgUMtJJxEDRrmrd9I3pcdyVe+/QjBAW68NjwkXhj3Hi8PnYcnrzrHlSsVBEf/u8rvPTJB0BIsHLwdph6eJWj7ZtMk8VJS54gNG+8bcrXYPOBnLTyZ614wd26du06rFixAqvXrMb6DRuQSBcVjM2bN+Pff//FmjVrsGzZMiQkxAs/TyiGTigL/exH6UFpPV5ycET2kSsXoNYpDd8Rj4LvIJojSC47Ua+q8PWpYZCwXMXrtESattthmj8yFh4G8FsiOERG0OzKRXmUyflSRw7keXhWQ4M/oiJJtrzcPkNkFBAcokSs8ilOSkafdp3xyWtv4/LuvYHkVJVl5FiUA8/Q2MnR1fZeGtCGPnAfduzdiwdvHY7VP/6M8SPvwz39BuDeywZh7LDhWPbVd5j8/kdo2qAROTtyuGIvGwifNmZWp5MWmOayfXkCj7x6RqTTJ4HdjIFoZZNxamslD/5xKb/zjd9ucHabtjirdWusWrmK+A5ce+21aNWylbxdYdSDD3q9kDTXKIZOKAv97EfxI7tzlVFaj5dsHFE+qkontHq2SxtLnRn2tB058TXUyKigaTFv11MMAhGWs6NMJlmG2eyoIiOxN92N13+ejDteeR7DX30OY7/6AhtOHCNHE63kJZCS04WDGRn4ZfUKPPrZR7jztRcxksLDH7+LuVv/Q0Y5kucVEqYOwcFYtXMrXv7oXSz5bz2l+ZmOzpMKqEh1DgVygG9/PQnb9+7BgAsvxov3jUJoQiLAdYmPo0BX3TGxcBw7gQFtO+Kxm25FZlKipzuMPQuUYZyQlCNM79jQBlZaK/C+U9QpkaNMbpRLKe6//35yOC1Vt9KGnRMH7nSe5fMXeMeMeQqhIaFKwI/Sj1xf/J6+KGun5EluzeUF6sacuqvOFHeDCacAi8txQxsW51FXeTUNonWWxKoQpWKBcoWhuZoOiIrAj4sXoN2gS3H/uKfwxfff46uffsS4Vyeg3cB+eGbi5zTjoZmPSJNSdAQGPzYKlw2/Ba9/8C6+/OE7fP79d3iZ6N43XIuH33odGeEkz/a5QuR4Zv3zDx6a8Bx+WbqY34QplgRGhiFtCkBCcjK+++0XYd0/7BY4+J18Iq7yBfzWZX6elJKMoKQkMSEDI0MSihRFodmAneaI05pvTkqjp5NWrPmW2UKAMV0WEB0djbHjxgkt3UyVt7qK+u6GGwbj/PPO15zC7CU/igzmfDmDUFTnXHGdy4XiiHjMk10vgx9R1nFAaWkJMbJrkRaXwIO1pLMRFHvE97rS0YqGJTK22BmIDfv347bHHsbh48fx9jPPYe+8Rdjz13x8/8EniAgLw1Mvv4ivZs0GwiOo2AxkJqegfeuz8NUb72Dbn3Ow44852Pv3fKya+js6t22HVz75AN8tnMevRlblUnDod4oJfAd9BtPsXEhuy/598oblGlWroWWdep5nSiJvGkKx1Y9WpgbRVj/Z+Fwu87Sa2ujAcsJjGCEKkk2xtUjBEiowCsuSqpmpX9Fh0KBBGDDgcvnyqkFGZjqqVK6CJ58aozl++FF6UXhnrzdyb7dg56mPI8pfc3hsZFXrMxBmoNMzASvNG6u+nEcRpw3PnjZB9AjaViYP6gyJSMDKp8A0x4ywUHzw7Vc4HnMC9998C+688lpUSEhGuZRUXNmjF14Z+7SIvf3lJ0hhPZ6FJKXgxdtG4vruvVA9KAwV4UJ5MnpW40Z44sEHRH763zOBoEAqR5dtmiwDvhhSaYaui3xtkxzRrsOHkOxOQ+NatRAZRLMnywmY2A7m2fiSpI3l9TnNIfsys4+NrEc+9zfmih+qVsVTtzFjxiAqKoqcUbraX4R77r0HDRrUF9qPMgxzDvhRamFzRPYTnvdcXvaeWsnmMUa2mCFX9nY7RFvFEC0yOhiYtAzqBKNuDfQKUpYZ+HUk0DKprgDMWDRf6Gsuvhzgr2hyfXgwP3IMl3XpKVe8a/7dgIP8jMbpomzKS89EKs2mVh46iEX7dmLRrm1YumEt0okfSDKbdu1GKi8gYJi6EeTWHqe5eHGahuaINwFITlOLGcJCQhBk/QaKhMSZ6CQHL2gZLaJgEmyXIhME2oBd3rJpz9NK3F9ShE3Bki/F4DoWYj3btj0b9957r9AZdBy0adsGd911l6T9KDrkaRfmd3/bDm0/igoF62TtOwq6p9SooJ4UaeTGpJFhByCxigSG5wXmWUpE2mSYNNkUkpNTER8XJ6/Xr165kiy1tmToijfC6US9mrWQmJKM3UcOU0+QUkQ4Fuzciu5Dr0X7/hei26D+6HbVFeh8xQAMGHoj0tLdSEtLo4GKr5hNPVSsfC5tpA4c63yJaEM6Ya5gYe0/dhSJqSmKLwoa7Ay0mjdsMgKdtjsPhqR9bDLsYibb6l/aa74XDD5mSyVMU08Jn744Ce6/7340b9JM6DFPjZHnR7nX9iM/yNOhdiph/84qs9COyHcP5vos19DyZvBleJn0sZWlOB89Dr4qzJM7JkqZX45j6Rl5DnpJdyoN9OnuNPnIGDK0E2JoFf7uS6i8locmQTTbgTMImw4cxKCRt2H1v+tx1023YOKrb+KbN9/F9+99gI9fewPBgcHqOQJXRtuxYJyIcY52J8kZqWloXLsWokPDsHX3bhxnR+QUBSUiMet4eNJmY8ZkMQzf5GWBFvTN5zoanuW0PGZPT+S+deUrlMcV916Jbtf1wEWX9hXe6d03pxlKYmfleA76kRdoR8Q46ch2cmiHYH2PyDJjjgwfu8LO5qhhlgmsYk8zw/BNJCM1wTaoqjcYAOHhIQiiQZ9nMO6MdGqpTZ9kUiixbe8+ckbBqFmuvCzF/uSXKTh45AgeHn4n3nxiHG7ocQ6u6dwDV3btia6t2yIjnRwbleV5gwTB6kEyzvbZWXKePfCGZmT1qlRD44aNEBcfjz8WLQLCIiiL8qzqy4ZAsxRyqJwSdaYsJ8K0MO3iyo4SzgrD55h1OGheJtWf36qQ5ZPYBjnZPC3gadyO2J0YvegJrGnwH6oPb4B75z2I+XsX6tz8dEPuNU7rLj7dYc5BPwoEHoY0mQfwmWMfuDTtvZCAQXzfs0x0DeGJhLAPpsYGpymop1BMmDIoDuA3K3DMwfAoJjuhjiB0anWWOKJ5q1eqH6XqRzuIiMC6nduwe99u1K5RE1UqViBmBuISEyW7fqMGwLEYgNNJFGjmNGPuHKTRbEge7uuqmLIEfLtOkzIb4jyheUNp+g8i2duuuU7YvCT8aEqqLKoQ8ExO2s+6DgRERCKRbGYQbbkkY8uiFSm0SZuYYefZZRgWj3rW9GF2yIF9eoDf5J6Oydun4v65D+OfA6tQDpGo5I7Arph9eHbZC3h+2QQcTDwk3cBdnXvkvuNO6y72w49TwrPMTSMvp4S3rKSsQdna6AybLJN2nsmSgVAnzBnPsSVLQQZMlelOS5XbWwcpfYCGE44VnY4DDnIKyakYOugqkR3/1lvYfPQwULUqhSo4mJ6Mh158VvKGXHkVIvlNCu4UNK5dV3hzFyxARmQYUKkShQpYtXUTXv3wXcmTTwDq6vBGPv+gSApcP4rttygFlOaeTkjA0Esuw4U9e2H9lk0YePftWLF/J9z8Q1l+jlWuHDIrlschF/D61O9x18svIINf8SPTLLtNX/sEKZP6xncfCJv5mid8G9g0wfw+60zCvvgDeGzBGHyw+mOkZrjRtlJL3NZqEG6lcGG9rggPDMfsPXNx15z78OuO32VFnR82+B5LfviRT2hHxKNVNoNbTsgirpYpCMtcWZtYDlZ9xJoD1/A4NoFht2t4DPvgqpc8L1iyGHW6d0LDS/qgUd/z0bDvBWh48QWod9H5aD3gUvy7dzcu7dwND91yOzZt34oeV12Oax+5D9c9NgpdB/TH/CVL0Kdnb9x9zfVAbJy8rueGiy9ByyZN8OX336L74Ctxw9jHcem9d6LzoAFo1+ZsRIVHIoFmSRkyINHITTMWnnExsr21xW1htmSphgUnJeGz8RNw+QUXYt6KZWR7EHrecB2uefRBDH7qUfS78w40pjbc/+w4pDsDEMj9KPrZ2LfD9JvV/yTPzonVLJ4OplJU5wCZ5WXFKUorE7C3wYumdk/fMYNmQQ9h1eF1KBdcHv0bnYurm/UBnJmIT49Hj5ptcUvLAWhesTGSUlPx5sr3MHr+Y9gWs0NbKQB09xc2in2fZXfg+OFHnpEJZ2T5qmN1KgtGDr8ZoaEhOpUz0g8dQ8J3f8JVvSLCu7UC0tyewY9hSI75bLGn7bGcSeZ0IqbhM/RAH5eajM27d6FxvXqoXa0aatEsh+M6FOpWrS5x7cpVcdk556MCGTivWy80b9EC+/YfwoKV/2Dzjh2oUaUSHrjtdrx430OI4vfDyQ8ZM+kKOBB9zr8AsfHx+GftKqzf9B/SUtMweuRdeOyOO7B6/QbUq1UHl5PNQPZFLgf2Hz+G3fv2oW/3nmjDP1LVjklgtY/qzjT3CTnSSJcLV/brj3at28hKvDU04/pv6xZs3r5dyj6/Wzc8NeJuPHj9ULiSeXWd1reDu8OLp/uNyxC+LdN3X8jsiUKQEym7DyJpyQaE9j4bwe3UijGGTaPMwt4GQ++N34eXV7yOH7dNQxpdTDQv3wBXNb0IdSOrIdGdRBxyztRfaTRDCnEFo22VpqgQUg4HE49hZ+xezNo7i3ZhOpqUb0y73/Zj5rxAuj/LDiwwim+fFX7dSx3OgCYaWE0tpjYn05j27gef65RCQI36rbn4bLFu+VyU55eEZoF3jVPXb8XBqx5F8NmNUOWBawH+JILkk5yXKKcpkU1j2c8IW6tlkeEH6vwXGITM0DA46ETm50Zys0R0tQLNUviK10EOJoAdIs/5IiKQHuBEUiYNPTTI8IcVggNoEImLVWUZ8HMeckYZYWHgX/y4QkMRQI7CyUu/Y+ORHhIig5SDnxuJ76L6BFN9mE8yAcnUbp6xZdM+gS6L2yGv7aF2ZAYFIiktlepFmfTvpP4JcQWKPXk+JR3jY1DsaGO+hUmSbWk+R0aUEzIAEjgKD0H8gjU49vr3KP/4METeOkDllSFwM3x6IFvwkvs/9vyFz9ZPxImkGEQHR+LcOp3QtnJzpGakIZ2ci3SzGKQ9ZPqMYl7QkpiWgr92LcGqgxvJgaWhablGGNH6NrSo2FwLngy5raUffpz+OH48Bq3anaNTCj7PiHILn5NKD5SODDZHtP288xpEieYk55vAoFik7KImz4BVyZaDnIszLgYBseREYuPg5BAXB4cJ8QlwJiaSA6GZiVkpl0A80okgflRCIoL5HW98O86AZTjwW7rTM8jRJGPbli0Y9fij+PHnqeqt2jRrciYlwcGfCdC3B7n3AsiJOMihBVCeNXr51t2A+0L+acMySQkIOHECYYlJiEhIpvolI5TogFi1UELM2fuP08aRC1/n2UhVNiVM2kAckGRSRLE4OHGJQuvFhmUO9mbq1hFsbSXsTzyAsUuexesr3kZ8SiKaV2qIW1oNpNlOMySlJ9HFDM/g2flwf6iusUAFJLlTaPbjwIBG52Jwi0tRPbwKNsVsw8MLnsCHaz9FfJr6dISCd9kKaqmNH2UX/v2XPQqrXwpp+KHq0Nmrvmmjg1VDi/CQPHqYEcSWLbQ9bYcM4hTE1xkDmidpDUMKz9Y8Top9XYCZGVh8QxCcDmw5fgRv/vQtlu3cTjOqMMVnmPJYXDYURE3rngz2EY5VxamIIQ/EpOJ7ZbGu8LUNjky+MStpSnDa8KxY60qaaRWzSV7Cbc2gChGm6OKCpwVMBcgs59ft03Hf7Aex9MByRAdFkTM5B9c2uRghgaHiYCxY7VfOyGZMkE79H5eWiHrlqosT6179bDq6nPhx60+4f85DWHlwpZZkp5O1L7NyPCjufvIj7zjZ/ssrTqf9XVj9UjiOiHtWBklO6NgMmCrhIRm+WYbP8E0zjLy1B0lAy/D4LON7dnqS5g0LcWQEfIRlxNfGmUxJwfmtzsYVF16C/fv3I4NvNYq4GCHaJmvXs0MqxrFKesHIWjpM+DJt+hzsdZS0IiVhsnS2d/0MiCfOiEhr3xBLOo+XiHt4hQWv4gsNXM9T13VP3D6MXfw03lrzPhLcSWhVsSlubTkIrSs1RQLPgshJWXYk0rTuIq8idJ9xlOJOpQlxJi6u3x1Dml+GmhE1sTfhAJ5YPAZvrXoHsalxeW53XuXPKJx6V5c5+Pd3VhSOIzI9yweNDMDEMIO+HEg+RxNnZXeAZcfntPBt9swgTyzL/9n1hCauDLJZMlRsbEigjTZv+OHp6fjuuQn4aPQTCOC3ZLOc5OvAG6seXBbzNNiWOA4fZMMS2OtprxdDbFEQnmZaaUl5YgFl5sS3GCyj5Zgtb4uQjDIArjAHD7jqpvr8wtJft/+GUXMewdL9q1AhuCIGNjwfVze5AMGBQeKUlLaloWMNTvoWYQognnoWmYl4mh3ViKqMW1tdgV412yPIGY6ft/2Oe2eNwtKD/7CWRlG4+JKGblGWhpmOKkTY90MucPr19ZmBPDkir52c6z2uBc3AJ7SOGWbgtSM7OdtVvByc5gDNUdc3Q4PZ2WVZejrOSIczPh6hKWmyxNkLxgYHGZe0kpWWVM51ZDDPi68T4llN8LAF2Tk3qxCGETY8m7IvS/qTguYbP19ksFWlMMFmueoc9ifux5jFz9As6D0kZCShbZXmGNZqAFpUakCzoGS4M93Zd6GG7pGc60p8divybj6yk5KehtTMVFn0cGOLfqgXXQeHko/RTOxZvLbyLcSkxJCStYzmNIJuUZaGESMXB1JCQiKOHjuGRF6MI8ipwz04tYTC6dfX+UFue6vgKKyS8uSIvHayPWFqI2c5JayznWKLZL6hdcx69pFB0tkEOzhtyvOF4Vu6zLAJ+9rzzWfYZYSmjV2HYZdhGNo3ZtOWrE85BhbbrmSChq+qSRsVC3aGj5IkKd9Lh3+Qy1HhTIxPiix1LRywWV4RN51mQffPeZhmI8tpFhSNgY3Ox8Am58sb05PTeQ2krkCWevAzHe4EdetNZVNa+kUS2YCcC+VLNsW87LtqeEUMbXUZziOnFOIMw/QdM3Hv3FFYdGCJaJwMXJQ9Lo347bffcOMNN+L2227DLbfcgluGDaNwC+65+x589PFHWL58OU2s6YItxz7zYPjw4ejSuQu2bt2mOadWyoVZPywUX28VVkn5XL7tDbV8+zGEtGmEyqOupkueFF1DH9OcZH52JVp8LWRaaHQEPsq+dnh08LoiozQ7EvstLd5w0ogZWo3IzPHkeYHys7vaE5YY0EHL2EgBpxmmjuIEc5D1hdFlsJzUQzOztJkgSW3Urmtg1MODEbdwLY6/9j3KPXEzom4ZKNmFAV16kWN/wn68u+YDLD30DwIdIWhZsSEurNMV4UFh5CCSqQ5UC+kjEjYV4n1Nx4XXYeELYko2i6pIYrluov5Wqmrr0Q9AqCsEhxKOYsbOhdgWu4ckMnBBrXNwc4uhqBBSXsuVPbz00kt4+OGHdSorXC4X+l1yCd55913UrFlTczWk81QP7tq1Gy1btsDll1+OSZMmqWzaEdZXiE8Ksxd8kAObcZKsYkLJ16C0oRCXb/uCOpr725zZkvCB2R8i45MvfB1bCZuMRRJhaI5ZVHQMvBKU1M2TWQ0FHrCNnrHFtMSGsIGTJhjbOhKmneZ2GfsMk2fSBsZpMN/K07oGhm9kOEuyWU7HBnY9Qxo9m5inrgTbPhA2bWScKETYiysK8AD/y/bp8o64ZQdXokJQBZkFDWp8AVw0C0oiJyR7nxpmtU03W5yTxDnUUzNZz+SbWHYzEzZFTquQKc+gyodFYXDzfuhbtzvCXeHklGbhntkPyOuCRFdkCxGFauzkuObaa/D3rFmYPn06zZJ+x4wZM/DShAlo1LARpk6bhn79+uHQwUNaWkP6SnXY3r170LVrV4wfr16xxcjRCWVpVzZyLOPDZpZRzcFyMaLka1CoKKJjrZAcEdXOwffOudMpmL73rTSfxXYZkSOer5xxGnawjJGTgZRjFVmwp426paNjA06zjJeOVhKeLcPYsqpkETYQj9lm1OOIg7Epkc4TWvOZxzJ2PZPFMQedZdnKCUaO4VUuwbLBwWNH2JTMLKEfEtmrnFvsS9iHpxaPw9ur30dcahLaVmqO21pfiRYVGyAhTb0dwbRbulXabAsMHXO2CQLmS0JxZGvTE5KNmmNQQ3YhbTif38qQnJ6CTtVbYViLy9Ewug6Op8bgxeWvYvyS53Ek6YgxVzgoVGPZwzzpql+vPs495xxcfPHF6Nv3Ilx44YV48KGHsGDhAlxE9OrVq/HMs8+ILCMlOQUb/v0X27dvl87s1KkTfv/9d9StWw/Hjx3H+g0bEMO/CdQ4cOAg1q1bj7jYOKSkpmDBgnn49NNPsXDhQiQnJ2spG6haiYmJ+Ouvv/HKK6/gzz//ErmE+Dis27BeyvCjEFFoxxob8hgrlNFHTNJBJlc2bFHOUWEwYQOlOc+wRc4mI2kG8ZhtZI2IRdPG0JYOQfJsMWeKDG04NsGUK7E2YGjOF2hBK03Qoopvy2C+FpeyTNquyzA8e76Xw+UMe6xhdCw2ETLCaobdhC8sHV/oCnB+Bg8zOQoWKU5WdV/ws6DfdszEfXMfoVnQKpQLKYeBDc7FlY37IIifBcnvgqgtetrCLZJgERQ8kRSuyrf98ocyhaaY5ZjmYHQ4VjRtLSVKCVNLUcRUYloyooIjcFPzS3Ghnh0t3L8Ed897AL/vnKkErW0ph26rWu6fFRUqVMDb77yDyKgofDlxInbv3i38rdu2omWLFrj6qqvFhtPpVN8II3z3ww9o1bIl/vzjD0kzXnzxBbRu3YpsfIlLL70UPXr0kmdS3bt3F+e3b98+LamwjRxcnz59cMEF5+Mhcoh9+lyAS/tdgi+/mIjWLVvhxx9+1JJ+lC7wcWSOpSxv384nyJ4coHLG0kYOWkkw4SnPFywiQeuKHsHIGxMcTB6DnYCdb4KvnIG5LObIDtGjjcSaYbfBsf3Es/MtUMIrbWD0dCyRFpTIpmSJGls6zxpBNZht5VMwzlBEaGPlE4ya4UkfEDgyeQx+rRGXw3Fhw15OAbE/fj/GLRmPN9e8gySaBbUs3xg302yjVdVGiE1PQBq/HUEg69o0fQpoMdNlCvJ+dWKSQ9N9J4e2l0lOcIZKGfgeKnxhlpbpRmJmCrpUb42hrfqjQbm6iKUr+NdXvoOxi57DwcTDXuX7mCxxmPoY5+F7G83e140aNcIlffsiNiYG8+erz/Qb+UzflacEc/FjbDOCg9VXjJ966imkp6fjo48/xieffIKuXbpg9uzZePnllyWfkUIznyE3DpHZ0t133yMLJviWIb+IeMJLE0TGFZTP9wEWB4poZxfLMVRohajjo1AckToYKdgHOwOmzbFrYi1uyZlZBINl2I4939KTTCYkqWCnfWBsSLDJ2c0YtomtsjhoQbuMCRYoYXjGrknY5YRPsHhEZEtrWGltx1ffV94aICjDkAItaJyc3Q6zKJZbqr72fNP5gSmrAOBj6zeaPdw/72F5O0JkYDQubdgbVza9UN4Bx29H8B0cVcM06QtqF4tLNm1UM40wpzRNpO91gAXrgoFgYjt8eDzfTHAno1xwJG5ocQkuatAVUUGRWHxwKc3uHsDMXX9SWd41KS1ISkrCtGk/Y9XKVZLesGEDfvrpJ0ycOAnf04yGXwrMMPVv1LixxLt27ZJYtZ77K7uhRrXWPssy7T/77HZyC+9Wmg0NGzYMb771lvDZ2Rjw86kFC+ZjwOUD8Oabb5DO2TJr+umnyQgKCtJSpRhFtLOL5Rgq5EIKaUakb23IwO0D30GCk8LKRtaAj0tLjmCOU0lTwiufNpJPsZRlCxJxrGmGscWQfEUqUILzjYzJ5+CrZ4ESdhkOps12nhESni1fSE1otqcszbBkPJFXbGgG2zb6zLen7TB55hDIbj+VMA4mHMS4pePxxup3EZ+WhGblG2BYq8txVuWm8gwmnWdx0g6rkz2w9YG9KUZcqfBxawQ5ppQlr49p3iiGJ2bY1eywywgUg7fuDDc5zlR0qtYaN7e8HI2i6yAuNRGvrnwLzy9/EUeTjopsVvgWUnw4cfw4brhhMCZOmkhtCCCnNA2DBg3CkCE3YgzNWpJTzHMb1c6I8AiJeTZjoA73rG2wDjlbVoB2WDcOuUGciZlxtTmrDerVr4djVB/zrGjR4sUSX33tNRKr/ZqJSpUq4Sq+FSi8kus7P3KPgjkivY9lIkRHmyTV0aCCPjit2BoUKeaS7QO2JoUQWjPtTkTgkxZ7DCIsvmaatCnTgp0mWDYInMVB6mdjGD43Vupk+EaZ057IsqnFdCephKWjYWQMLB0OhrDpeCU5oWH6imPra7nM07RABDRJQ0uQk4hM9RuQUgJ2ML/v4mdBo7Bo/zJEB0bh0vq9cE3zvgh3hZIT4mXZDNqafjDHnx0sRExxLkzbxBVMhgIPep5d4+FbSjZlbzseCN8r07yDkSn1x8vKI4PCaHZ0KS6o2xURzgjM3btIfnfEK+uywlaXYkalyhUxZ84cjLhjhNT9+uuvx+LFi/D333/j888/R1ioeg+j6cbUVPX+PvsMjx3YyRyCclTe4JWPDJlNcUzHs4OclNjR8v/9t0niju07SMx1MLPjVq1aSnySYvMENlNIpk4TFLQ3eD/pHUkomCPSdgKiwhAQGgj3geN0JeQGAukgUkeFkuGYB0Yuje8Hc5rbYfI4MOzyEpvAaSZ0mm1JmgLTTp1mlnFwTBsd41SEr3nMMGkJzKJKSb4tSEQbGdg5zbGG9J7mM4yMnTb2hdZtzzawiKZN+zgwOBK+Td+S0XkcGHZdKY/zDV/rm/4KdSFtxwHFijz1d6dOijwelzmJ7084gGeWPIc3Vrwr355qXq4hhtHsoU3VZnIbzi3viGN9jwWmOFAzPOAEMQ1PZDwqHlg8lszGmQk8pWXJ9yqUQAJmYDWyRoQHSdktRKdSO5JoVtel+lkY2vIy1I+qjePJ8Xhx+St4acXrOJ5yQikVE7JrN/OCAoPlllfDRg2FV6dOHXTu3AXnnnuurIAzDsPArIALNLfGuL2mA3KA3UlZPe2jxFzmcDDiZtblcMqJ6AXPMy2JCgxTth8G+e8N+7lrkHUP5gY+dlz1aiK4dSOk7T6Eox9NhzsuSb77w1eCGRnqajs9neL0DArpcgDxiyMpqfI4kM10khWadSjNMqJvaLpSljQdf4rP+cRzM48Cx24ug+W0rOja5Km+fPhyLIHrYWipj5YzehT4Cl3qTwmus6onpbkenE+6EqQdSjedBIWWdnOgNrspSB/kFFhO01yG4enyJE2xapuWo3wuV/i2NNdX5Ll9VluY1vYojvtlCRJnroQzOhwhXdpQCwqAPB6X2Yn/xl9Nncdvyv5HnqFcWr8nBje9BGHypmwzC6KGMCShaCa98jjWpOEwvMu052QDIyxi5rrcZkMuWig7GzNqVmVbiaeRnSwvN48OicTQZv1xTp0OCHOF4e9ds2k2+CAW7jv1WxkKC751Zdh5HmehY5O2CSUkJmD6b9OF7kxOisF6cqyebDFMdh3jw+JLBMMys9aGDRpIvGN71q/mnojh1ysRCssT+SKbKvuRf+ThzQoslvNOTVm3GUfvGA/3nhNwRIXDGR6iDh1tnQ9Dh+gzV52kvJUDTA5E4vBBwxkcM0ueAbCMmtrTIS205JkDjGj5XYcoUlKzhS86PAugBJ0MatpOtmwy1lGtTagUlSIE1VCXI+ULTRksR0bEi7MgGxQxc0VttYwFhebYwBJnsIgQSoP5HkkfQekLAnWL1Qb2MMRnHdkKnzbUd2LRpNm23NqgywPqC05nHk+knZKJ6NE3Iurmgn0UT5WfFYafUz7jYOIhvL/6QywhB+SkK+zG5euib91uiA6OQmJ6kpZiGEsKkvJm5QyznzROrWZqbJfUPMOimHer6f3cwG5NgY8S2lO0D8OcwTiQcAS/bp2PvXGHaN+k4/za5+DmlkNRPrickbRr0VYhd6XnH+bNCo8+OhrPPfe85nrj1ddexagHRqFVq1by/CYiPBy7du5Eq7Nao2aNmli7dq28gcHgjhEj8cH77+Gbb7/FNVerZzqjR4/Giy++iEmTvsLgwdcLj+F2u9GsWTOEhoRi6bIlCA0Nw2effSYLGe688y68/bZazMDgc5WXdP/1119y+3Do0KE6xxu532u5R1HYPN1w7PgJtG53nk4p5GFGlFP3qlMhuFVjVP76eUTefDECG9cEyoUjoHwkAipSqBQFZwWKK0TAQbGzYhTxo4mmmIKjEtGVKZCcg/Ic5VkuQuQ4OMgG5zkrlac0yTGP7HDsZB3S5zICRJf4HFinssp3UhnOyuWUDMuzLtenEsWir4PYi1blcpr0uf7MZ1mxRfkuqkMgy3B50gayxW3lOpcnJ0y0qTvLso60kW2LfWVT2lSF7FUpBxe138nlSblGnuWUrCpL65GcxGxb2hgJF+txED6VTzYCWI7tUprryPtE6k594apSHiHntkGljx4vkBM61UBo+Nnl81XyzJ1/4N45o7Dw0DJE0cygH82Crm56EUKCQuRzDd6g0syFg4E9aS+EaXvhPnI+VgRePHMBIlyTQzy7LYpFimWV+CmhVI0BhnYtNHjyyrqKIeVwU+v+6F23A0IcodQ/f8v3jhbtX2IkBYbOZbEnhb02pwJ/5pkXCxw9cgRHjx7FEQpLli7Ffffei8dGPwpXYCBeIEfCTohRp25dnHVWG2zcuBG/Tf9NeIyZM2bg66/UK37kYkojp7qY/SCxFho4cAAaN26Ed999Bx98+CFiY2Nx4NAhjBr1IObOnScyAbal4b4oWN9lX9PC2B/5R069V7rAx679goRRKO+aywK+BeVOkytwAe+dHEuhTLmsZAGqIie9+IbmWKfNLF/yGEwoLesSWQYSzRMYPkVqouXJZcKWbRieC2gWtjIJWtgHwjVsSzYnqDIUfIQt87QRMWLY+0Kg9NWVsR2iSGAdihzUpxTLrNNLlfjBgSpdpJDCFGnDwcSD+GDtx1i4bxGcjiA0Klcb/Rr0RlRwpNyG8+hxXDCIFW2KY32oUSL7uplipWQjb4fON7BsMtM6sHjDgkbYpDUMW20oIobm8ewoNDAE++IPY8b2Bdgdt4+YmbiwzvnyzrqooChfa0UOMyMKpguE4GB+/kNHHtWTbznzmw34+CpXrpwso77xxiFKSWPixIkYMmQIQsPC0O+SfkhISJBl123btiWHMVfeOTd48GCR5R+l8m+F+EexN95wg/AY/Nugpk2b0kwoFP8sWya2GH/88Yes6jt06DDCiOemmRP/num6667Hk08+gS+++ELK9qP0gN8117ZTH9lXBs7I8lXHajoLRg6/mXZ8Ph5i01VIAHm8AJdTBaeOTxqUPFjWBObbaZM2dH6C1ocvXwfmk7vOMf9kIW86tv7xDQVqI9v17vsc21os8B4u2XHy72bGL30BW2N2oDzNAC6u1xPn1+tKh00AUt2p1pjM0GNztoOuXB9ThjPQJQ+n+VmEyPGGHYIBk3q8t3EJnpRvGUZdxVrZSHBkE/aQNqYXbYO9XlapFMjRyCUF/TOXXxMUFRSGNlWawhXgwv74Y9hwdCPmH1iI6mFVUSvC58WiRYw9e/bIRyJ5CXXVqtVQvXo1VKxUCfXr18c555yDq6++Gm+99RZ69/Z+mSWjTZs2qFatOtavX4dl/yyVZdmvvPIqzjvvPGzftg2XXdYfDfTznk2bNuEIzbYGXH65xWOww1uxYjlq164l8nxFzf3UsGFDXHHFFSgXHY0aNWui/2WX4f0PPsDBAwcxZcoUeStDkyZNlBE/Cg7fEyUfSKALl3ff/1ynFIpmRuRH6YDvQWNPF8IBlVccSDyA99d8jMUHlsKBQDSrUBcX1e+O6KBIJPKSbK6Pz9GohufsK8rfBQoKCMLR7ceR6chAzabVEZ8Ur0yQhzpV87J0ga38HLsnO6ZPnQU2W0z4tsIr28AuIJm0oU4JdYbgQPwRTN8+D3viDtEkNwMX1bsQNzcfgoig8GysFz7YycusmkExU5zmCwB+bU9uwDMhvq0XEREhb1DgW7NiI4AuXLWD5oVMbJsvSphvwDx2RlwyP0dkaa7T8ePHUbFiRZGxo2/fvpg5cyZWr1qF1medpbl+lAYcOXoMbTpcoFMKfkd02oJ3a9EOTrmFPAuiWdCnG75EbEosogKj0ad2F7Sr1lw+YOfOSFc1NRsz4AkULVsarFSLaDgiBj+w/uvrOXjq7ucQGh6KIXdei5sfuQ4JyYmikN0AzSm79exhJIwupXmgZLYxYDdkiZkMHZl8gpeoT56CTdcOYlH3yXeVHJkOzN+3EksPrEOCOw41w2tgROvb0aFqOy1cMvD0cw5tIOSckzuwwzLOyo7rrx+MmjVqyIysfoN6OBETixeeex6ffPoJLiZnNP03z3MpP0oH1GcgztUpBb8j8qNIYAYefhb03uqPsOTAMricgWgcXQd96/dEueAIckLqu1V8e000eJ25aNGVMjsdDsSSQYhFCCzLUoGBDrnFs3bBegSlBWP5wrX432ff4fvlk5DpcrOSEmTIAGZP69ikDbSYjhTsCaOnIVmcR/atOhoZH9tZTIiyIdWzPrklyQa1ITFNQcqglIPKCXWF4UDCYXLsi7Ejbi8cqZnoW7svhrS+DpHUp0pSmyh2FHHJNvPSTUSbVXacCHS5ZEbFM6XOnTvL8yF+ruRH6YLfERU2Su6MLxnksb0zdv6BzzZ+iRNJMSjnisI59TqhTeWm8qqblIw05WycAXCkOOBg3xHGv4FKl6WcgZnBoDkA0lwZJJ+mFwOwi8pASGgo9m44IL/ib9ezNXZu2I4hF96FK28YiBsfuxbJKYlUTaqoObJNnXX9OWmyDCFZXhmWuDeEYbhGWSv66NuhbLEMCWUjI58f52eDbMP88Iv5vOE+ktVfnApAUEAgOXUnlh1aj3m7ViAhIRaVwirhtrNuRrdqXVmj4FBFlW5QHdmBr1u/Hn/9/Re2bNqM4JBQ+RxFzx7drQUNfpQueD6M5znA/I7Ij0IHf2/nvbUfYeH+RXQV70KT6Lq4qF4PRIdFyqcaePAICQyR202RoZF4dNjTWLdyPT77+UM4ywOOwExMnPA9pn09HU+99iia92yI1ORU0XM6aLCOD8BNF9+FPTv34Pl3xqBxk0a46sIh+PDHV9GwW0OkpaoZkYyl9gHV0OaIJ1pI2niNuSLD+jwrY9rwVJqfibj1ih+TpfI9MZMMrzwbLD2OiXCkB+LI7uNwuhyIrh6OTCcboRqQE0qLTUfC4URyRk65zclOln/FFhkSRbOifZifsQwHYo+QeBr61D0Pt7S4CVFB0dq6H0UJ+370I3co/TMi/14t9TAHS3a7iYfu2Xvn4pO1n+NoylFZZnxO7U44u3IzpNKshl/Pwz9KDo8Ix7evTMb072ciJDwEOzfvQkJ8Iho2a4jeF3fDfc/dgTG3vYDvv5iClz8dj64DOyAlMVkKDXWEYtzw5/HPwrVo2aop5sxagDvuuwVNWzRCk271EVaJBnHrwXr2B5O66aUoI6JurekcZmt9ywptmE5PzUDKiWTUqF8dCWkJSHGnwcHfc1L31USIZzdqBqeNE1Nlm7SyJZMjcizREeUx4b638N3nP6JCxXL4/Pf3EFU7Qm4zhYeH47dP/sa4B56X1YEyYyRlVddMRISE4YfFk7Ascz2W7FyLlPREVAmvgjta3YJu1QtpduSHH4WI7BxRzr/2Kgl4zlM/8gEZ+4oYvIuy202Hkg7j+WUT8NI/r+JEaiyaV2iEYS0H4uwqzeTtCG75XhAN0DT6OnhmERiAVL6fn54Jd5pbXkd04tgJ+U1KSkoKulzQAUNGXIeaDWsiNTVNBl1eSXWMDuLDh49j2P1D8O4vL6P/4Evx/uufwEXXS+VrVZCVVTyTYMeSSY6Pb+Xx+M8OMJ3TvFJLUgRxBEQTT4J4D9bTmbxVHoXZNBMKQEpsGoacNxJjb5uAfWsOoUJoeQRHhCDdqWyItHY4XI4itaMyPOZQkqVDQoOxbu5G/PjlVCkjLYUcm4OXJqtyeeVYRpr64VyL1i1w3kU90btPD/Q6vzt6ntsNHXt3gCssABfW6YahLS9FrfCaOJJ4FOOXvIBXlr+OmLQ40VVQNv3wo7ShUGdEcoIp0o8yiez3oOHmtH9n7ZmLjzd8hsOJR1AuqBzOr90ZZ1dtgmSeBfEL+Qg8DvN7V0NDQhAcGIRgV6gMxK5MF2469w4sXbIck+dNQuXGlZGUnowKUeURHhKOY7HHkJAYLw6M4SJdvsUXgECy6Ua4IxwbNv6L8EqhclllZjX8O5OQoGCkplEd0t2ywi7QSTr8stHUZHJ2/KPZAKpPMEIDQ8m+g+TSkJCUKO/q44UBFtgzUZJlAtIC8OrDH2DmlD/IRhq6ndMJg0dchXa9zwKCM5GQnIxMN+lzY0VXRQzVf4bBBoEoVxSGXXy3OOfU5DT54ugPCyYhvGaQOOnI8AhMe28mnh09AZ9P+RgdLm6NlNQk1R80E+OqxSfHIt2djiBnkHT0/F3LsfjAWurHJFQNr4QRZw1Hl2oddbl+5Ai1g06BXAn5cRIU+YzodN496ir5dEf2e9BwTWy64ljyMZoFvYSXV7yCGBoMW1RojFtbXYF2NAtKSEuW20iiQxsXzSYi6G/W1wvx6PXP4v6rH8WPH/8MuB3y7IP7N9mRQsk0+eX+ir9W4bMXJ+Lg9oPkfPh1IAFwupwIQRDmTp6HMbc8jTsvexD3XP8wNvyzGaGucDgDA2lWkokginet34PPn/sftq7YirCUYEx+eyqevHE8JtzzFrYt3Yao8GhEhURh++JdePW+d/D44Kfx9as/ICOeXBzpZ7m1RwO8vLwzKBNPvX8/pi79H+569FZs2rAFI68ehcG9huO3T/+AK8GB6KhoOKiuMitTyrJVYJv8QuAMcjLR+GXi71izfB1Gj7sPkeUiPT/K5S2p2WsRnxSHE4nHcSI+FsfjTuBY3DGcoMCOljwT0siRpmak4tw6nTCk+WWoG10TR5NO4Nmlz+Ot1e8g3jY7Yrv2WvlBsO3unHEKIX+n5gv+xQoM+9leqCgyw8WCk9V+wb6FeG/NhzicdAzRwZHoVbMDOlRriTTrWZDSFn2XA0HuQDxx87OYPXM+IiLDERUdhQMHDmPglZdi3559WDR/Kb6b/ymqNq6CqIgovHjnm/jm8x/w6hfPofPl7eV2XUhaKMaOfB4zp/2N8MgIVKBjMyE+HseOnUCHbu3w8sSnkR6ejvDgMPzyOc0i7n8JQ4dfh+WLV2Hjv5sQEhyK+Lh4cmxOvDPxNWzbtB0vPvUaQsJDkZ7qltfItOvSFm/+8CJSnTRj4iZIM3hDpIoE7BzDQsKQdCwFC2YswdcffIe1KzagYuUKuGLwpeh/fT9E1Y0kJ5Hq9bzIkA5yzO6j6biqx83o3KM93vvxFfTvNJgc2yb8tJBmRLVCZWbF7Zz23gyMf+QlfPLtO+h40dnU5iSERATSjDOZZnAJZJR//Mn2TRkZCHIEym29ubuXY8m+dTQ7SkCNiGoY2WY4OlRpL3J+ZA/Z5Yr0owhQ+p8RlRSK7Kgr24dzdrU/kXICr654A88tm4DjNAtqUq4+bmp5OdpXb6GeBZETYhhdnhVEBIXixw9/FifU44Ju+OWf7/Dz6m8wbdFX2LD2X3FCBnwLTwYCGqgZgTTg82crIoPD8eFzn4kTuvLGAZi+8jv8sPxL/LruO9zxwC34Z+EKvDPuE5rlRMgnOViP8cUH/0OTVk0w/Z+fMGP9ZIwYdQvcaekYPWIsPn1nIt749AX8vvYHTJ7/NVq1aY4V5LSWz1qF4BD9aiupBleKnCoN9ma851th/JLNtJBU9L6mGz774138b+an6NKtMz596ytc0W0w9q7bC2cQ30JUCwu4bayeSe2JCo/CJy9NRGJCIu5+ajji3UnyHInf6s6yLMeFcZyRqVbovfLcO7junGEY2vcOPHT9U1j083JEh0bRWaxnXvoZF2ul8hJ5dyrOodnR4Jb9UDuyJg7TbOqZJc/jbfnibTxrqM72wwvS934UK/yOyI9cY8nBpbhn7ijM2PUXgl0huKBOF1zf8mJEkJNIpkGPIb+H0eATmgdufon2lP/9gqDgIDz50ii4KgXgeMpRVG1SES+8NxZBNFgz9HBKBK86UzRvXS4njuw8iu+/nIK6DWrjoQl3Ir18GmLS45DoSsEto29A/Sb18ecvfyP+YIIsgeblzYxWZ7fEI6/eg8DqNDiHJOPm+29ApaqV6KrsGB6nuvS6vivSQ9NQq2Vl+R0SY8+OPQiU24VUOleAgxmd2JtQglmyNIHa63I4kOrm50sJSElNltVuIWGh8j4/djrSHtFSpoJDgrBx6Vaa8f1EjnEYqjWrJMvTGdx/0g/i8UQVAYEOVK5WiRIZMpvkVXNz/liAB4Y+io+emYSo0Giloz0dlyEgOtGdiGrhlTC0dX90rdFGboNO5+8+LXwIq46sVJXyw48SAx+tdH74b835kRtM3z6drqQ/hNMZiBphlXBJ/R6oGl4ZSRn6FhbDPqgxj9L8m5vju+JxZbcb0KFLO7zz00s4kXZcrv55lVql8Cq4+bw7sHL5Gnw771NUbVaFrvIj8dI9b+HrT3/AG1+9iJ4Du2DtrA0Y2m8E+vY/HxO+eAbH42LgpL+MgAxUjCqPh258CtOnzcCnU9/BWRc2x6+f/Y0xI5/F8Aduwq1jbkRsAn85NABB7iBc3+t2nDgWi+lrvifnRF4yQy2iWDJ9Je6/4VHcQs7qjnHDEENl8OzCLJRgiH+kevNzLH7LwbH9J/D7t7Pww5dTsXPrDtSpVxNXDxuECwf1RmjlEFnxZ5wKI5O8SIWQ8rhn0Gjs27kfX/71PpKCE2kmVx63nXcPNq7fiO8XfiHLt/lDh7JqLoWfewUhOCiIfE2AtHvdwg0YNexxHD1yDB/+8CZantMYySmp1i7Q3a82lGDHHEYXD9tj9+K3nfNpNhuHoMgQhM92Im5FjPrdEgtSX4g/o8Bt5Vt+nMPQppSDJnCe6RvFU7MxIyM2hNZ1EfCsT30bjD//zQLKiepshiiKJpHq8+CcsvaD5BGsNNPyT6SnDqJPhJbW+lpCVGlDFwpybcEwdgmWPi9QIWHu+44dO+LCiy5CyxYtJNeP/MFza87T335HVJrBe8acJCUId6YbQ2fcgsSMFDSMro3BTS5GYnoKktNT1eowcwRlU1f+ZPTWRdtx02UjMeC6SzH244dx9MQxHgrEEZULj8ZDVzyBWX8tIEf0Cao1rSq3rV66lxzRx9/jtUkv4NxBPfD393PxwJDHEEozDZ4VWIMb2eC3DsQcj5Vv5bz/4+vocll7TPv4dzw1cjxGv3A/Bt7RD/GJ8aIQlBaEIeeOwPHDMZiy4mtkRqTJrCWEHNHS31bivsGPYth9N5Ijuhmx8eSIZMTi2lIzqVAHOVZ+CenW5dvx48RfMGPqX0hISETHrmfjhpHXoPMF7eAMd6jVd2lu5Uh0/3AUFhqGOd/MxeN3jseXkz9Cm76tZBFCxbDKuKbbUPxLjuj3pZNRrn4YYhLi5S3cqotp/iUjJg2cFFcsVx5TPvwNT9//Aq4aMhCPvHEPYhL5q6RqkPUaq4nmJM8Ty4dGYVfMAXy9cToyK7uw8NnZ2D1lm8j6cWrwWz1uvfVWPP300yhfzj825gel/wetfpRavLXiLfyycwbNVqLRsnwj9KrdAcEOfmCezVW4ASUCgwKxecE2DLv8LvS/ph/GfvoIjpEj4kGRV46Vi6iAhwY9hll/siP6FNVoRhQZFomX736bZkTf441JL6LXld0w54d5uO+Gx9CkSWM0adMUmfy9K55V8X0qgivAKZ+QGPrAdWjauRF++XSmOKKHnrsHV43sj/iEBCkvkGZEN50zEkeOHseU5V8hIJIGdpp5hASHYNmMVeSIRuPWB4Zi+JihahZFZairZx7UqTyaQI0eMg7L5i+X799cMugiDLy5Hxq3a4D0ADcSk5PIHslKZ3iuyMXxElU+ohxGXDIKq5atxfmXnCdli7OjchbPXYS4xER07dkZEWEhuPu54QirGiKfwM+kmZ/YIGNcHXaICftS0b/dlWjSsiE+//t9ujjgVXE846BIKAWeA/DiBW7I0n3rsGT/GiSkJqBOdD1cmtkHATTj0t5OyuB/uw3LmXFsvCq/coiElKNmUv3WSUGsKGWBMqBsKkNesyGCx44qz8y6OGGZEWg7xOebr1rKkpeSaCO/2/JWVLK0kfmSCCqeKdsDU1cFznc4HdiyeQtefe01ijfLF2B/+OFHREVFaik/couScUSypxV5eqGIGpZbs0Xcr77m0+nK/NtN3+ObLT8gzZ2OyhHlcWGd7mhcvo48H+Ifi5ohQw0uiubnOyd2xmNQ9xvQqXt7vPvTSziSdJRyM0knAFUjq+HmC+7AimWr8c2cj1C9eXVE0VW7zIjIEb355QR0v6oT1v65QWZVV143EC9/PR5H4g/QoEizDSlP3cLiZzVxiXEICg7GH1/PxpMjnsVDz96NK++6nGYt8fyzGwSnBWPIecNx9MhxTF35P2SEkdeg/6CQIKyYuQb3XvcIbhl1I4Y/NRRx8TyLUq3igY7bknA4GXcOfAgDB/fDxVf2QYW6FZGYFo/kVL5FSe6Vmi7yFMQZcSwpvuvFixTK474rHsaSOSvIJv/gVr3MlG8B8e+GGCHhQfIj1q9nf4zyDcqTI9JLunnA1AM+Pzc6sS0RV3S5Fu27tMG7015DnDuW5ERSKsAUO/wQVxj2xh3E7zvmY1f8PuKm49J6l+CmZkPk+Z4fucfhI0dw3bXXymfInxozBuPGjtU7W+X7cWqUzKq503YHFWHD9AB2UhRxv3qb53e8uXB9s+vwUvfn0aR8fRyKP4LvNv6OaZtnyw9Ag53BVrV5MGR9DvzgvnKtiqhdryaWLVyJ3Vv3IzhUyfKrfras3oa1q9ezmvAk0Ahu2aIjNDUtBTUb1kC58tGYO3s+dm7fhqT0FMQkxiIuIQZJKeRkyFHGnoiVWZFAG5CF5ERzkmvFz1iY4ttbfE1t3nigYJWqKm8DJ93kgAOjnPhq7ke4+ckbEVk3nJxQnDiSsOAwhNOsKiyUQyjCQkKo7mzPY5P/Eqiuj756H36c9xl+mP8FJs+fRPGXmL7oRzRp2ghBQS589sN7mLJsEjk5dkLp8nFK/o0U28qgsjJdkB/8Lp65WCy36XQWnCEeJ6h6n2ajAS44KczatQST/v0ZO+P2oGZ4VYzvOg53tRnhd0L5QOVKlfDZ51+gapWqePutt7Fv//4sx0pZgjk6SxpF74j8yBvUSFLK4KlQ0/JN8FLPF3F942vkbs7KQ//is3VTsO34bkS4Qonn1Ac3zwN4wKcBMSIAV950OdJSU/Hig68haWcSIhCOg+uOYOx9z1kzARlIyabcZlEscRhuyi9XKxqDb70Sh/YfxhO3j8fRjccRkhqMoNQgJO5LwbSPfsfYES/Kh/KcZMQ4GHtXskkH+CNuiiu3X8TpyeNrH6fE9SdIXSiwTQ7kkGf/vhCTP/kVf0yajTnfLMTfX83DX5Pm4o+v5mLmxDmY8eXf+H3S30hPIrvcSWxGl5HudiOiegQqNCqHio0qoHzjCijXMBpVmlUhBx1EUhmIrEa9UzucnE46zfKcmDHpTxzfekyeb0U4wxGcEkLlLsD7r3wiTv2iK89DQmqc1I8rzSXyvjiUdAxf/DsNc/f9g7SMVAxo2A+v93oZ7auU7PeLyjpq16qJm266CceOHcXff/2puaUVchRbkS/sR3xJwu+I/MgzghxBGNLyBrzY4zk0rtCABrwj+H7TTEzZOkveDBDi4BkPH/k8+EKeewy6vT8uGnA+5s9ZjP7drsOgbjfjih7Xo3bdmujas5PYTc/k97XxDIZ0xUvQbCg1hRyLQx7o3/TQYFxxQ3/M+3MRruh+I67qeTOu7jkM/dtfi/EPvSxv9A5y8WBOeulpSj8lVRwmg8dpqiDS3Gnk/NR75/hUFAdDf2n8njqCO410qXxRozyhyGiAw4GMhHSMv/tFPHX7M3hyxHg8MfJZPHnXeDx193iMoTD2nucw9t4X8NKjb8ptPH62oE53tqNsZpJjTU/LoJBOIQ2ZRHN93FQfbnZGBtWN3y9HjpH7+qt3f8DArjfgGmrr0POHY2DnG3DvTaORlubG2NceQb3WtZGaxG8cp33jDJSZ0F87F2PSxl+xO24vatAs6OmuT2JE6+GIDPI801A9fIagkBvbrXs3ibdu2Spx6YUcxVZUWuFfrFBC4E7P7bGRF9ncoDDtJacnkxP6CT9unUy0G5VDyqNPnS5oUrEekvQnH9gB8A9UQwJCMHfaYiyds4wGzjR07NEeF19/Af5ZtAqH9xxGpz7taPbkgssViJ2rdmHXxl1o3aMVomtGyy0qHtTDA8Ox9K8VWDxnOfZu24PQiHA0bt4A7bqdhSbtGsrvZnjJ+MGdR7Bx8SY0ad8INRtXlbcmMJwIwvI/VpCzyUCHvjQzcCrnw7+vObE/FuvmrUOdlnVQr1VtpaMfqjOkHRlOscseQ328jzMoKQ/xOUEx/Qe4MtGkQ2P1w1yWFSNanqWMTZ3jJAe65u+1SIpNQrs+beAMoZkbCXFbVv25Bv+t2Y5N6zbjxPEYlKtYDi3OboGel3RCneY1ERsfKzPRcHLEe2IPyfLsvQmH4CD9fnUvwpDmNyAiSH00z4/CwaLFi9CtazeMGTMGY/k5kR+5RplYNadO19Mfp1s7N5/YjPfWfIR1xzbKjKhV5ca4oE4n+eFrSnqKPJTnUZiXL/MVO6++ynBm0GwpASE0CPOH3nj5NT9v4hkKr7bjd76lEI/fpaZmNbxqjN9YTTMffsEnv3CABnzm8w9J+VkSzyJ4kHcFu2h2FCi/48mQbweZ3s6U21mcTk5Opq3isw6N5bJ6zk0zJvmmEefJP5fBQkTRBCc4mPRVsRTRH/Hl1oKsTlDlk8eiuvPrfUwJGjoh5SlSTPEtuZCQUFmMlpSUwuoiwPZDwri9NMt0kySHQOo+6rskqj+/uZxnTS7qswX7VmPJ3rWIS09AzbCqGHHWbehYtYOU4UfhwjgidkLsjPzIPUpmsUIe4XXSnsY43drZuFxjuVV3S4sbZTBdcXA9Plo3BRuPbUOYK5QGSpcMysmJSYhLiENcUpz8/iYgI0DekJ2YlEyDs7p1xcFNjiCJZPk2lXn2waM3D+vsnOJoFhCXwosVyBbR7HBk0BenQA4rLZ30k+WZjFi0dXgKDfTJPNiTrHgEtsv56ZlSJjshLodZosZyTHFE4qkpKfLuuxRyBKlkJ43qw06HQ2oSBcrjWPySL6QdXtUR2kF/KdQHCQn6B8JaWdqbmCqzntgkam8atTcxXt6Zl5GaicjACJxIjsWkDdMxe9dSJGUkoV+9Pnij98vihHRxfhQy+Ba0QA4cPwqKUueICuOk8Z94JYNAhwvXNLkKr/WcgJYVm+N40jFM2fQ3ftz0pzyzCXMFy6CrglrlxTMdjs2sg52OomgrTkLlG4iudkjG8ag/DT6iOcF6TJI9ybPZ4BxLXkmpsoRPf7bBxaI4W2wSh8YgqTOXre1zrU09Vdr8MdTtN294czjFtpyWDm0tEZolEs0OVnKJDqZZUAjNCufu+gdfrJuGrSd2omJoBTzW8SHc0+ZO61mQqosfhQ9/rxYmTssZkf8QKUlkon50fbzQ/RkMa3UTDZgurD+yGZ+vnYINR7bKa2Z45Rr/AFLGWXIAHKu5kIL4gSw7UTGVdE57WN8W01D26d/Lnl3XlK1t0mivdGQrfMueUbMXYIdVBuWrfwkMcZtWsYarGN5yFIhtpS0d5ZylPhSHB4XK5x2+WDcVs3cvRTLNgs6r1Qtv0iyou/+rrMUCc7lg7Sw/CoRS54j8KLtQ56Q6QQMdgbi60RV4pdeLaFWxBY6nnsDkLbNkdR1/NyfEFSozCtsp7YEadbNFNtK6SHvpJkVbZpzUntpKthb3bI01m4MzLF9YZShBdjzGoXKUxUH6wLgaD7RrJpZwacNvR+C3WczZ8w8m/vsLdsTvRbWIynii4yN4pOODKBecj+e59iILgEIyU4agWmx9wdePAsHviIoJxXG4FrSMgurLwOmDutF1Mb7bONzeahiCnTw72oJP1vHsaBvCA8Pg5BUCvgX7GNLzFAtZ6mlWrBk9EVC377IKe2CfhTFMmlWMmuFIzBu7PUvdMDkmppHTQXM1PO7NOCd2QqoElafyzTZTbsnxirgjiScwacOvmL3rHyS7k3Bp/QvlNmjX6l1ENl8wlSkgCslMmYG5fat3oR8FRJE4ooLtnNNz1xbHiVrQMoqqjoHkgAY2vByv9nwRbSq3xomUY5iy9S/8uPkPeXYU4uJVaHwbTO97W2SGaA8UV0HF6m0JTKgop4ZItuQp1+YrZtIcG9qYFPjatzKZQQmKZJLnpWTEmelxqRJTBl9QcwtZxldVXivkDJTfBs3bsxJfbvgZ207sQvWwihjT6Qnc3eZORAVHeyv5UUzQe/UM6vv8NjU3ekXiiNQuyi8Kpl2UKE3HXFk7/rm+daPq4NluY3FLy5sRHODAmiMb8dn6KVh/lGdH4fIWAeWMPMcAD9GmrRyrQdvkq9gjoSFsw/XkCZuSZuBX9hRfWSJ4xAmUMM+NGF6CGsYAb5S4lre0BPYZD0OlyLZhaHDSaEbQjPFoUgwmrv8Fs3YvQVpGCi5reDFe7/UqOlZr7xH0seFHMcDqc+/9fDojv4dZbvT8t+bygNJ0vpf+scf7BDX15bdkX9l4IF7p/SJaV2yBo4nHMG3L3/jhvxlITkuRpd5G2jNsK3AqS7upGN+hwHsWlUVDOErHo2lRXuKUIE9hWOqND0zY5CVhUsr5ZVei8LJkKL5iK4r1+XdWQfzj3z0r8AXNgrbG7kSV8EoY2+VJeUdcZLD+cWoWe34UH9Q+55fVlhTMUVccKOqy/I7IjyLCyUfJelH18Fy3p3FL65vka6j87OjT9dOw9shmhMvKOjo09QDPixqYYveiOLYtFWN3WMxTiyAoNuwcqsJ6nCU6tFVWGUzZ0woiTf+Gr2LWNPWSbA0Pz0jK1hLwSCr/ppwnt/1Y0gmaBU3DrD1LkcK/C6p/Ed7o9QraVzlbKfhR8jA717oIKX54jqCiR1GX5XdEfpQYXA4XrtIr686q1BwxySfw85bZ+IGfHWXws6MQPTyb08AM+Sqd3cnBPJaQ4YE22T2z8Ul6WbPnZWefBfj2m6yK0yyzOs4bvqVoEYvNhHZWZDA4QD0LWrBvFSZu/AXbaRZUOaQCnuw0Gve2uQtRtnfE+VHyMLsx6+VK/lAoVgqnKiWCMuaI8t7TZXjflGnkpd/rRdXF+O7P4LazbkZQoAtrDv+HT9ZOxobDWxDpjFAr63hlnBjNMuIraDaL2CXYaShCxwQms1qxu7z/t3cdgFEU6/+X3KV3eq8C0lFAQVARG2LvBRFRsD577/qe7dnL+9t774oiCjYQQVAEpUmR3jvpPfl/3zcze3OXS3JJ7tK4XzI7M1+btjvfzu7erkmRshZUZrQx8xZVgklpaSNBMOs0S1M2TKWg/ukAjKBVEN8L2oM3ln6J79fPQXZhDo7uNBLPHP4EhrQ8mJUseEoIo/ZQpteDvBJS+0oNERQjdYNacUTBG7Kq93TIxiY8H1SIqva7K9KF07qegicPexQDW/TD3rx0fL7qR3y0cgryi/Lkh7C8fjDHf9mJofwhqYhueMoNqZxHnkrUGa/2CI0pmupREJisipWMR5+p1I4S9SaKGFc0ftk4H2/w74IyNqFpTCruHnwbbjzwOiTH+FsF2Zf8wqgteI2/wIxrWU4YVUetOKJGOVRVaFR44ggM3E/tE9vhviF34/K+ExDrdmPpzpV4dckX+GvHSsTRyoEnb5ZT3e/vPo43RNbPWPlqOpf8+J/lfXUMUehKVz7gJ4HS+qEGYRO8rOt7VrZR/l3QbnK2/Ej2Txt+R24xrYLaHSFvRxjaxncV5A2PlTDCaBwIniPyPq4dlEPep7DPThxVHHzTT3zv6OT9TsTjhz6MA2h1lF6QjslrZuDD5VOQVZgjl7LUDwopWGXY/WzSHMvDABw4rYO3NEPl7SfjDCRLdHFehq7lxAEJzbg2I2CVIJVQri46MhbxkfGYs3kR3ljyJVanb0BaXDJuPfBG3DTwWqTFNhEVGx6L3iiPHkZtwPS+737U8FAf9qOQr4ga/jCFURHK34mJU8PB75jciVZH9+CKvhNpBRGD5bvX4I1Fk/DH1sXyqQleHZka8NbUxTfN1TCBKV55EvCWNVL+4LkspmQVDE3lvVdGikkb8lb8RNye3HS8uXQSvls3Gzm0ChrZ7lB5U/bh7YaLuD84tnzAdDZvyg+jFqEHpTH0vTSlCg0JRZuD54i8j7yqI3w0NUiUN0lWxKkK+N7RiV1OwFOHPYqDWw1ERmEGvlkzC+8tm4L0/Cx5TZCC5y4Px/5KV7uYzWGKCvbup2zQVrONhscuORvLjG3RQKmSFXJA7DD5Tdm/bvkTry/9FKvS16FZfCpuH3QTbhl0I5rElF0FBQpPncKoTZgTltoB700hRjnN8VdyKFoeghVRNasZPpoaFYJ96LRKaI27D74D1x7wLyTExGLl3nXyVoZZmxcgzhVDIVYun8luRIWbK2yc59jUx7Obsathh0LB5/6OitmJqIzR9YAcl77U5vd+EoEtMjkxKgG7cvbirWVfyxNxecX5GNXpaDx56OM4tM0wJRxGHaHsyFYVfoY+BKidUvyhtkoO+aW5BoOa75OVIOQF1CvYO3CwWs6/Yj+249F45rDHcEirQcguysZP634jhzQJW7N2yr0j58EAqwKclKArwhGvgRwRvbwx9VR8j56B4TMUTzkja+OA73Pxl1NnbPhDHstetWctmsfyO+Jux3UHXIW02PAn+L3h3X+hhKcke3SrBvUqKknpuGI44mH4RdgRGVR/nwwQIS+g3iLYLW8R3xJ3HXw7bjrgWqTGJGJD5ia8s2wypm+Yh2iXG1GuKJKiI1/9O8GpiEMw8MqImG+dtcuRlJchvWyy5fk1Rfz4+TtLuU6/Ib84D8eRA33y8EdxUKvBWioMb/j2eOgQjJLM27cDRRXF9zmEHVEY9RTezqFsPgIj2x+Bp0c8gcPbHoocWh3N3DRPnkTbnr1LXhgayZfdnGmH9CkpVpgUwMTgXaJZ/9iBqHSqK6ur0kj5aio7IX47whuLv8CqdFoFxTcVp3ndAVcjNTpFdMJoRND7kfe+0ohQSw0LO6IwHNSvg8nXU5T1HFzfJrFN5Ib/bYNvQtO4NGzK2Iy3l36F79bOkTcy8GtzlN+hP1JQaY8102aOy5ag4KF7XJFjhf+JEOeORXpeNpU9Gd+v+xW5JbQK6nwUnqZV0NBWB4mGN0zJBr55GxXxGgECaV697QK1d3j2kRCiLvqgVhrW0B2RHphGfpjWGmppn6sRzFhzrOqrKIe1ORTPjHgco7ocjaKiAsyWVckkbMnaLqsjvpTi6FLCXLM3bTYxk40cwzfvkeMHFkrlXlB8VCx+37YQry75DCv3rkHLBPWOuOsGXIOUcldBvr3tm7dREa8RIJDm1dcuqM2bP8Hsg1qsdiBo2I5ID0yNxqeeDcg+hWr0vRlrz5gbB1Mqk/7V/f+Fe4begVbxLbApeyveXfYNvlk7C264EOuKUbKkbH9h01SDY2PXpP1d2zcX/Pi1Q5kF2Xh/+RR8s26WXB48usMReOqwx2kVNMSx2xDQkOpan2CejWlw8FfvOtwJ9uFLc7rXG+qOVI9Q5f3XKASp75UZz4pnUKtBeOrwR3By1+NRVFKIuVv+wssLP8WaPZuRxG9loN3ePPXEumWroXi8ZTHDlzwFt4t/FxRDdhfitcWfY+muVWgSm4pbB98o74gzqyClp2xVhsCkQoeyfVBP4K9janMVUg5KTB3qvirBQx3uBPuwI6q3h16DQ5V7MkRdb5tNik7C5X0vwYND7kXHpHbYlrMDH6yYgi9XTSe5Uvk8OV9es2H07Vg98q0onE6IikNGXhbe/3sKptIqKKuQVkEdj8Czhz6Bw9r4ezuCXavyEZiUfzSmubAM/HVMPXgEzVSh7mvSOBB+WCEQVPVIb9QzQ8NC3+Z98Njw/+Kc7mfSrFGK37YvwiuLP5PXBSW44+TNDd5gN6UuvQk4QWe/fC8oNioGv21ahDeXTMKyvWvQNK4Jbh90I2464Hqk1uHvgiqdDMP7Y9DheXy77jq3dksObWlhRxQIqnraU1X5ho56PtHF0yrmwt5j8dihD6J3WnfsyN6Jz1Z+jw+WfYvsglzEkUPiy3UMHjoV1CByzA87pOdm4t2lX2PK2pnymqEj2x8m3ws6rO2hIucL1SX1pGP2kf2xVnvbFFaHq7PaLTm0pYXEEdXzeal6CFGjGkVf1eFEF0j/qV/6AN1Tu+PhYQ/i4t7jEOVyYQWtat5Y/CV+27JY3gUX5XI7945YIzoySn4bNHPTArxGqyB+rVCT+BTcOvBG3EIhLab83wWpLimvY6iMRjHw9Qu1uRs6t4ga0zjWYWNC4ojqcF4KHULUqFrpq0Y86QXSf9aFNvld0Vndz8CThz2GAc37I6MgA9+vn413l32Nndl75Uk4F/3xy1S35e7C639Pwg/rf0V+cS6O6TAC/zvsSYxod5i2Vl1QfWpl4ANAY903QtyuqCh+ewdNoPXgflXQUJeruzad+5Y7ZIv/+BlpaeF3Yu1r4B2iPh1eoaoPr36mrf8Bby57G7vz9iAhOhEDm+2PQ1oOxC/b5uP37YuQV5SHtvGtMLHPRRjaeojWDKNWUOHAm2mrdvbUpX8vxdIlfyOtSRpiY2Iwf/58XH311bjwwgsxceJEZOfkID8vHx06dEC/fn21Vhj+sGdPOvoceITOKYQdUUNEFWfmUE3kDRW+/bEzdwfeWPomftkyB+7YaOK7kJGTgajSCIzueAzG9RorT+GFse9i+YoVGDniCGzesllTaB+KiKSdqcRxiYmJifjpx+kYNHigpoThD/4cUfhhhYYIX69S7qmEwr7ohCrqErs/WK5ZXHPccOANuHPgHSj4uxAFe7NxQGpfPDD0XvxrwBVBckJcUiUDFUYdouKx6dG9O+659x5JuyIj4Xa54CJHFBnpQiQ7JMKll18eHCe0D+4m9cIRSb/vI53PzQx6U0PlaRrwmATaJUaOH8cd1PoAbH9nAyaf9TnOTT0DB7QYoLnBAJcUqoEKozrw3r0rH5sLx4/HyCOPRHFJiYib36GV0KqoQ8eOuPH66yVfYzSm3STAOaReOCLp9wA6vwHPiwKuPzczePuZ6pGQ9UtjOiAChDvKLR0aqd/d0iD2uQZRyQBRi22p6u4dHRWFe++5G9Ex0SguYmfksXDH7bejVatWOhci1OY4B1KWLVOefICdXH8uzQXQ8IY+Lwa//spiQ++XukcFR1QA+2WVEGx7jMa0A9Tzthx66GG4cNyFNIzqw4rFJcUYPny4PLQQctRm31RaFu3ItkwN61Z/HFFtdnIYNUMoJlMHbNxc9KgtlH9ERah3/AQP4f28FuE7diav9rGqQ+ncdeddaNeuPYqKixDlduO+e+9FdHR0QGblpzrlyvgyyxMs10BgEPUa2gjyjlx/HFEjR02HvV4hpJMpG9e//Kmk0yrr0+r0uaNjLrvU4euVy/t9oSFXqX22MKerpFw91EIRlcB37Eye4+qMq9Jp174dbrnrdkmfe/75ct9IEIBZ2a3KlfFllidYroHAIOo1tBFkhB/fDqPRgXfo6h5mw4YPx+xZs/Dnn3+hf/9+mlrfUJMW1jOQty1avw0lmdnyUtmK/b5h2u0vVZM7KRpd9dVcygidCZwooax6Q7uQnQQFgZMgcSNHcUmJ2GVRs5xxudzILMjFJVdehtuvvxn9e/en1VEBsUVKC2vogoREG5UjeIoTOKosIzpKy1uMvwRMkTylR200TE6wPke67pKRAjlWabGtY6YrOa0qRE6oyEmoCkk2Mike7g6tKKFlq4kG8zsirlDNmhpGY4PZSUO9X/D1/lniiP4kR9S/3u6LjeEYKVi1EXseeBX585cDuYVEoRZxo2Se5QS1UhpJkyclmST7gWyIKjwVlzCNg76UqllEM3dz2GHx5z9YXgRVWoQIIifTtJ7niU9yMgdTUJeOjCMgXkwkEmJjqBGlyMvPQ3ExG1PlyKQuttkpsIIqR8qSBPOZrrmcpyB8grSFOJKXehFP2+Yt14HdKiciuJ5sSwmLHVZnZywdJmpMIYgDEYKiiSCrsA2KiV/ChWt5LpKzbCuSBePciDlwf6TefjGi92vn6FcV9dYRVbM99QuNohEVw+wo3MxQNHf1qlVYvWYNsjKz4HK75Ffs/fsNQFJSIpUnh6OWDByZmZnYu3cvUlJSkJycrKnlY/jwQ8kR/RLcFVHQO6vh72zFO/Zi63l3oGDdFkS3awl322Yo5YmSViA8uQqcJnLCTPAqzZOlZA1XT54KPHHrJHM5zaFEyauJlgIJ8aTOOZm+jUGqR2kpCbMdxVR6DLZDPN4XVZFC0LqmTpYes1iMqL57sBbREGMEsmuIWsDoq7xlgfKOqCS0jTL9Z8AE5fwclqiwIaJodQfUCK6zJCkUbdmFgrWbEdupDVp88CBczTy+wctmJQi/WSEoKKfLqzISDRzVbWp5ehkZGbj1ttvw9ltvISsrS1MVunTpiocefBBnnX2WplQNH3/yCcaefz7uvPsu3Hn7HZpaPg499FD88gs5or9oRdSvv6bWMvaBfWnvI69jzwuTkDDiADS76gx1ss6Tv8zclOHY6QfamP5gGoPzzuRpiAxm6LxELEMJr7vhLGO8EqU5yzBm1JUvDUrYnoHpnBUSCYqcI6zoUndKWGoqTQmbpoQ54ZVU0IISeSlRRHnjQRninHR7jKiAM0aOdVTWW8YP/PUrO+eiEux47gtk/zQfaVedjdTrzg3MnoYRbThvVrDaX/9QTq8HOBgO6lkbq1KdqjbVwJ9eCZ0BX3zxxXj+uefkHV2vvPIyPvroI3z88Se44cYbsH37Npw35jxMmvSF1vCH8mtfXFyE/Px85GZna0rF4DmkzlHdDq4v4D6soB+5jwsWr0RkfAxSzxyJyKJiIJ1OQDJyaAlLwcRZuSo2tAwaQ5NO50B5h8ayHJhGsbHB+WzmW0Fk8igYeQ5Ez9I8Y1cCyTBd6sKBZSiILa4zBUMz5XFsbDlpDrYNiqUuJm14OhgdKUfXRWQ5cJ5iqZfOGx1pu7Gj8xwLj2U51vqOPabpYNKGbsZgbzYi6FhNPXkYXNHRyP/rbzWYVdhXKxKtn46ooR+IoUB5B3ZFE2dFPB/UVZfPn78An9CqZcCAAfj+++/JKU3AmWeeiTPOOB2PPfoYPvzwI3ImxXjk0Ue1hj/4qb1u++jjRmPR4kXygsrqoLIurEIXW/CnxTT/1qpXRh2Ch6OCHUoeJqCza3ZErvhoIC/fMCiQoujq2MnrtMQsx7HKCmSFwIEzsvHI6KwDzrO8zH6WIaEzkfJSlkVn20LSPAkkKzHTdfAkKNIxG7CS3pfOaGN4DFuOwXkJRJD2sS0OwtX2VFKIhm7D1EPsmIQ/GEOWUS6Pwd1SWITI2BhExrgp7XnHnsSWSnUQekdUg8rVJ1SpGYEIl7cvlIfy5CuyUw6vPg3Jxk0bJR42bDji4uIpRbWzKnjccaMwYcIENElLw9atWzVVgR3UX3/+iW+++UbCAkqXmANHtz0xKQm9e/VCixYtUaruAnvBl+LMHQGiUvGyRRL8aTHNv7UqVqnBQO7ryN1w00KKub84MMnuO5Pn2MjbfJMWvkp6wdBtvmPPZDii2OSNnC1vYklbMg5Ng+lO3ghZEGdiK/hBGdtMoOBcKiRoksA2Z9LMk2PCYto6As2TfqVgxI2KV1rfq4vU98EIYkqrVhehd0Q1qFxVYfoqFKhsn/FCLba5OqhSW0KMtFR1D3L+/D9QWFBAKeo8039UT97nX375ZXz11WS0atlSM4C///4bx9NqZ+DAgRg9erSEgwYPxsknn4xdu3ZpKWDK11PQslUrPPbYY/JUkC98Kd43vRk17KyyRdYv1NW+QAPrPJRgYNfFpDk2aRbn8XHGSDPtMTNpkeVg86zgBZtAaZEhAxwbO4poMt7jauQcWY4pYWgia3SZboSEURaODoFFJc0bo+cHhmWLcNq037THCbTRLK/C7P5jcNYUbVg6dmSCgNA7IgNT+RAiiP1SFiE1XsuoR20Z0H8A+vbpg19//RXHjjpO7g+tXr1GVjuqnlZl9ZlwPjmsi8ZfhKnfTcMdd98p8dRpU3Heuedh8ldf4bnnnhM5Rk5ONnZs34H09HRNqRjObmomyaDvt7VwIAQKrkod7AueYiklE5/uEyaa4AWWU5EjYMvo/UKB0tqclwzT7LwNGWvDNLE2Ymz58pkuQSccOQOSE5rmcRmmnuIUDJ/zOrbhSxNVtqEZYlMlVWxldDFK1mQ0OGsCg0UsVaVDwdchOWZK4bkoFzzUniNyGtJQ4en84A9DaGyGGtWts62XkpqC1994A0OGDMH06T/h7LPPlsemB9Pq5sYbbsCUKd8gOytbSyts2bQR27ZvxSUTL8F999yHY446GsccfQweefQRNG3aBJ9+9qm8A0ygC4uMDGxXl99fqISKvCa5YCCUB0IVR6SOjkku1p6HnYowwSH6tsWLqZOkJ8Y4raFNeWiaYOgS2woaDp0Cp3nceR8wekJnms6KDAemaSKrG7qxozYEyvO+ZfiGbOBVlgWhsS6nKSMxB07oIDK0kdiGPxrJs5oN52SAhCViJUuR+UZHRE3eEGuO2nNEDR6egSkztkFAKGyGGmXqHOB+6aVHOnx5bfr06fh26re49LLL0L1HdyxatBiPP/EEjj9+NA4fcTgWLVykFYD2HTpi5cqVePGlF1FAq6O8vDx5Mi41LQ3dunfHnt17UFLMvwMh6MKMf6kMHjFTy+AdbKFHNfaiOmieFOmUS3X2rbYMlh+6wCjq2LGj4Zs3NrzUNNHwOGa67VC85AledmhjJmOTVwmd5I2XAoHzJhDN3iE1ySNLMOoMWU1JggIlOBJRTus8b4Qtgh4Ij0EJYfFGBFWSg3gBYXrDiNqyDIq5WA+h5qh9R+R0TCNBOe1pbM0MCNXZL7VOTEyMrGpeeP55zJ41G8uXL8MbtFI66KCD8Mcff+D0M053HlZwuVz455/VuPraa9CzZ0907twFnbt0RadOnTD3198QExvrqYtzwAc2Is4KSOs5r22pDoK9E4Rip6pB86qPUll5mrcFSF9z0qmLD91mOhOtluHYkAw4b9gc1KZ8GBkZc6PIkWXYNuE12WuGaYvDojSzfPcfQ7NtME2ymiYyVvAHo8+RrI4sXQbTHF3iGXnpU0ozz/BNHSXSPAPNssFvWXCuHAQJte+I/DSsLILbyFCivHkqoGY2MAR9VHhnpqAij3V2Sl26dMG4cePkkW5+7Q6vgN55+x3hL1m8GEcccQSeffoZdO7UGSeddBLGnHsuLp5wMVq3bonioiLHnsdqNUdEDvKqQ7SCvRM0lp2K2+E7EctOoLIekIxNMxOoUmACZ6ykoevIKcJJqCQHIyr7idZxGCY20DSHpROcFrrhCUHHOs2QJAmYfYnzxhZD8rRxjgGOLVkj78DiMcSxUSx54klfGiUtq6MysOms59gxoIxXHiihfHnmqot6emnObnmwmxxc+IxRo0Zlba3ySNEB+8yzz+KEE07AwoULNdEDdiZJSUk4/fQzJL91m1oR8SW5LVs2i+73P3yPF198AY8+9ijuuPV2pKY2kR/Jlt2xrdoFUFEjUt3xbWz7RVCPQmNMYtNTVo9J0k8POpUwPCZQkLN/wySeI8dgvifpxEIzCRMYVixJrWSciLHBkLRN8AXx2IYR8YppY/IGjqM1dSBw3sg58lrOyTsJZcMBp31sGV0DYWtjXrpGSMciYtK0IrJFg4B66ohsBLnFtQkaNzOcYfjHypX/YMqUrzFt2neKIDu8SprLZFu3bJGYV0qMhX+p+0XHHH20xKaPV6xcgb//XoqYqGiiKV1jw+uhg4p2KVO2ihokQrHP+e+P6pXEttSKlQJP8MY4x34L8leOJSxsK28ly86Y2pajo+Er5lWmbdAXms4Rq4iaSVg8rocTmEhTr9A5zbFJMHx0TWyCgcPjhBSsYMowgXl2XmgaoqaJxoRD0+C8lVVVtQhBQI0ckal3IKiKbH1CjepNYxXc4aplVLHx1WnrmPPOk3s+Tz7xhLxsVIxYhubOnYtXXn0Vbrcbp5x2itB69e4tMf+2iMHiOTm5uP3226nK5ILInmNEt8F2RBU1y3kdvlMJj169QzkNqb0aU0nVOEAcFWtMBOYSlwOdccR03jgxiZmpBXzMObaMmMCfkAk2SM4mGRuirm0YUxJrYYdvmBqOLV85guE5Zdi6RPQxpWRU0mOXCJy2bZng288M24adNvp+VMQO/fMx5jlOgoMqOCJTQw+qUpXgVjtUqFkbGx2sxpftmeBgyNAhePi/D8tltyOPOgojRozANddcg39deSWOoPQRR4zErl07cfc9d2PwwMGiM/6iC5GSkoxbb70Fo487DheOG4fevXvJW7b5Cbzc3Byao7yfmivi95lpVDympqWhanEQUR92zmrUgVX8r1B1nxtHIwyK5X4HJ3Xe6ErEeZZVSa/YARMsGdbTJiTB9sro+IIEjBlZxek8Q2LHoLeMgWHzzwjcUTojgl6qAkvNcc4mCLSCyQvPYXpg7PqyJE8bm+6kKcF6Ns/IOrQ6fVjBt7dqiBq1I7id4EGQ29iIYB9TNYIfOzfecCMmfz0ZI0ccgcWLFuGZZ57Biy+9jOUrVmDYsEPw5Zdf4s477iRJVi7F4EGD8emnn2Lw4IMw97ff8NXkyfI7pM8//0webNhvv27yODejWdNm6N9/ANq3by/5ShHkAyyMspC5lfu5TF9TXg5B+zg0aX88DTbIZBMYxjSvjuPjgSi+rKuJfop1FI2+iW0CJ8UBUcJfmb5gGRsRLmymk6S/tm/Hbvmdm7bBMH3BkU2Liab6x6o2xCcCsQlANOWjqT2y8hdBVZQJtg2GOXhNfQzPn7ztlE0s79TjmEjSdmYYZnAQ/gxEgwcPn9mLaopg2qoedtBBum79ejrWYtCpYyckJyVpTlnwJYKtW7bCRWeYLZo301Q+TtQu7Xs5Tr45U0n7Dhk2DL/Ono0///oL/fv1Ew1G3fZK4wKvVreffzvyl29C20evhCuKJtQSvYI1HV4G/kainPE0JJcba7Iy8eOf89GjQ0cM79gZKOTXSBHsCdfI+zPnSzM6Npiv6cY/eetRgtuXnIIr//cknnv9Zbz80COYcOQovqbs3z7L0zHw47Il2LB3j+zj/Hk6YiCypBTNU1LRt0tXNE1MQjS/hcS2Y9eRaXZd/PFsODStZBwv091uFGbmYOvNzyO6f1e0fPPfRGdG1dBwPgMRRhVQ9R2hfATTVnVAB1iLFhg0aBD69elbiRPi2kagdevWXk6IwQ7I69IPQeUqb58jYZ2tV6VXHC2Pehi+kL6J1CfonKGgI2+UIfiADdgyOi22aBMTg1//XoYJt96AF778DJCX6hJEzce2WS34kL0G3+bZdIbO+5KVjla03nVYKCSTt7QkqeVpFfTE66/iwuuvwdirr8AFV19G4Qqcf+2VOHb8GHQ9ZgRGXnYRvvh9Lkr4o4+sy6ocG5PalBcq4hl93nBs+sVAdJjGfB9eDRB2RGHUIwS6Y6tn4jxzib8jqprwqYJaRQUOR70ax2gQW1GvwScQ3K/qpac6mP6S2PSEITJYxs4TfLIevtbnqLRIkm7esCMwO41tS2i8IuM1NidpyysSfjsHk4Wl9Qwkb2gmTYHoisVpik0xXB6tWq4YfTymPfcyTjxgIJCfq5ksaEMrRUQiUl9+e/jmmzDpqf/h48eextsPPor7rrsRww8+GHPnz8OpV07EtU89hqKEBNKxbLEZMaXt2cVokhM7TB3bfEeGkrJC0iGICMwRVVJmcKvUiKE7KtxfNYU6MvjYVn1pHSk1BE+RXqjJYJWr658RvFaEAEHcaeVKDwcz+5iBNB0gTI5VVjEpmMnP0CWrMxwx39EhUFq7FhRzxnnfoC2koSdXOfHglVNKGsAr7WZNgCaptLqK0/ZJV9S1jehogFcj/Bb5NJZtgoi0FCCB5dmDGVBNigvQu3tPHH3kKLRr2kI5OjZj2mWD6TTpF2sbQw44CCcdcRTOOGwEzj/qGNx9/nhM+9/L+OKFV9CySVM8+9ZreGnKZCCJ6iJfuhU1Dd+8lfFTtBBtOqedvGk/wa9u9RCYIzIFl4NK2PUQwetBrzGqDLqjKu+vII5wyFB3dbRLrum+59sKk3foNSmg4R0Y5SOIbZGTak7wxgSBZminoOiyIXAFdCUM3T7756TnzETnKdKTvFrZUjAyimyBCOSoCpNT8OWC33DanTfhgDFn4sAxZ+Dsu2/DtGVLUMIORqrAG5KPicasNatx36uv4IjLJ2LgBeeQ/Nk4/eYb8Nnvv6GInZlUQulExMTj+Umf4diLxuD7pX+qBxEEYtSqF22ctOKV8idScnMo5NHKikJmJrBzF44ffAgevfNekXnipeexJ49WWebhAobx+gyOJGmYBlKQFfvwTVb6W7l2tZg18jVHYI6o0cF3IKoPGQ+VDCKCYTF4O4l/BL/VgSKYJZe1Fep+Y9Rd39UJfLpUsiU8oVE/6MlNgfM6dsBpO89geaLJbGjpGzMMxylZuj6P9CvTJCSrnAgUJCfh0gf/jZPJqXw//Ue4Isl9EXvy1G8wavwY3PvqiyhNppWPfrCiwO3GOHJY9z/3NHbu3oUIF02n9P/T7F9w+pWX4MZnHqXVkr7PyYZiY7F4zSpMm/Uz/tm6RT31xnXkepi4HIhtI2Dk+VLj7t04+6ijMahvP6zasB5/rFhKDi5W8RnGWRgdB14Z4hvbOvaFL1k7+GBhH3VE+wLK2aHCqBgyuXl6L7iH2z4I7sAyuyIRZSLjWFHK7XC/uzERxYHotC0kWd4o++xMGPLwinMtkOCczWvd1FS89NUXeP2TD7B/py6Y/fHnmPfuJ1jwweeY9vYHaNWiOf7z7NP4cs4sID5B9Erz8nDHRZdi8eSpWPjhJ5j3+juY/86HmP/V1zi4/wA8/cZrmL6IVz4xVBUqhx2hOBS+Z0V5+TqtZCnWCSevAr9gVLLcX87kT7HxSxTzuqpPr17MwIJlyz2/U2JxOzBMzMrKNIESYtsheCW9dDhwXYVmC9UMYUdUYzijVK9RUS1tXsNoTeih/REdasE72IKGOhmkahYq3eerS6shX7qviOGXVyzThacFWN4MlcOL8Hw63gtMI2HjDCmdW1yC1z/+gJn47213oE+rDijdsZN/T4BhPXrhjquuE96rn3xIMz8/+lCKGHIk4486Fj2SmiAiKw/I48tneejUoSvGn3euyP+84A95DFscn1dd9NRrqqA2VsxQFxQZpeb7WgxbhFFYiM6tWktyHb+P0TydZ/cJK0neUjZJkeGNj2E7y2muP4mpi3OO4aAg7IgqhM/A+EVwByRUqKiWNq9htCZ0MO23j9d6hzoZpJoU6qurnpsTur0SsPtcPJXmOdACMjiGpxWZZIInohnOTHEsw0El1UaXQauU7Xt3YdnKlWjRvDkOG9AfyEpXsyNP6ul7cezQ4YgiBzR/yUJkyiftickrnKgobMzPwmd//o4XfpiK/039Gi9++B7+WbOWZIBN69bRVteRV2TGGUm9mG5g0hybtJryBc5qju1wbMkTLz9f/T6qmC8bOg7WEwksssAUxTRjzsgIzRA1NF097ciZABGAqGldGH7hMxCNBOXtFxXuL1XY7xoK+EZ2IZ1NctPMIe+Okgd9vVBcXCSfLjc3vsOoIqTbPH0n0xht5OgyfWrYziFn97WdJpjlqpcSpz1yHv+maF4WhElB1IhDTmHD7t3IyaPVTLv2SOC3FogE3yMioZIIpMbFo3VqU+RkZWJXZpa6xJaciic//wi9TzsBp195GS6//WZcddftuOy2G/HYC8+Ljay8QilP/eDAOGAmUblCoo2QTA0VX8BJPUN76m/4VotcbqzVLwbu2LIliTCP5SxbDMlqGrebxYwZUSGeUZFYMzlt6ATVp7ZyJbB0y0PYEYUAAQ5PnaG8/aLC/SWAnSkoqMXO4/sG9957H3r37IWBBwyU99TNnz9feOeecw4OPPBA9OnTF6eeehqysrNFPoxqwKfbeIgdks3jtN/xJ4ZzEmDFXrqUsfM6U2qWtuxQPN5P/h2Q7VL9LkI3rS7kjF87O6VeCv41T7Tb7czfiI/DV7/PxfUP/BvJcQn48On/YdGU77CQwuLvpuPdZ55lKZIlaS5W6qfSQhcj/sAMHUr4t1ZaUArWdB0p0MlUaRFWrlkluf4995dLdQokpMuThNGRmBk2n9KmLM0qA00XVpCPhbAjCgGCO0QNC/723yqhljvv7LPPwubNm7HgzwXihHLI4bjoDHnZsmVYsGABlixZjNHHj0ZKcnIFk0cYlUJP7AbGP8iAGxbTHDFKiIwWlInP0BicZpomcGSXYQZLPyinJnITazlOs11a7XZo0Zx8SxzWbNmEHL4fQ3RnvEkks7AIm3bvREJSEpom8zvfYvDh5C+E/dBtt+OsI0ehT3Ia+ialoHeTpojUuup2DZfJgSPF8KwqLDgkVqLA9dR1dS5lqoyCvDYoGT8uWojfF/6F5k2bom+X7gBfpitvZjdmJBhDDJPWdfIMkAde/Ws6NjgIO6J6BeuacD1HefV0dtUG0pB+/frhhhtvlLTbxc8yUQvoAI2kNGPkyJGYcPEESfNxazerwiY2lIGsAbiJATfTmsPkkhcHVpYJz57gdMwkIVs8hu8gCN8QKNbi8pkCTusZLsJNmRha17ij1VNlURT4EhzHkS60JifSp1sPbNmyBT/TSQmSEhFRzG9lIJupqfhuzkzk5uVj4P69kcwvUKWJeC//rofQrFlL0BkMUEQOgFcjCfGY8vN04UXRKkoqoqvorKol0mmGV5s03FR5I8J15YceuGyuP//AtnkLLN6xBVfffYeIXHTWOWhnHi93/ITVN07EGwo6Epj6OM7GT914rHSVPG/FCA6C7ohMnWsbdVVucGGuINd/+Dth8kKDaIhqxDXXXC0OqYgmnhKi8clecXEJYmNjcd9998m3kAzsZlXYxIYykDUAN7FMMwM5EFmGJmSZy+yzbBvOcsTAyosK531ltC3aOdWraDitaFu378DsFcvw47rVFNaoeO0q/LB2NWZt3ojo6Chccd75Inv9/fdiweb1+s0KTfHDogW46/FHhXfZmLEAP6yQX4T++/cU2ruffoR8dhLJKShokoan3n4TH0yaJDzVRvYKVBmKnPuMzJDA9aRYVVPFxlkReH9k/LVqJWau/kfq+9OGNZiyeAGufeJhHHHOmVixZjVOPWYU7hl/KZCRQdIefU8X2TQphBMqSF85gg7ZCQwrLxHX0fCCgKA7Iqu5tYrQlhvEHm8sqKuBDirUBZLk5GT859//RqQ81URUaVsJLr74YvmshBca0K5QJ1UNZL+gia/U3P8oV94w/LXC0GxlTTMsjomtf3uKad9Nw7BTTsCR55+FI8ecgSPPO1PCURQuuO5K7MzMxLhjRuOacRfjn7VrceiZp6LHqSdgv5NGYfSF52PXnt24/4ZbcNygg9UbDrKzccWZ52D/Ll3xzuefovvoo3EQyXWl+K4nH8dNV1wp5WbzW7GlLrRvuehEU0/4xXL5T5IKur4Cpw2U4NcAEa658zYcdsbJVN/TMfKcM3D8xAvx9Guv0KIpEvdddS3effgxxBXml/XfXoUYaCHj8MQxGRCPs/aZpuQ50MargDKFVRvhz0CEsU+Dd35zGJ533hi8//57ku7QoSNm/fIL2rVvJ/nGDrsfQg5yQtv4MxAr+TMQV8DFK07+lEGZWug8kzgpWdpI7CvHMDSdj4nBnPXr8O6XX9LqNpq4fOLB+hRIlJ+IK6G6NE9JxjWnn4V4mvNLUhPx44I/8MqnH2Pjlk0kFIEunTrhsjPOwSE9ewPp6WKaVzYRZH9tThae/uAd/L5gAYrz89GqVUvcNPEydGzVBg+++AL2J92rTj6ZnBetomLj8Mnvv+KHX3/FhSeeiIM7dFKX8pwJnmLTBPagCQl4/ssvsHLTRrhckfL7VxaIiYpC2xbN0KlDexzUozeaJyapV/7wysvLqRA4q02bdouMoQuMgIGWk6ROcOR2oSgjF1tufh5R/bqg5dv3ew9DgPD3GYiwIwojDI0VK1fgkCFDsWv3bjz3f8/h8isuJ6rvQRpGGVS1i2iS3XbBHchfsRlt/3s5XPzIPK8QzGTswOR9YplQTUwkgUloniTJ7UTHICKWX3njK8t5XgFTzCE7i+bxYvJzRIuLo0A6WkycQl4ekE+BiWKHNqzHr+lJSkRJbIy8WDWiuBDujCxyMEVAYgJ/GlitoPjiE9th23y/h9+8LR9vNPa4IAMhKPBbHOQN3MznMpnIDociftKvgOrEdv15BK2iYq+Mijlpl8Vw5CwYEjuizFxsvuk5xLAjeucBYVcKH5Ph7xHVJWTQw6jP6N6tO8ZNHIdeg3ph7LixQgsPWwDwmbf8w7snWUVd/eENBUkTVWzZsiZtxaY8iU1Gw+iLODkG/p1YRgZKMzPU/ZN0DrSq4XjvXolLM2g1wZcK+SFtntDZcezajVIdsIfkxAlpiG1dH36ggWysWbEMB51wLK667y7xT7LCY/v8EIOpIz9Cl0sOKIPoebYTYnDCBAvZpG/qm0GxBKovr4DYmYmDZR1dHwPOiilN55WNJLV9WenotDB85fxAxPj+m9YtT84XppgKEHZEtYUABiOMqsM6hGqMmRt/xfYj96Ljnd3w8vLXsTtvNw1beOCCA59+pEFTz4gSnSc2c0Yvs7gB03wDQUS0rhMzKC0Tqc5bkRpHCqYsCcJWRUua9Mk7yo14choREoisnsFWYO9pskaPf9wa6cLCVStRzBO1vFWb5YguBhhcT4Ipm22yroFmq9hicFLkOWZ7mmbXydHhBAVji2mmLwwMz4fs0dewkgIvm5yhUMZG9WF6KejwbUcYYYQCfCzU9HhIz0/Ho388gYf+eAyZBblIjkvFlPXf4aqfbsD0DT87+3Ll+3R4rw8IMmA8oek0x2UcEMGLZkA88Rwq6Q0/dL82CCJDG18bJC7mDV0chyQ8DKkv0xiULyxC1+at8NFT/4f2rdqjmD/VwK/wYXkjawKbsOHYITh8m0hgmjhYI8BppunAcPLEYxEvpobQCWVYhqFjW84G0ylIVdh1+PJrgJA5ItOWMOo5qrAzBXG/qzeYvXk2rp5xPX5YPwOx7lgc2e5gjN//JHRL6YTd+Xvx4LzHcN+c+7E1e2sA+3QQ9vrG2Mk+UL6BNhyXaS/3oSZ6ORxNk8hOmz6njJEzMhITmO4ELWfzKoKxZXTsvDJI/xRyc3H6kGG464IL4ZIHLzS0iBMMjC2miU0NO83wzRs4tkjASVPCsUcJ6WjLgEmyjKNDsNMMW884cseuhrquGjSEzBGF0UDguxNWgCqI1gNUfKDsyduDx+c/jf/8/l/szNmDzqntcWGvE3Bw6z5IiorH2J6jcWynQ5AUnYhft/yOq2Zej2/WTqXjUtkN7mFooWF1crXAl8mkH+3LS96znI4ZRGeWYcsEyHzfjqK8mTQFlPcxo2KWo9jwTJp1ObZ1DLx0tCGJeMN66iKjfLQuO4tIWkbs6sCw06YcO2+CA8pwnmW86ATRo41x1gbGnoB5Np+ZloBhGVsObD1bnyAmiGb6K0gIO6Kqwh6vGiFohmoHdVXdapSrVNRvhBi+JmZtpFXQTzdg6vrvkRCViJEdDibHcwKaxKUgqygH+aWFyC8pwCFt+uOiPieje1pn5OQV4OkF/4d75t6PzdmbnWOQpyA9DVUbNdOun6ioTcyL5AlUOpFzHDw96kSOY6HYkeWEMH2CDU2TyVLHkhemgp0WkF2Wk0BZwxfHpwNHUg/aSEwQ2+RaOc+yTrsIjjwnrNhkBZyhoCNlzyctbeCEzjsg46a+DkxGx6YuHKtKUtA6xr6vjgMrb5KkLk107n0FB2FHVFXwOFrwHbrA4WOovqMuqsudW4NyjaqJMwoy8MSCp/DgH49gd+FedEvthHE9T8TwtgeioKQQhSVFIqt/bYLswjykRCdhDK2ORnUZhuToFMzdOg/XzrgZk9d8g5LSEpJVGjUBa1d/P6qfqKhHVHtpK43WkjLhS8IT8YzHZ9+GxnB0KMjEasOWNWkrcMQwJAOvztcMm28rSH1IwZnEKe+lr+HPpoE2ocAZCsbhmTbJbK9IqkyGiTU4a7MkbRM0nL7V8LLHPI5NsGHlha1WsrqmQUWDcETBbnQwYfafMEIA3+MiQPhTm7PtN1z3802Ytv4nxEXF49gOwzB2/+ORGpeMnGL9aK6MZQT/SkMNKRkqKC0ifj4Gt+6Ni/qegj5NuiGnKA//t/AF3DnnHqzPWm+Vp3aEquwORraaTa1/CLDxPJ1Jm83GTPC+cFYDBJYReQ3HGVhw7EnO2ySnbX1f+Do2lncmbRtMM2XQxoiIvA4MpnPaxEbQ5ju6PjzflY7tTIwek/zVz5Y1SZG16F4Qpg4EY9KUYxUh2fLM1AANwhFZ/VD/4DNQYdQd/B0fe/PT8dSC/+Hfcx/C5uyd2C+5I8b3OhkHt+mH3JICFOlVkJzn6bG0h1SlS5FTkIf4qFicuf/ROKnrCKTFpGH+9kW4duYt+PifT2k1xa/eV1pGNxB4LiAGF0G1WhVjgTaebQZ0FkcGxaaJbR0mmKBhswy4HCMmfCOkITyimYnapI0N25aXLstoJpPFjuS8dRwHYOkavpeeraThkCwe6xg9A5tmnBNHdt4omKwoMIygZhiy2LRpiiH39xwbwUE5jsiqVF3BdEYjQ31sVn3t6orq5Y/nu8fO3TIX1/58A6asnYpYVzyO6TgU5/c6HsmxScguzNVS5kKcgY9lMsoUnm+KS4uRW5SPPs32w/jeJ6NPWjcUFBTh1UVv4bbZd2NNhvoqZ9UQmuMsqFZDUUW2yZOcTHSmz01BZcdAQUZCB077yBkYEQNbVOg2U0PqYehWmiNb14gwhEdM42gkMsI2jBGKjVM0YnbawOaZWKs7kDQTfZSNnCOrZWxdhuS9BHXSx544ZY5VVsBew3f1WEPU3xVRcNtZb1Afm1Vfu9rUy+fQEFRU5z35e/Hkgqdw79wHsSN7F/ZL64wLe50kDx/kFvEqqJiOo7LWfcthCTNv2MgvLkCMOwpn9xiFU/Y7AmmxqViyczlu+OV2fLTyE3JY/PmAMMqDc4IuPU7B7njDM53PsPkGMn72yOi0RD42Dc+mlZe2TfrSOe+pvAbnKQiZBBwdW5mhZcT5KorApE3MMmLLgq8pA+M8jY4/PS8HSzBJ4zx9dcxxYavJONiVYEZ5laoe/Dgi35qF0ehRg32qMtVg7K4V75HeJczmJ+Jm3IBv1/+I2Kh4HEWroAv4iThaBeUU5dJx5lsjk9f3LDT4eGSOcH0rQPni0hJkFeegL62OLupzCnpTXFRYhNdpdXTLL3dhfcYGLWyX4Ft2aFA7pdQA0rH8oAeDtrZTYZ7T+czjvAlWXmC11JwxCEnLGZi0iaUMlZTYDlIuBYaRYYJzeY1BaZGljdFzEpqmNv7hy7Lz4jgI5cn4nhmZtG+dOc9pW9aBYWoYOSYbO06aNsaZaZosiJjM7CCh/q6Iwqg9WPtkVVGZag1MBwhVwu68PXh0/pO4f94j2JW7B12SOmB8z5MwtM0AuZzGn1NmqIOHnY4+jMwZoIEmex1kkrHkdJ4p/KBDjDsaZ/Y4Bid1G4Gm8U2xeOffuG7mzfh81SQUlfKrMBWURuhRO6VUH/wpBHn6iivKfcmTfJmzbl/YrSI5L1HffDkwMqZchpn4GY4NTlCQiDcsQ8E4QoaR1aKy0WICwzd5O2aeOSFy8iZoOkc66cgIOEMwOraMgBKOLENnvOQp4chrODqUsHmmfyx+CZHUkDnEGsPHEfnWLkgIXn3DCKMM+DU81828ET+sn05OIRZHth+C83udgLS4FOTwvSBzcPuB51jS+745BAzdOST0xOmA1zdqFSX3jgpz0Kc5rY76nooDW/Ukx1eMFxe9hrt+vQ8bMj2rozAIkZGI5DdKF+hPP/APW52BoNie4DjJefm4nElLQsVeep6kF8/QGYbngDKcl28slGESuG4c08Ypm2ESOubIDgwnTRtJc6yJvDPZ9jTZCSbh5HUsgek68A5o7BiagaEbRW6j4evIo2OCGQsdJDJ53lJcXEIkSQUN1mcguEUGihTcz0CwTbuMfQv8IazMjEzpBR5E0xN8khUdFYP4+PiAu4f1s7KykJ+fj6SkJMTExGjOvoVdubvw0uJXMWPzLLhLXWif0gbHdRqGlglN5RFrAXU4H/PctRzUnu1JyUHmuyoqA5b1lbFsmDTZcdG5XZwrGn/vWYepa2djZ95uJEbF4oKe5+PETqNpzg1fhGDsufs5ZLz/PVLPOhIpY4+mpWW+GgvpU9WXyvPbfcxgHse0ketDLMdk+1MITNB0h6TlRUbriS0aD1Ou0Ze8BieFrOUFRldFjoydlwxHktEyvoIcUczlanGlr3nmJaeS1XICSjtylq4RFpumXezAtYBEjrCywRCSlfGic54IfLIQH4v0937Anne+RdL5x6Dpv68UURGrAir5HpExZ2oR/h5RMLFq1SqMOHwEcvPzUMQfw5L+LqGTQxeaNWuOAQP64+STTsYZZ5yBGP7scAXYuXMHhg8bjmiS+/67H9CiRXPNqT1UZwcMJqZv/BmvLH4NO3P3ICkqEYe2OxAHte4tKxH1w1R1IcyzN5cD3ZAK21PGkCZQxN/uV+eGSls4NOHEumKQW5CPqetmY/HulSguLsKBzQbgsgET0CGxvchWG6Yuqsjah25uTapR8M8GbDv7FpTmFSP2gG6I6txWvcVaYCzr/jQlGCdCgWni06UuXBm9YrJrI86HIj2xmz1CTgT15C92JMGOTEmpCVxBpWjL8o6v441nRWBseemxCieIJ1QhKD0xxzQLyi9yTay9ybHLGR1TXpmijSlPOkIJ8raE6SLDTIIW408tMcQfcjB8gslKLPJcD0lQUgkWr9mEnD9WIDLajZbv/gfRvbqUsRMIwh/GCwqq0fOEFctXoG+/vuR4IjF40EEyyLzTFRUVYe3atdi6bRvtV6U48sgj8fbb76B161ZasywmTfoSp5xyMl577VWMH3+Rpu4b2EGroBcXvoRZm+fA5YpCp+S2GN15OJrHpcnDA3KQsiAdhXIvQrTKgXMgq8nCd1T18acPTAUmmazoGILENpdJLsTT6mjpzjWYtmEWdpPTTIxOxNie5+L4TsfBHenWkoHAFFK/UJNa5f74G9LvfxX567ZRjqzI4ClrYleSeiJ3oHIy5ZK8ElE6Aq2jxpZiSSp3o6AmWMmZQuifJ28ZZ/P+O/Zr4uhM6UZfqTCUg1OOjH8GLVbJCFOlRFFVMqzk7I+c1Szhansm43GcCmKLM4osEIdFNKcOLKCSTPTsuz7+WYvrrOoJ7x5WOeZEGilSYvvcRne7lmhy70TEjRjEQo7dqiDsiIKGqo/AihUr0KtnL/To0Q3zF/xJJzFqmHnA83Pz8Psf83DLzbdg3rx5OPbYUZj89WS45cuMFngvoh3igw8+wPz58/HAAw8gKipKMwk+1QqkltpkvUFFdf550y94adEr2JlnVkEDMbhVH5pEaBVUXOgcfGVgGeXJQeQ4mKOyHCiu2oo4E21YRH980aTCEtxxyCrMwtT1v4pTKizOx4AW/XBZ34vJkXbSsmpKqByqPsFHzexWV7s0Ixt5cxejKCPL037ZIdUEWUqOQU3gTLN62EoKRJU2RGdph0Qwos5+zgQjryE69K9kKMc7ifpX4va+oonOZM8sSTgsraNoKmMS/uAIUURlc5bSEhm6pFQvcF7Sul9Mu5zi1DfFBcJyGq4hQk5EcxHZk/YpmCSX4tSCn3JMiEPcwXQynZYktOqi4Tgi6R2VrL+oWiWXkyPq3asnOaL9sXjRInFEvtixYzutiI7CIuK/9957OPfcc4Wek5ODjMxMJCQkICkxUWgG6enpyMvLQ2pqqtwr4h0qPT0DhQUFaNqsKQoLC8UJbt2+Hb179kSrVq1kVcawW1BA8n///Tc2bdqEXr16o2PHDsikMnNyc5CakopY/txyLcPUb0/+Hryy6DX8uOlnOmF1o2NiaxzXeRhamHtBWlAOTz7oOE8wB645fFXKpD3gA0/kaONMHkKgIBulo816WXDEGJJRFIdGYIorwoVYWsH9vWsNvls3R57si42KwVndTsfp3U5BdCR/TC2MMBoY9OHhOUoqR8P5VHigLapTVK2SLG3ONOxJykbz5i1w2223SfqN19+QmPH++x+gNTmQ/z78sKZ4cNXVV6Nr1660ylogeV5CX3b5ZXIZ8Ltp38m9pP79++OYo45C9+7dcfc9d4scw7RgyeIlGHXssTjggANw/PHHk1w33HfvfXj6qafQpnUbTP7qKy1Zu+D6zd7yK66efiN+2DAD8e4E54m41Fh+Ik4/kCAN0ZO/Z0Ng18Tw5Mv2PuWZLEslh1JWjCBiKunAS0w7IRtKJ0KerOOXqHZv0hkX9TsNA2klV0RnmW8sfRs3zbwdK/asVAphhAh+BtQvApUrDzXVr2NYKyNBgM3xPS6qinIckb9DruGhPu0SbrcbURSkZ32XyhaGDBmK5JQULFy0UO4bMYqK+OEGyMrHF1m0asnOzia7Hpt5ubnYRroXjLsAKWkp5FCexq233iIrpgfufwBff/21llQrqvPGnIefpk/HueedhynffoO77roLL7z0Al5/8w1ZYeUX8Pf1g4NAx2Rv3l48Mf9p3P/bw9iVtwf7NemEi3qfjGFt+iO/uFB+n8NNVq2WXpWUgk01fwa2HNfG8ChWChTbtWSin1prWW945Dws4yAVJa84n1ZHkTix6+E4p/uxaJXYCiv2rsJNs27F28veQ7552k/Amn7KDgWCXEyt1LqiQsrwygxWOQhUrjzY+rU0doGCq1NZlfxdxqsINe0uDT+OyI/letafgSJIfVRjvP3227Jy4W7cuGkTxpw/BmPGnI8zTj8DU6ZMERm5Rkv/nTt3Qrf99sPWrVvlMplA7xwRFS5gyw7SqFHH4vvvvqeyr8JDDz1MTuh+oc+b94fEjHfffRcLFy7E5bSKevedd3DcsaPEEX3y8SfYsnmLyES6rPtQtQBeBV3/y02Yuu57xNEq6NiOQzFmf/2OuGL1uyDvtY5pu2fEPXTDYy6lHREPvQyY5bXzWBmdlBNH3njJUdayL5cK9ZafpDOyfE+L3/LQObWdONeDW/UlmgvvLf8IN8y8FUt2LlGCBN8T1JDBpx01QZnuCxG0b/eP2qhApagXlfCAq1PPqmQQ2KW5iipfWwdKA8aSpUswbdo0FBYU0gomC5O/moyvvvoSn3/xOf5ZtUpk5Lxc97O5h+M8kqr7OCIysM42Nx6vu/56iY3WoYcdJvHu3bskZnzyyScSX3rppRIbDB8+XC7TMSpYwFUZFZnKKEjHU/zV1N8ewtbsneia0gnje52CIW0G0ErCvClbWVBt8t8fHqqnTxUoQ0zmK5kKaqONOI7AiOq8coQ++mxe+Ibn4ZuUrLY0i1d2LHlc50MxpttxaBXXAqsy1uGWX+/Cy4tfkx/jVrR6NpAi6xEqr3FwUFvlVAf1bUzqOwJzRBWhPu8N9QT33HU3Zs2aBXdUFLp07YwVK1dg9ZpV2LJ1Cy4aP14JWf3o2YkV0cxFfs+O/UxUTOEJmx8ysGEcVF6+utTGDzLs2LEDXbt0Qbdu3YVmo2OHDhKXlphnQIMH36b8tnUerp5xE75Z9wPiXXE4ssMQjJW3IyQim1YPRsO0VveMbAU+ScmySpnTZuXKjEPzhihQMDySMkcIkb11lBUv+6qKBKZzrNZDjgSTTREUeDz4aSR2OJ1odTSx3+k4pPUAuCKj8emqL2hVeDMW77BWR0ZRYGJVkzDqF8JjUjXU3BGFUSni4uORlpqKkpJiuVfUollzNGvaHC2at0Ciz1NwmzZvxvr165GSnIy0JmlC86yQVCTQaXPGbJ85S5r+/TouhqZnZ2fJGxr4rQ7+3s6Qqp+YVBNg4AhE2tQ2PT8DTy94FvfOvR87aBXUKaUdLuh1Eg5te6B8rpu/nCqybJQnbk5zUoJVkr9CPV2iwHn7/o+VVikRUJGAqMzQqxi5vGZD8uX0jthgW+SKjD1fdW2XQ25JLgpLCzCq8zCc32M02sS3wvr0jbh19l34358vIKtI3QdUJvyWWGXUxEpwalDbqKjW1W9RQ+sLf/V1TpAMarlRYUdUS+BxNWfU/NO38jDv99+xfds29OzVC106d9FUBS8tZ3IzVEMgOM5JIo+ojo3TSqEVU5MmTbBhwwZsJgfoi61b1MMSXrYDQKDS87b9gRt+vhlfr/0OMbQKOqLDweSETkRT/nEqrRLUFO9phDyabaFMOV4E1VqvPuOMMcmBFnqGr6Z4HQyRICbZk3A/G7oiqrykrdgXJOPrvzxgJWMnAvzzj6zCHLRJaoHxfU7BsDYD4Y6IxldrpuC66Tdhwfa/SIN1TKgZamKh5qXXBSqqdfVbVEZTxrvcQa9z+GupHFo2o/rdUS2EHVEtgScjnljZCUT6TKgG/Fuhh/Uj2meeeabEjIQEtWoq1k/P2dhl3e8xYPP+ztOdYrXz4rr06N4de9PTMWfOHKEZ5Obm4rfff9M5P6jBcZZVkIXn/noe99EqaGPOVnk7wrieJ+KwdgfK63nkjdVSWafCOiYIyS6cWmpmeopUysM3FrwOLGaLiGeNoQR0MEmC58qbTnCkdQWUlpQxw3AINrEsFJeExaYyxMmC4gL5zMTRnYbivJ6j0TahNTZlbZUXqL6w8GX5cWx9RSAt3jcgO0EYAaLBOKIGvwvzfkmTawmd9vK9maLiIokLi4qwfft2TJnyDU44/gRxCP369cP48RcqPcKBAw+A2x2Fn376CZmZGZoKvPHmm5gxfQaioqJpHvPcx+FfVtv3M8y9ITOrlliyEyeqhxTuvPMOLFq8iPq5lBxiBm64/gYs0L9NKvF3j6iax9kf2//EdT/fhC9Xf0Nn+zEY2e4gXNj7ZDRLSJXVAJdfyksV2nKwx90pkvqRm8Iry6gYNxLjEpEQFw93lItoTDXttyrpz5A4MI8rYoj/swlKpHJoGYlEXxGMqndLFAzPxOyMjBQ7V35lUdvk5hjf72QMbd0frsgofLHma1pF3kKrIzU21UPZugQLTlv8omJuo8E+0sxgQjsi7jkT6icaw9i63S78888/2L/H/ujWdT9069YN3fbrhp49e+L440dj5syfMfDAA/HhRx8hLa2J1oLIHHfccfhr4UKMGnUc/vOf+3HaaafjxhtuRJcuXeR3Ro6zIfB7s+y8uRRnYLFwxMgRuPnmW7BixUoMHTIUnTt1RqeOnTH95xkYd6Fyhi4/b4EoD2za3zSXXZhNZ/Mv4e5f78VGOrtvl9RGLsMd3n6w3AeSF5VqL6Bu73NsUqr+Mk1z5emfX28SHeXGuvkbcee4B/DvSx/B7rV7EcNOmWVFRVJ61+a0hpM01pmgyxCeFlAkRdNpA5+s8WlizQO2zAxvqhdExwNPmnUipG94dXRMl0Nwbg9+sq4ZNmTT6ohWky8sehm58iBHVaFqo2oWIAIWDKMMarvvGuBY0QxT7iESRhAREx2DgQMHylsOUtPSxNHwwwjNmjWlFVBfnHXWWfjgww8xfcYMclQ9tJYCP6zwwvPP4eSTTsJvc+fi7rvvwoL58/HKKy/j7HPOQZ/efZx3zrEDatu2LQYMGCAPRtiIiYkWp9esaVPJq0kSeOihB/Hhhx9gxIjD0a59e5x99lmY/tOPtMqIE35VXu/De5PvHjWfzt6v/5k/FPcVol0xOKzdQIynVRB/roGfiDP14K2aflVs4G1P5Vg2yh2NRfOXYu+eDOzenoHbJ/wHUSVux/Eqq1pbZfyA+RwsAdbXDk+ynDBsHXsu2RFY3JExggbGvlZw2H4MWUmBrgOvELMLc9EhuRUm9j4NQ1r1RVSEG1+smoxrZ96IBTv+1ApVg1WryuFH0LelYZSDgDs5SKjt8oKAiDad+5W7Py3+Y0b4padBAl8uKygs0Dm1r/AcxN+n8XpxaQUoKirCxo0b5b1wrVq1RHJyCvIpzU/jRdNKwKVfkspvYODLaexAnCfuCEzLzc0juUjHubBNtiffQ7LAsiNHHoG5c3/DokWLsd9+XTUncOQW5OCd5e9h0uqv6awetApqgVFdDkO7hBZ0Jp8nExlfgnJHcx0jUFhQjEjqFL5pHxVL/eKKQkE+ta+4mGSps0hWdlbaxJGTjIh0IT19J9IimuGas29HiasAz3z2CDm3bLJjLfYZpGMWhvxCS/uCHI+DAw9ZDxIneKOFKOLVjy3mBUtHOVPaSqT1CcbxMvgBDM7LS59JRtIiq3RNUnwSxS7axJED3pi5Hd+s/hVb8rbCVeLCcR2OxAW9z0dilHkKU5XC6mYbRhihgmdfqxzlvPS05o6oKpUQVFkhyKhG+XVd5VBh586duPjiCbjkkokYPvxQxMXHITsrC8888yzuvfcejB49GpO//rrKbV+4cxGeW/gi1mSsQ7wrAQe37ovhbQ+QTuTLcOQhKV2KaJpUt67YgvzMfLTt2xYlkcVwRURhx+od2LV+Jzr064jYtBhyRuo+FbukxIRE/PLpbOzYuhsX3XQu3nz2Qzx794v4aPobSOycIPfeIkrsu2QBjJ9hsqCAErIyoqR4Hi3AkZExaS9dm8lQec9Kj/7Iq8RTP0eVRlNdi8l8hHyxNCKqBIUokJOFSOv2bVx0grw0VYGcFelHu6IRUxKLqRun45ctfyIrNwNtE1vjin4TMbDFgSJpV81GefQwwqgNhMwRNT7sO4cqv9n7kEMOwV9//YUmTZsiJjpanpjbu3cvevfqjUlfTpKXqgaK3MJcvLv8A3y5ajKKSovQNqkVjuowFB1S2iCvSP2QlufUkmxaIWYVITkhCTdcfCf+nPcn3pz0PJp0SkWTNk3xyBXP4MM3PsOTbz2Ig044EHk0OTOiYmKwZ81ejDv2MuzdnY5TzjkBl/9rPMaf+y/c9tj1OPCoPsjjlSctwbxdEUF5AgW/aSNPGStpxBh8vywuPha5efkoptUkXwZ0Vkiiw47Go84ppc9ClI6glWpcLOZO+QNfvvUt1qxcR23LR3S0Gz0HdMMZF56GA47oh0xyLKwTHx2P1x58B/8sWQO3O5L01UonkjoxryAPBx84CEdffRQ+WPQ1tmRvh5uWViM7HIGLe45DckyylBxGGPUJYUdUB+DO9UxK9Q2qdlu2bsWUyV/jm2+/RX5+nkyuI0YcgbFjz0fz5oF//XXRziV47q8X8E/GaiS4kzCkdR8MazOAiohAQWmxPLbO0yh/3vyFu17Ha0+9jZjYaBSXlKC4kFY8NEkPGzEEr31Hq7FLH8Z7r3yKp959CINGH4D8nHxZoLgLo3Dtmbdi+47dOHvMKXjq4edxwIF9ccXtE9H1wPYojuIJn52B7QrMhmPma+dAG0WWnNpqYY82gT0LwxWJ/Ix8fPf+Dxh15iiktU9BbkGuXNqMkEuBWo5jKsNjg+kqx8/08ac87pv4X0z74kf0G9SPVkex2LZ5B/5Zuoq4pbj70Ztw/IRjkZGTgbTYVFx6/LX4Y85CREW6yCzZJVMREZFyqXfk8YfjmY8ewJ696fh583z8tnWRnAy0SWqNK2l1NKjFIClXua8yrjmMMGodYUcUCDxzRtDha7omRSndEFa2CuDfvby7/H18unISiopL0CaxBY7rMgwdk1sj27xNmqrJteV7Zfymid++n49fv5+HWHcUvv30O2zfthPHnnI0+h3UE6dfcgIy92SjILcQ0anRiHQr5QhXBIqyCvHKg29h4OGDcOrYUfjhk5/w1P2v4N//dwva9Gwt7/PjsuSLm1yedJGegOUja3z/i+/bCEVeX8Sv8eE809l/scOUL1sqEVVxQiStSHJ35+G0QWOJ5cLJ54zGGeNPRIf+nZBfmCP35liUP3nolE0wZtgQk/ghkrWLN6B1q5ZIa5kCd5QbhfnFmP31XFw/4Q40bdYEH816HcVJRUiLYkd0PZYt+Qfvf/0aYptHyWrPfA4aMREgny+OMNEdh/UZW/HNml+wOXOHvJvwuE5HY9z+Y5EUU7OPmVUfXElPDzQOeLepMbYwlAg7ojCCjmW7/sb/LXoZK/esRIwrns7Ae2Fkh8HyZc2CElopiBRfUipBbEwsYkqjkbEnE7HxcWjSlCZhop136MX47Zd5+Gb+R2jWvSmyMrIQ7YqS+yL5KCbnVkgTLU2+5ChiY6PQPKE59qTnYOeOnWhB+2dsahKyijKRk5UlD2fwdB8VEQU3OYtC+ouiMlxFtILILZBJ3xUficzcbLnMxpe+CrP5gY18JCRS2lWM3PxsdY+GvZKsoDxTDb8vcN2f6/HJK5Pw9RffoaSwGCNGH4YLLj0HvQ7pjmJ3MXLychHBT2d4TU+Upyyv1KR+5Iz4gZDiEr7rpVZKbZJb4Oozb8NP387Ea5OfRZehnZEQmYjLj7sWy/9ehS9mv4uI5iRdTArkPdmXcp+QEcqSXUpGR1L7Sl2YuXkB5mxZiJzCbHlU/vK+EzCw5UCpSUDgStnVrypqqh+GXzSGbvXniDx3RGsT3JuNBOocd98DX/55fcmbuGXWnfgnfTXaJrXGeT2Pw7FdDqGpv1hWSWpdwBNvCRLjE2gC34BLT7oexw84G0d2PxHjjr4M62hl4Hapx8wz8rKRmZMj799754lPcOoB47B8zjJEkfPgXuYn+/auTcctF96L0b1PwxkHXYARPU7CxcdegZWz/6EyEqmkEiRQWbOn/I7TB12AuV/Nx5Ifl+H8wydiVO/TceqgMXj1P2+jSXxTFO8pwn+vegKj+52BE/qdjXFHXYGlM5eTw4ynSZ1LNGPL7VDpwqJCdDqgA+55+RZMmvMOJt5wIf76fREuPOlyXHTs1Zj50a+IKYynNiSTM+aVmdaUFZjqEV4x8f0l/mExr8TMR+NLaAVj3qIR5XYhkq9WMk+pIiYqFvFx8YilQP6GbJBH4h8ni7p6Oq+ghJwqnQCMaD8I43qdiI4p7Wh1tBX3/no/nvnz/5BZkCn2GRXuu2yzJqipfhh+Ud+7tYI9qkKEV0Q1BB/MPFnwTf/p02dgw4b1yMjIkKegeIKVb73zpR6ZiBRkkuNeJxJf62cIlzcyAeoBNSPDdOFJTtIsxifrPPuwPTYvZRhFsmu/bUGUtAFTFxN7Jl1li9PqDJvt6ctYlI8siURcXAya9W+BHwtmYNnO5YiJjMOglr1xeLuBtMKgFQxNgrya8ExypXDHRmP7ou0Yf+KVyM3Nx6hTjkLzVk0xZ+Z85Gfzo+bFWLt6PT799U006doEaYkpePiKp/HBG5/i2fcexoBR/Wm+LcbuVXtw6SnXY9f2PTjypMPRsVN77Nq2C99+9ROKCgrx/CdPoMfwrnBHRmHK69/jvmsfkntOSxcuQ7/BfZCUlIyZP8xCOp2RXXXL5fjpu5+xc+sODDl8MMW78MtPc9CiVTO8/cNLiGkWhRKa6NXoWuAuoYj7lt9owc4vc3s6Znw9B289/wFWLV2NDl3b44zzT8LocUcjMt4lKxYHzhiVyOP2CUlJkneVROCf39bgghMvE/1Xv30a+ZH5SItriktHX41Ff63APY/eQf2bhdjoWOzXqwM69e2IjPwsqSePkdRUdzv3P39+nOs+a9Of+HXTX8gpzkHrxFa4lFZHQ1sdpATDCKOWEb40FyLMmvkLrrrmGixYMF9TGidSOqWgz1WD0bRvSxTSiqh1THOM6nQIOtBqKLcon6Y+Pjs307bardixJccl47Yx9+H7b2bgP0/eiVMvGY380gK4i6Lw4NWP48O3PiPHHYmPf3kdTbo0QQqtJh751zP44HVyRB88ggOO6ouoyBjcdPZd+Pm7WXj0xX9j1AVH0qosT94aPu/rP3Hxaf/CoKED8Nzkx1FMq4Wp5IjuJUcUFR2Fp996CIecMgTRUZGY8fFvuOKca6V2R4wajvtfvBNxLeMQWxqHm8+9C5O/mIqHXroHI84ehtysHJKi9nCTSIF1VPNommcnTYySCHYokWiakozY4kR88MLnePSep+Wt5q9+9Sx6HLIfCvK4b7RDk416+i5jWybef+EL9knYtn4bfp81H53364j7/ncbmvZIRX5eAdIS0jDh2KuwYO4ipajB95mOP3MUbnz4KhTH5qOkmOvElaQCdBkqikC8OxYbMrfhmzUzsSVnBw+K3Dsa3/MCJEYnqnaJrG6jSoYRRkgQdkQ1QTlHKH/g7txzz0V2dg5OPPFETJgwQd5oXcw/wqQDXuYGvSpi8JmqmpIUz9ANVF7xFDih7gdITjNYjtNsi22ynEorGRHXtgT63gRDXrpK/54yWMqZKgVOeRTciMLCXYvxU/x0uJLigJxSHNyit/zCn+9tyO+CpChjUDISyQMGu0px2tCxSG2SjE9mvo1sVwaxSxBJk2nEXhdOPeQ87N61F5/MegPNujZDCq0yHrnmWbz/Gjmi9x/FoNH9sW3JNpw6bCwGDjsQb/zwHHbn7KIJnAsoRsuYVhg/+krM/XUePiP7bXq3xdevTcO9Vz+IE886Dv954w7sTN/BizrEFaXgpEFnYc+OPfjkl7fQtGcacnNyyVkm4ef35uDmK+/GjfdfibOuPg2ZmZm6R9TWRAzpSzIo77gjz7ds3kp8+Prn+O7Ln2iFUoKhtMq64dGrkNwqAcWUF1W1hOWUOMhNS7fi4tFXIZ9WifzkIO8nE64ahwm3jkdeNK10CorkctyHz36GNm3boF3XDqRdim1btuHNp97HX/MXUftG4d7nb5VPq3tVkODkqNgoWZ0DMzfNx4Lty8iJ58i9oweG3oemtOoy8NQwQFRZIYx9Dj77SNgRBRn8+YQhQ4bITfPXXn8dY8acpzmND9fNuhH/7FmHZHcizusxCm2TW2JPvn4BK+1B6ulljzPkmFNRMVFY9cdajDv2Chx32lF48K27sTt9tzjSYpJvmtAEE4+5Cn/89hc+nv0GWpAjSk4gR3QVOSJaEf3vg8dw8EkDMH/aYlx6yrU49MihOP+ys5GXnyeX63hlkpqaiheeeBNzZ8zFK589LY97f/Hqt7j3ygdxy4PX4/TLRyMrV72xOqYwFmcOH4/sjBx8Of99FCUUyIokjldWU//C1efdiktuHosJd4xDJq1qVEskUiBn4uJLcjGxyN+dh5+/+Q3vv/IJ/pq3GKlNU3ESOYaTzh+NLr06ILMgWx604JMAx4Z1UJYWU9G5JXIJN31XBr55fypefPItDDrkADzz0cPIi6SVFPUR/26JL3cWlhTKU37RMdEoJj983lETsH71enz002to2bslishxGXgf+zwS7Awj0Sw2DX/uWIbJq2dgV95uXNRzLM7b/xwt56sXhi/C/VNz1J+HFRoJXn/9NfmOz/U3XN+onRBjdPtjUFxYSJNrFr5Y9ROW7FyFOFcMr9XoyKSJVl+q8hyotGYQViTystUPWeNi+DVCSk6YBF5R8dsVGMp1iV+QmME7KE+g6bvTJT/zx19x6ZnX4pqxt+LaC+7AdeNux/iTr8Dvv/wu/ELWJiX1ux5CpKqHqVgpisUeP4otK1Upk/6IL0+gEVzqeW5Jm5Uh67NMVGQ0dq3chedufw0nDh6LWy+7F0WFJbj/2Tvwxe/v4OpHLkXzHk2wJ2evetqP/7QR1jeQJJHdyS6UxpciuVMS/vXQZTjzglMwb/YCTP9qFuIT4qjupcjJyUN2Tg4K8grF2fBThbHNo3ECrfbY5ryZf8m7DLVVJ/YUx08RuhHvjsHsTQswdc0sedN5WnQaDmxxgJYJFTy1aAwwu0MYwUXYEVUTJXQ6++MPP8o7zy66+CJNrQIa2PF5dIdj8OjwB9E5uQM2Zm7Gxyun4us1M8WRxNIExweoCQyJqY38iHJMtHp5Kq9i2GGxA+Dm89m+/GbHTNQky4osw85C0dQqK0a/G++o4w7DRz+8jdcmP4e3vnoRr096Hm9MegFvfPk83vzmJXTu01HeT6dcmipfIGVQKHXpOtAagT0UxZIXGd5wrPiSdDbkoMh55e8twIWjrsAbz7+HAQf1wauT/4dXfnwGR114BEoSSrA3MwNF+eq7UcYcFSJbJ09ZlSa3yJfkKPAPetNzMnDYMUOFs+iPxYjSdTV63E/ipCnmpxKT9PsB8/KLwJ+IkAuy9C+xKlKQ4IqTl6Z+uGwqrYR+xva8nRjSaiCeHfE49m/i/YJdU1bwEHyLYTQ+hN4RWQdEY0ImnZVu2rwFTZs0Qbu27TS1Cqjm8VmX3dm7eS88ethDOK/n2ZQrxbxti/HKwi/kkh1Pduw81Pwtd1AEfK+sTacWiE9MwOoVa1GYTWsWOsvnP35paWFOKbbt3Cmyyj2RNjsGvqFDUD+TKUGr1s0kX5BXhD7Du6PLQR3QeUgH7De8I7oe0gFdDu6AHkM7ISaRVhjFZEl+kcrgaZnrxba5THJA/DQcvwKIiuDJXUrijdzD4ZgPC1W+aYfOIq8oFyedcyw+mvkaHnr/LnQb1hmZ+enynSh+JLuUTlCKqSX86Qa9wPKAbLDv4/ZzWhwwCfFJDV86c7tcSN+ZLaIJyUko1tUojeSH0tkeO2rVthgXrcy2q48ixsVFO7+14mYa1+WOcCGeVq1/bF2C1xZ/gaW7/0EinRRcf+CVuPOg29AqoaXIhRFGXSP0jkgdE/UDvhNDDcA/nIzkR5ppMq1N2N3pNCeI7aoM/Ejw2P3H4JFhD6JHWlc6u96Bj5ZPw5erpxO3VCZIWudImlFMTiGtVQr6HdATyxavwLzp89G8STNEx0ahVWpzfPvBNKxavloaxm2T9vEErVckTCgoKESn/dujV78emD1jLub/uBDJiUly2aqYJvLI6CjEkiPcuHSTqMknxbU+P4bOLo7BLklcpOz1TFcrIQ6cM+A3okveJhL4oYPkZom4/Zmb0blfZ0QURyAuIgFp8U2QEp+KlIQ0pCamIU1Civ79k1mRUZDKKSfMP7dNTU4TBx2XEI+U5GS4sl344oMvRbwP9RffE+IVUYIrAclJSeRwYuWt6Wkpadi5Zg+++HAKIl0RGHh4f+QX5lMZ5IKoHLYfFxUrTzJ+tOJ7TF43E1kFmRjW9mA8dfijGNVhFFXHp3FhhABqHwyjcoTeEdUnBPnY85irm4PaKbUOiu+e1g2PDn9Ybna7XZH4bdsivLboC6zKWI8EmgT5pZzmMCx0F2Pc1eoe2l1XPYjP/vc1lk9fif+7+yX838MvonkLWu2QsLnsJNDKahUQgZKYUlx56wQUlRTj2gtuxYePT8Lqueuwas5KfP/WT7jqlJtx+4T7ERMRLTu1523VHkTySowdAQVeYShnpcrjiVm7H4LURLFlI1m4aNLPSy/EhSMux4XDr8SEkddgwpFX4eKRV2HiEddQuBoTRlyNi0dcg4tGXo0dq3bCRc5IyiB9WQHRCYyrwIXrTr8d/7v5ZfzywRzM+WwefnrrV1x2yvWYN+dPHDR8IAaP7EdOvAhblm/BZaOvx2fPfklyv+PPKUvw1fPTcPnp12PH9p04e/wZ6Ni3vbzaiGvK7Y5zxWLR9uV4Y8kk/L17JRKj4nDdwKtx5+Db0TLeexWkWxdGSGD2p/qI0I98VUqwHBGrBaYauGTjhekDPit3esOrU7wyIYWnpOqUWf16RkVG4dweZ+GJQx9Gv2a9sDVnOz5d/h2+otUROxB5mIGOxdycHAw+5gDc9eSN8qLO/9z0X0w8/Rq89r93cO0d/8KQYYMQm8APLFBd+FJVSRESk+MRHRMl75mLJGfAbwQ/ePRAPPryf+Tz4P+98wlcePzluPjEa3EPObdNGzZh7OVnISKKJ33ard2R8lsb+WGuqq74FHYxKU2S5fVCfImLpwq590JMrjOXWUoOh52VTCPGMTK03O7MvdhLYU9GOvbspTg9HbvS98jTgLso7KGwe88eWcmxc+MaWFbk21GR1HdvvPAObr7sbtx48V249cq7sGThMpxw9ig89Pq9KIoqkUuMCUkJ2LljD/57xzO4YcJd+Nf5N+HfNz6MbVt24uLrxuLqf09EZm4W2Y9EnDsWOYV5+Hj5t/hy1XTszt+DgS0PxNOHP46j2x/pVYcw9nWEfm+oSgnW49vmcPWoB/L4Nmvtizt4RmYGBg8aLC+6XLZ8OeKq8BXT+oXqjSBf/lGXd5R+ETmPL1Z/hfeWfYg8mgz5h5jHdhiKHk07ySUivmeSlJCA9M0ZWL9yk1yy69C1HZp3boYdG3bKfZv4prHyGjV5X1wO5N1wMansGNREzs4hIT4R+ekFWL9sA7Zu3oHElAS0bt8CLTu0hCu2BJnZ2bQqcKOksBSFmQWISoxBRLReCdFJA6/UCvYWyMfn3Glkm1dc3AZyMhH8PjqyHZnggjtGvx3C7h5OU91iIqLkLRJyD4hFeKXFCzdHWDm1oshicarmYQjh0IZXVtGl0di1MQN7du1FOjmyuIQ4tGnXAi06NUdWXhb4+0u8bnO7yWnlRWLHxl0km4nMvelIJkfaplMrpLVLQVZOlnwsL4ZWQX9tW46f1v+G9IIMJMUk4MJeF2BUx6PlUmPtwrQ2jDDKopLfEenI2oHCvyMqH/wan0GDByOfHdGyZfL03L4I3ylndfoa/N+fz2Pxnr/pDD0efZp1w5EdDpKvreYV58MVFUkrAlrp0KqlgJxPQWGhTMzyqqMinvrVfsiLGlmMkGfiiANzikuLEUGrnRhabfElQZ6u+Qe1RfyBOfIMEbxC5Y/isU1yGvwggHg3vbIhfyTfQ2Inyo9ra6r6JxlSEaclHsOCKd8EybNzoz/zwINaHVOKdTkiZyJPBXKGBRgkwnXmhCuaXwPFd4vIkbPjov4w3zhiBd5KGdQW/kGqK5I/g85OTr3zrriwSN6akFdUgCn//IIVe9eioDQfA1sMwBV9L0XbpDZcYoUwbQmjIaBxjFbYEdUAvruAOCJaEeXm5WLFCl4R7RuOyLcf/B0afJP945WfUfgUBcWFaBKThiM7DcH+TTvLx/H4yTLWEl1WNrueBUPyts06xOEJXzsK0WeIMR0zfO3acpwRp6FgkhLRhh0KO0Z5Co1IXAb7JoakVdKTMLZtOEIWRJlXYORkqAx5qEMMc/A2IupEkqZKkvmqPhzLvaDIOPy9+x98t/ZX7M5PR3x0HMbufy5O6nwC2Tf2ytoOI4gId2+VUcEPWtXuHUb58N3XvHpsH+o+337w1y987+i8HmfjkeEPoltaV+zI3YnPVnyPr1fNkB2OVzNqSqVgZngfsN0yxzfJCp2ckMP3p84Mm27yHJQB2hA0TSIxRhv5p412QgwTi64n8iS0gGQdYQ1HmCBtZSfESeOEGLaQAlNMNfk+m/gV2vAf3wvie1VfrvoRn638Hjvzd2FAi7546tBHcXKXE8UJeWpf1nYYwYH0cLh7gwLtiAwaWa+aY7FcVCpQPkS1BvoNGBW12t6DuqXuh0eHPYgxPc4knSLM27IYry76HGszNiM+Kp5k+T6M0qjIpsNzjJezn/oYcaSYzply1IQhutqAkfWV12y/5ogobJvIaa3jgGhKTjPEkCXEHsfYMDEl+BKdi+KEqDgs370Wry36FPO2L4I70oXL+07Ef4bejXZJbbU8azjKYQQD9jhaQxdGcKAdEXdpI+zWSptU/TbLGSrHzlntvoOq9FqUKxpje43Ff4c9gK5NO2J77g58tGwqvl3zM9zUiTEufiOAsel0qtBUz/orzafPfYeA8jI+FHSkZHyDhmf1oCB+wZaxx1jTJeKNUwBB8yQwjWNf2DIMXorpy4wC3/2JG0J8fiSbH13/nFZAn/7zHXbk8Sqon/wu6OSuJ8kDGgJ/ZYYMtVpY3cIaIq90GEGBz4oojCqDd8q63DHrYC6oTpG9mvbE48Mewdndz0AJCvHHFv61/yRsSN8qvztSZ/DKMr9ZwdOlvGZiV+HrLioGz+cSyJB6iKB8WCVLxkh7tNT9LFUDEvBUTkGpKbJJaFEvmLxFF5u+ckxgGrH48e8EN6+C1sjbEfjN2VGRblzeZyIeHPpvtE9qr1QMvGxxJUKJMhVvGAh1t9QT+DazPjc77IhqADVdUqjLEa6DuaC6RfK9oQt7XoCHht+PdkntsDWbVkcrpuH7dXMQFRGJaHkrg+5Mikw5isK97elo/13uQ2UDTDJkr4p7yyoWbS2yLc5peQDAODWOLAFnYUN0tahhgtbjrMCTMhCKKFoQDwrEUn9x/MU/P+DT5d9jR85OWQU9fdhjsgqq/LHssuXte5DB8MY+0i2+zazPza6CI/IzoPs01Dm6POpbpRFubP0YeHuMZO+0Xnj8sP/ilK4noLC0ALM3/4nXlk7CpsxtdPYfLxOsOCStwC5IdTFvlasyl0a9oYkSGX1tpAxISIsrixrGrm/MYJMsykHotDFOxKIzxThNQxYoD2URDHjV59HiJ+KS3AlYsWcdXl70GebvWIqoKBcu6XMR7h9yD9onmncbljEURhno8QmjXqMKjmjfHVB/h7v6QifHxK3SfNDY+jHw9tiS8e44+WT1f4bcjTbxLbExYwve+3sKvl0zi+Qi9OqI4NkInBQlPFQfCMOUxpO7dgu+Cjpv3JyXjK+shsPmhOOVLOisD9WBh+4rwflSxERGy49ZP+dV0Mpp2Jm7Ez3SuuGx4Q/j9G6nysMJHjS2fSmMfRX74KW58qaI8uH3cNdE70dlwzAItEcGNO+PJw97DCftdwKKSgoxd+tfeGPRF9ictR0JUTHcweL01TTN8IwGXyUz5ThXt3Rsj4kiefJMsHIWLIMWFElt5YBhg6Y8k+DKODQPHFEjpiKCdo4a7AwTXDFYk74Bryz5HH9sX0pOJwoX9hqDR4Y/gM4pnbRkeXVvLGjcrdv3ENh47oOOyJotarDPO1bsWSYMB4H2CA9BYnQCrux7KR445D60T2yLLbmb8d6ybzBt/W/yZoIYdxQJsqQeMEpLznoIwUmyHBVuVjkGTp4jY0ZFDkSG+SYI9APm+lqg0XHYDM743ufRYHnRkY0lQ/akPKLLk4MUf7X6Z3y88jtaBe1Ar7TueOzQB3BO97PljeeiruG/pMaC+tU6u9/DqA4CG8990BFZqME+78w7jWlP5bbUsD1VVbeHoH/zvnLv6NSuJ6MIBZi7+U+8vuhzrN67EQnRcXCZ3ZWdghRka5sVhuKZenjXx+hxynFNZcEyjgGyy4KUd+Q57eQpof6Vr1QUDyRjNMmpcd2l/vzeu0gkRsVT+zbhlaVf4Pcdi8FvBR/bcwweHn4/uiR30XpW2cGGV2UbFmqj6iHr99pGPR/nfdsR1QAyEem91PsiSwMGt6eGR1556oH2UGJUAi7tcwkeHEqro6TW2JazE5+u+B7frp5F3AhaHajVkamqpzweEJ0kmKTEtFHlW7WwBCqrm1ltccSORDkTS0/bskx6IBklyVtJUf35CUKOZRW04jvsyN6O7sld8fjwhzCmxzlyj6xW4FXZhoUGXPXaRz3vrEbgiJzpoA5R1VGuYZ3rQ5OriMB6yHNnp19TWh0Nf4RWRyfIG6x/27oIr9OqYXPmdllFiDPw6QfbYXiBCOakQSBpKotjL+EymkIxgcE1lBeRGoKfenhkGapgSZMS/y6I678ufRNeo9XevO2LyUQpxnQ7B48d+hC6p3YT+YrgU1wY9RHhQaoSGoEjsmeY2oWZjDzTZ6CoYZ3Lzn2NBN6Xy/g1QJf0nYgHDrkXHZLbYgs5Ibl3tHYO3JH8uyO+t6KcgsR6JNghqf6xRsahEThBwTgup0wvb6XAFBNkw3qc1luzE+icwKRVzHxKUcSrIFeJC5NXzcAHy7/Fttxd6J7WVR5GuKD3GGoPrZK0RkWwy6p7VFbbABEkM/UG9WuQ6j3Cl+ZqAnPwlHOjOpQoW2JjO5I96Mv3jg79L87sdgqKS4vwy8b5tJqYhI0Z2+Tda/xAg4J2ZMbDEDjv1TN+uolJQrZ5llPyVjEXYr2EZestZxAh97Z4FbQ+cwteXvoZre4WE6UUY/c/G/895P4yqyBPyQ0BQaptw2q0N/wPfMNGLbcp7IhqAnPwVHAQhXY8y06GjRXx7nhM6HMRHjn0P+jRpDM2Z23Be8un4Bv+3RE5DfUWAtMfZmVlb3VMG98xYbqR8UBLkVNz9IVEmzLCStaXzNXhVRvTv1nzCz5c8a18xbZbWmf8l1ZBY/Y/V90rCqNho+zO0/BRy20KO6IqwFwCUmm+JKSegvIaMy1jLgrZPEUJJurzEWBdFgsieqb1xCPDH8L5vc6Veyu/bv0Lry76DKvTN8jqiL8jxOVK2bTRwyW1MfWRXqus64ywtdpVJDYqCR9oomZH0jqIH0vfkLEVry35HHO2/ikf6Tun+xl4lOrfPa27EfdvrgJUVb6u0dDq27jQMHo/pI6ose2AfLVGbpIT+HPWxgkZmkDL+LgngRelvnZO0OqlWlsTc+XpxrhjcH6P82hCfxA9U/fD9uwd+Hj5NHy1agZKiosRq5+ss/XNeJj1DTsoX/vM8RojC46sPdaOTWNXXbaLdUXLPvD16p/x/vJvsCl7G7qkdMLDh9yP8T3H6lWQslhRmeUhEHnftpUlBAkB2C1T31DVpaaor/WqEJVVuqp7V93A+kJrWYS/0OpBfn4eli9fgZjoGES4IpGdlYVTTz0FeXn5mDZtGmLj4mQSLCwsQrdu+yE2NlZrNlDwXtEA9mF+G8NHKz/DZxTyiguRFpeKozscjB5NulC+QO4pcTOMA2KHJC6K/j0+RUlUB7YWPxHHn+5ek7FJXlW0PWe3WD6t20k4r/vZiCVeKNBAhqoBIdyjoUQlnwovi7Aj8oAdzujRx+Hnn2eQk4mj3TQCOTk5tMuWIo6cEJ8B5+bm4fDDD8O3336L6Oha+h1IGIJ/9q7C84tewtLdy+QbSH3TuuGojkMRSycOeYV5KBWvo9yR7zRTs2mHHVsJrcJiUVxSghmbfsO8bUuQW5yLjskd8a8+l6Jf875aNrioz9NleCoPozzUjSNqRHvk7Nm/4sgjR5JTyqMmRSCSv+FMcSlNQCXUUF4tTZs2FYcdfrhSqC6q2mfB7OMGPF4FJQX4dOUkWiF9KquhJrEpOJqcUc8mnZFXlI9iGiVumtw3okTZZhqK6QQ7LgumRtIff7p7bfpGfLt2Frbl7gB/neHEjqMxdv8xSIhKUMKVwJRUGQKVqxRBM1QN1GXZYXihLobCnyMK/cMKjWWHo9nrkEOGYuLEiZLlm+KmcRHikICLLr6o5k6IUdU+C2Yf1+F48UFRE/A72c7tcSaeOOxh9G7SHbtzd+OzFd/hs39+oNVKMeLkyTpqotVG7zI5Z+4tGY4t4VFkakxkFFxkbBo5oA+Wf4Mt2VvRMam9vBXisr6XBOyEGIF2ex0OT9Vgd5svqtKIiuyUh+roNAZQu6va9PqyP4UvzVURW7duIYc0DGvWrJHvxvDQF5eWoHXr1rRimo1OnfgtyaZLG8y0UU3wnk9trONmcm9zFUzMKCopwldrJuPdFR8gIz8PzeL53tEQ9Gq6n1od0SrW/N5I6RgLCrYtBU9OVkFRMVizl1ZB62gVlLOTnFspTuh0HMb1HCuPmocRRoND2Z0+JKibFZENz3FeDdRIOWho1ao17rjzTp3js2dVr5tuulk7IQaPZi2MaJ1Dt7GOh8b8xNTucXekG6d2PQVPHfooBjbvix15u/AprY4+XPaNOCJ2JNoPCcxj+caaY8uRUWMd646RVdDU1bPwHq2CNmdvQ4ektnhwyH9wed9Lq+yErCqEEUbN0UB3qNCsiLyO5MaHoqIijB49Gt99953kBw8ejBkzZshDC7UF6eL60M/1eqxV5fj3O5PXfoO3l76HzIJspMak4IgOB6F/ix4oLCmU1ZMH6qk63ybxwyjxrlh5U/ZUXgVl70Ik3wvqcjzG7n9u9VZBjfw4qRD7ctv3cdTZU3ONcZ/jBxdGjhyJosICfP3NFBx7zLGa0wBRhwNUm0VvztqM5xe+hLk75stbvLukdsAxHYagRVwT5BTlkcMqEYfDlZJ66YrFRMZQvhg/bvwdf2xbinyS7ZDUHlf0vQT9m/dTQmGEUS00gtkxwCYYsQb5+LapXGXtrIvhvHji5cjM2IuPPnxfU+oe1eqH2lMKOSqrFT+0MHXDd3jj73eQUZCFJHciDmndH0Pa9CdeIQqIz/pihzxRgjsW69O3Ysr6mdiSvQMuYp7U5QSc351WQVHBvRdUP3s0jPDABBchd0QlmbnI+nAq8uYsRmlBMSJd/LoVZd7rTQP8q3eTJbYkdd65Vm+IzOeIdSivzlKJKAYUU1QihMtMBRbhvLkhrcUlLUnmUaLE4hOVP0stOvTP9oRLpFKSY5HSyAiUuAE35fJz8lBYVIiklGRaGRUKnwSUMdGniDZiRTfY0JQwQQogsA6VwVnDYshXSElB1Z+N2lyCo09Bp5WsznLaS4eoupzI5HgkHHsI4o47xHnyrzywvLdEWUpDwtbsbXh16ev4ZfMcuGg02yS2xLGdhqBdUkvkFOYhKpIGmZo3c9N8/LplIQqI1iW1Ey7vOwF9m4VXQWGEUV2E1BGV7MnAziseRO6cv1HqdiOSgpw+MqQE3qjJy8z1CizDv8LhaZ/+aB5X4rSVhLKhpk6SUjO7YjFokpWJvoTTnOV7AsppcFA/ZGQG84RAosVigDU9llTaqRslOK3YLMwJolE54msoxEZFo8TlQlFBASKKixVPW+WNo04Fc/257kIjW+Jw2awjxUZFmiJhcEo4kuQt0aV+nBQHStqkJmCG5huHJZeZxOkwnWhM5jqIKNEKipiApHHHocmdlyg7IYCnDdVFzS2UhxmbfsYri97EjvydiHPF4+BWfTCy/UHYkrMdU9b9gvUZm9WDD11Owrk9ziaZhv3GjND15D6CxtKBgbQjRG0NqSPa8+CrSH9pEqL7dUXaOUfBTWfbMtlyQ7gE3Sih0dm3nnOJrARUe2nrYSgoBuWVnAMnq3U47SPiBW2HJ36emL3kTWzSlBCHYttTs7fJyL/YYTmha2FmUWTapQKnTZIdHDsli25gssyiDD8SLCs0RdBxWR3TfIdtYiMqTAPNpNVq4Zad2PPGtyimuMVLdyBu5GAlUl9g2hFi7M7bjZcWv4LpG2cjMtKF5glpyC7IRUZBOrokd8KVfS+jVVAfLV1NBLEttdQtYVSG8EBUCyFzRKX5hdh04nUo2bEXLR+YgJiWTYD8AuLwKHHwV4Sh+RtJo2PLcNqPLM/CTDeiDsqR94KtRLJSjKFJxhNL0qYx7LSGEXFgMuXp+qNZ8HJyNs9XlvMM2xZD6zLYqQlb5xPjkDVjAXY89QmSTj0czR67TvNsu3WEOqjGzM2/4KVFb2BrzhYkRMdjdKfjMKbHuUhwl/80ZD3praCj8bUrhC2qkmkSdo7DYKNhjFroHNHOvdh8yvWIjItHy/svRmRhoeoTfflIMjoS2GkDQ5N+lA3lfYX8wMizrLHBcOxYhDJOxgdGxy6Xk0IPBCQosqRk60maM5ou0AJGxoYjo3WCArIjqzqdZdORtCrKyMKWm15A3NBeaP7KPYpXC5Bq6Cr5B0sYpp0OLmTta00M6XnpWLJ7MdomtpN3xYVREUI3LmHUD5jz4LKjXP2x9+eIzB2GGoIvIZUALj6oJavA9WSCU18hWEmH4QPSMY7FhlE3dBMbx8GRzWe6ZjkJu4KOLG2MDvOEbmITdJ5hYoZX2tgmItNN+SLDCQKnjY6J/cFLh2MdbB2xpWUYtl3fwBsWlbQHkRGR6qESftNAEGHVyi+kWj518YbNrFDQQWVleuCR5Eu1HvOlSIlNwSFthtWKEwq8vvUVgY1L40DDH63qgI9R/6Mc3LGvviOyxkXup9BZJVdNbq8bx2BXVki8sfkUKyUFjr0mb44pYWYsoybQcsYWixgdY8MvjJANf8IkJ2TD03q2upNmGdsGpSVrCdsiXD+nTTZDg1lM4ljEaCPyFGxRURUBJefLMzEHcaQUDF3AJxAq5fncdmDwMuMHVbOmUJnNyhB4mf4kuXT1cEhFqGkdbTi18GM0mOWEUTOosaho7/KMVr0Ytwa481TfEXmNi7k1z1sTCGaWY4hD4VinBUbOxLyhtGELmEiBaV50I+dFVOJOWRbPqkoZ2KuKQCBlqKSnPE0wpiTLGQq+8pxx5JhhmBqGxzBp47BsUUdVCxme6XeOHBpvbGUfnSoiEDVdQsCoZlWCBFV6ZXUoj195WyuQ8GO0Rn1RTlFVHY8GA2pYKNtW+Vh4JGo0bvswgnNpjiZT3hGcE24zsfOoOHuIYRpwxsj58Jx0OXTbwRmUIbGudbmJ6+JVH4KTJgan2W4Z23rXEjLzJefJG5uG7lUGZRxnqGUlNgoUJNKxQNMlacXG2TlyGo6MigQiywQ7aF2ug9SJA5FIn88DgnthTkGV0MDAfaQ2VULlbfWRqHoRgaOcyoRiPAJvBkuGqNHUsArbFsKi6xOcJgZzoIPab+Ubq4EjsozKRMp53iN0rNkS6bQ3WIYYhsedZzpQYuZpgq++mdxZ3+gIdF7kKeHIqciJbR2mSd0pmAla5Iwwg3kcaUWjz3lbjMF5w2eYvJF1nIDJU+ANx44tnTf159jhGVgELSZw0mKAxHQs8hREzegqYc4F6WZhCGHqHGJIl6h+qSkqrHFwiqhzBN4MlqyjRtew6GrvebW0yxqEpHeDarR8YzWYf7yNylzJQTqfNpotEW/sQTFpM9H6QvjEY7YR8XU6wqMNyzp0neDIKUMHA1l9MdMI6Nie7EXfGKHgOBEjQGA2B0dfRQ4cUUuHwVkh8cYuQ4gEohmyF1hGJ01CdEhYsppvBwOpG28kQTyW1QLUbk0tH7atOkNFtawXFfQBX6jmftbZMKqJuu/ASo+P8lBtxX0PQbs0x9++5Hla9b01Ak7SYSqY/Uscg077Q0U8Y9BXxnE0Oth8cTAMiiXpa0PLGzFJaKaRcewTfJ2pT9Yh2HR/Mr52pB4UnP5hPuc57Qe2vq/D9AXLGnmJ+Ee2fgSNGX82NKyS6hBUwfpREQvcaRTssQgQ9a4pdYoKdr7GhH180IPiiMzraviejOw29kRtOpgZQtdpM8EaxyBpCkwXWR0cENHoG55zD0gTDJ0hE6u27UzmRsCUqfOWqIfnSSowQcOetA1ZTNHG5E07mGBoDF+bwtMChsdZU4bjOIVIkZYVYQ4mT7BFZUPBpA2PoVm8kcfuyaaXIxJeYLDN1ilqvSKBdlLV+7Xe9GmVUYUdJwxvNNxBDwpq6IjUjicnfbRx3uvGcC5nqayaUA2Pg8PQBjRM0rAZkmY5yWl5zltCtowziXOgtFOWgdYXaL7JOgmKjZ7TLgoc2Q7RyIuobDRfBCXrJDVbkSnjb/I3sRdsZUvHvzDBliUZI8ZZu68JIkkb9cohDVs9jHJQjc5p9P0Z3mH2DZQ373gjMCmFGjoiz47Hdxr4TxXOdFMNLVNmH9V8noy9aqzzjhNQkaJzRgdDlyxtxIYmStoY1bGwaOM4FQbHxLezzOfJWmJNc0B042S0WYmY5vWEnuYLUxuwHAC5bJ0ikKxnNcIrFIrsMkWPCRxbeg6IZ5fnlMN0neSE1FGnmS48Hi9HKIygwYxBCFELRYQRhn8ENmdUZWYJzqU5s2VrpnSOJU10c9DYPCdDcCZiAiclaCWOjL7JcFRCk6hZyRi+ZcZxZEI0AgRHVvPNJO4FL0MqshyJorEeTeMxsUBaEyAmXvLCk9gXnnqIu2bHxW8zEAfBbSEGZflum6JRcKrBTA2mSd2ZRrEjo+G0m+DUQ8uapEDZEFfkyIURHPgOSghQC0WEEUZtISiOSCZWgmdNYE18DH8HjT9Ho+ZGCprAeROMkDsKaJIKJCZ4aDaEZNEdfStmGDlHVKedoBm+zs4Y5CgmGrNWLMOlj/wbU/74DZBPhWs+QyJSNLrcQZEuclxNqQ3kvJpSoHQEpSOaEq0Z0ykkp5AuDY10KJfFQSWVLacyKulk7YyORVfrGz63TdqnV7HEF3ZVoM2HCrqmoUGI675voZzODLSPgzoW4YFtqAiKI5JZjibsSDNpMyT2zdsx8czsx07JSeuNkTPgfFQ0/tq0HiMvuRh3vvoSIhLIGfGqgnU4sIzRl1jDWSXocsQJ6rTEnCfYOrLq0JCkzSR5nsjdbixa8w9eeu9dzFq+BIiOVjwvWQbRtBNam5OJo6+5AsdcdQWOvPwSHHHlRIy8fAKOvGICjrh0Ag679GKcfPP12FOUT2Z4eHTdGE7S2GeCxWc4RVt1EDHaMEnIHp4hV/kSXRXFqwo2H6oifHqsEUIGXCVDjnJGKdDBC9YgS3NDtceEEWpU3xFZ+7rjf2jD39BR0AJm35DYJ88iEtNGi0tgGDkNua8SGYE9+Xn4ac4szP17Ea1IYj12OMFlS9rEKukBl6MJ7GgcGaswJ8lMy4jQeWPSBHKCyTEJaJWagiZx2ikyjKOz7TKo/llFRfh+xo/4afbPWPnPMvyzbDFWLluCFX8vwaoVf2M1hZUrl6GQ68kfFnQ614K0gW2boOG0yVIw7WU49TE0D08+nLePwD7HqH3URj/77BfVQF3uDdUqO9Rjuu8cHpUiFF1RfUdUZl9XT83JmbUc6f72DKLxxGhawiJ22g4GzKcgF49EVym4+RIXy/Hk6shbaY5NYPAnKVhHvhwbpfTEFMUixxu2z86EYl6N8GVAWoWJvEzyrCDCKuTl4ewRI7B26mz867RzUJqdrejGrkQUSxCiLqYUvXt0x9JpM/D3pGlY+tW3WPrlVPw9eSqWTfkes9//GE1j4z2OzYG2KTHXUeWcWPeNNzTTkdGxD6ReFsoRC6PG8Onoeoq6rGV97CHfc8p9GaHoisAdUQUzk6mYM5nJhGgpeGW1kMl76XCsgwHznQLo35y5S8QMSpSZgInOJA7sgGjlVEyrllV5mZi/axsW796F7BhyMMlJis/6Ikt6sXEoadIEG0uK8dfunfhj51b8uWsH9kRSV6UmK6Msy0VTyEcJ9uZloLCogOrGRA/PAcsbmDQ5xURQKCpGUnEJkkqKkFBYiMSCQqQWlcBFQWDs+DsSfPvZCBtRz4B4xPyYYTH5Jo8FP2L1B3aTw2j0qA/DXa+PhwYP4P8BAX0tcjhKPj0AAAAASUVORK5CYII=;" vertex="1" parent="1">
          <mxGeometry x="76" y="180" width="348.9" height="510" as="geometry" />
        </mxCell>
      </root>
    </mxGraphModel>
  </diagram>
</mxfile>
